<?xml version="1.0" encoding="utf-8"?>
<!-- Generator: Adobe Illustrator 27.5.0, SVG Export Plug-In . SVG Version: 6.00 Build 0)  -->
<svg version="1.1" xmlns="http://www.w3.org/2000/svg" xmlns:xlink="http://www.w3.org/1999/xlink" x="0px" y="0px"
	 viewBox="0 0 750 500" style="enable-background:new 0 0 750 500;" xml:space="preserve">
<g id="BACKGROUND">
	<rect style="fill:#D5D9F2;" width="750" height="500"/>
</g>
<g id="OBJECTS">
	<g>
		<g>
			<path style="fill:none;stroke:#BFC5EB;stroke-width:1.0265;stroke-miterlimit:10;stroke-dasharray:5.1325;" d="M677.59,221.834
				c18.775,33.146,30.368,93.455-9.604,116.731c-8.685,5.057-19.73,7.135-29.212,3.015c-7.798-3.388-13.745-11.471-13.237-19.958
				c0.48-8.022,6.551-15.012,13.955-18.138c35.164-14.844,68.182,27.464,59.211,59.73c-3.999,14.383-13.926,26.631-25.924,35.515
				c-37.331,27.642-92.138,33.461-136.418,23.24c-32.51-7.504-62.943-25.836-82.379-52.955
				c-27.209-37.963-30.005-93.633,1.426-130.161"/>
			<path style="fill:none;stroke:#BFC5EB;stroke-width:1.0265;stroke-miterlimit:10;stroke-dasharray:5.1325;" d="M426.614,79.094
				c-27.111-23.68-69.858-27.273-100.541-8.451c-5.861,3.596-11.47,8.131-14.418,14.343c-2.949,6.212-2.579,14.396,2.375,19.164
				c4.708,4.532,12.509,4.822,18.236,1.675c5.727-3.147,9.495-9.127,11.242-15.424c3.609-13.004-0.789-27.368-9.303-37.839
				c-8.514-10.471-20.683-17.434-33.362-22.058c-35.302-12.876-76.513-8.284-108.114,12.047
				c-31.602,20.33-52.864,55.93-55.781,93.393"/>
			<path style="fill:none;stroke:#BFC5EB;stroke-width:1.0265;stroke-miterlimit:10;stroke-dasharray:5.1325;" d="M98.867,188.164
				c-31.889,15.437-56.908,44.829-66.192,79.02s-2.383,72.592,18.936,100.889c21.319,28.297,56.779,45.603,92.178,44.128
				c35.398-1.475,69.622-22.033,86.805-53.016c17.184-30.983,16.332-71.385-2.857-101.168"/>
		</g>
		<g>
			<g>
				<path style="fill:#BFC5EB;" d="M255.731,258.796H56.211c-5.804,0-10.51-4.705-10.51-10.51V48.766
					c0-5.804,4.705-10.51,10.51-10.51h199.52c5.804,0,10.51,4.705,10.51,10.51v199.52
					C266.241,254.09,261.535,258.796,255.731,258.796z"/>
				<path style="fill:#A4ACE3;" d="M266.243,48.769c0-5.812-4.708-10.51-10.51-10.51H56.207c-5.787,0-10.484,4.675-10.507,10.466
					h-0.002v5.865h220.544v-5.821H266.243z"/>
				<path style="fill:none;stroke:#A4ACE3;stroke-miterlimit:10;" d="M255.731,258.796H56.211c-5.804,0-10.51-4.705-10.51-10.51
					V48.766c0-5.804,4.705-10.51,10.51-10.51h199.52c5.804,0,10.51,4.705,10.51,10.51v199.52
					C266.241,254.09,261.535,258.796,255.731,258.796z"/>
				<g>
					<path style="fill:#BFC5EB;" d="M256.453,46.361c0,1.572-1.275,2.847-2.847,2.847c-1.572,0-2.847-1.275-2.847-2.847
						c0-1.572,1.274-2.847,2.847-2.847C255.178,43.514,256.453,44.789,256.453,46.361z"/>
					<path style="fill:#BFC5EB;" d="M246.45,46.361c0,1.572-1.274,2.847-2.847,2.847c-1.572,0-2.847-1.275-2.847-2.847
						c0-1.572,1.275-2.847,2.847-2.847C245.176,43.514,246.45,44.789,246.45,46.361z"/>
					<path style="fill:#BFC5EB;" d="M236.447,46.361c0,1.572-1.275,2.847-2.847,2.847c-1.572,0-2.847-1.275-2.847-2.847
						c0-1.572,1.275-2.847,2.847-2.847C235.173,43.514,236.447,44.789,236.447,46.361z"/>
				</g>
			</g>
			<g>
				<g>
					<path style="fill:#D5D9F2;" d="M284.115,284.875H84.594c-5.804,0-10.51-4.705-10.51-10.51V74.845
						c0-5.804,4.705-10.51,10.51-10.51h199.52c5.804,0,10.51,4.705,10.51,10.51v199.52
						C294.624,280.17,289.919,284.875,284.115,284.875z"/>
					<path style="fill:#A4ACE3;" d="M294.624,74.805L294.624,74.805L294.624,74.805c-0.024-5.792-4.721-10.466-10.508-10.466H84.59
						c-5.787,0-10.484,4.675-10.507,10.466h-0.002v5.865h220.544v-5.821h0.002C294.626,74.834,294.624,74.82,294.624,74.805z"/>
					<path style="fill:none;stroke:#A4ACE3;stroke-miterlimit:10;" d="M284.115,284.875H84.594c-5.804,0-10.51-4.705-10.51-10.51
						V74.845c0-5.804,4.705-10.51,10.51-10.51h199.52c5.804,0,10.51,4.705,10.51,10.51v199.52
						C294.624,280.17,289.919,284.875,284.115,284.875z"/>
					<g>
						<path style="fill:#BFC5EB;" d="M284.836,72.44c0,1.572-1.275,2.847-2.847,2.847c-1.572,0-2.847-1.274-2.847-2.847
							c0-1.572,1.274-2.847,2.847-2.847C283.562,69.593,284.836,70.868,284.836,72.44z"/>
						<path style="fill:#BFC5EB;" d="M274.834,72.44c0,1.572-1.274,2.847-2.846,2.847c-1.572,0-2.847-1.274-2.847-2.847
							c0-1.572,1.275-2.847,2.847-2.847C273.559,69.593,274.834,70.868,274.834,72.44z"/>
						<path style="fill:#BFC5EB;" d="M264.831,72.44c0,1.572-1.275,2.847-2.847,2.847c-1.572,0-2.847-1.274-2.847-2.847
							c0-1.572,1.275-2.847,2.847-2.847C263.556,69.593,264.831,70.868,264.831,72.44z"/>
					</g>
				</g>
				<g>
					<g>
						<path style="fill:#BFC5EB;" d="M274.765,102.17H93.541c-2.418,0-4.378-1.96-4.378-4.378l0,0c0-2.418,1.96-4.378,4.378-4.378
							h181.224c2.418,0,4.378,1.96,4.378,4.378l0,0C279.143,100.21,277.183,102.17,274.765,102.17z"/>
						<path style="fill:#BFC5EB;" d="M274.765,120.418H93.541c-2.418,0-4.378-1.96-4.378-4.378l0,0c0-2.418,1.96-4.378,4.378-4.378
							h181.224c2.418,0,4.378,1.96,4.378,4.378l0,0C279.143,118.458,277.183,120.418,274.765,120.418z"/>
						<path style="fill:#BFC5EB;" d="M274.765,138.665H93.541c-2.418,0-4.378-1.96-4.378-4.378l0,0c0-2.418,1.96-4.378,4.378-4.378
							h181.224c2.418,0,4.378,1.96,4.378,4.378l0,0C279.143,136.705,277.183,138.665,274.765,138.665z"/>
						<path style="fill:#BFC5EB;" d="M274.765,156.913H93.541c-2.418,0-4.378-1.96-4.378-4.378v0c0-2.418,1.96-4.378,4.378-4.378
							h181.224c2.418,0,4.378,1.96,4.378,4.378v0C279.143,154.952,277.183,156.913,274.765,156.913z"/>
						<path style="fill:#BFC5EB;" d="M274.765,175.16H93.541c-2.418,0-4.378-1.96-4.378-4.378l0,0c0-2.418,1.96-4.378,4.378-4.378
							h181.224c2.418,0,4.378,1.96,4.378,4.378l0,0C279.143,173.2,277.183,175.16,274.765,175.16z"/>
					</g>
					<path style="fill:#BFC5EB;" d="M225.563,275.265H100.56c-5.523,0-10-4.477-10-10v-66.917c0-5.523,4.477-10,10-10h125.003
						c5.523,0,10,4.477,10,10v66.917C235.563,270.788,231.085,275.265,225.563,275.265z"/>
					<path style="fill:#BFC5EB;" d="M258.635,275.265h10.508c5.523,0,10-4.477,10-10v-66.917c0-5.523-4.477-10-10-10h-10.508
						c-5.523,0-10,4.477-10,10v66.917C248.635,270.788,253.112,275.265,258.635,275.265z"/>
				</g>
			</g>
		</g>
		<g>
			<g>
				<path style="fill:#D5D9F2;" d="M697.475,283.885H382.268c-7.638,0-13.829-6.192-13.829-13.829V52.089
					c0-7.638,6.192-13.829,13.829-13.829h315.207c7.638,0,13.829,6.192,13.829,13.829v217.967
					C711.304,277.694,705.113,283.885,697.475,283.885z"/>
				<g>
					<path style="fill:#A4ACE3;" d="M711.304,49.92L711.304,49.92c-0.037-6.45-7.339-11.657-16.336-11.657H384.772
						c-8.996,0-16.299,5.206-16.336,11.657h-0.003v6.532h342.872v-6.483h0.003C711.308,49.952,711.305,49.936,711.304,49.92z"/>
				</g>
				<path style="fill:none;stroke:#A4ACE3;stroke-miterlimit:10;" d="M697.475,283.885H382.268c-7.638,0-13.829-6.192-13.829-13.829
					V52.089c0-7.638,6.192-13.829,13.829-13.829h315.207c7.638,0,13.829,6.192,13.829,13.829v217.967
					C711.304,277.694,705.113,283.885,697.475,283.885z"/>
				<g>
					<path style="fill:#BFC5EB;" d="M688.96,47.286c0,1.572-1.274,2.847-2.847,2.847c-1.572,0-2.847-1.275-2.847-2.847
						c0-1.572,1.274-2.847,2.847-2.847C687.686,44.439,688.96,45.714,688.96,47.286z"/>
					<path style="fill:#BFC5EB;" d="M678.958,47.286c0,1.572-1.274,2.847-2.846,2.847c-1.572,0-2.847-1.275-2.847-2.847
						c0-1.572,1.275-2.847,2.847-2.847C677.683,44.439,678.958,45.714,678.958,47.286z"/>
					<path style="fill:#BFC5EB;" d="M668.955,47.286c0,1.572-1.274,2.847-2.847,2.847c-1.572,0-2.847-1.275-2.847-2.847
						c0-1.572,1.274-2.847,2.847-2.847C667.681,44.439,668.955,45.714,668.955,47.286z"/>
				</g>
				<line style="fill:none;stroke:#A4ACE3;stroke-miterlimit:10;" x1="368.433" y1="56.452" x2="711.304" y2="56.452"/>
			</g>
			<g>
				<g>
					<rect x="398.383" y="76.747" style="fill:#BFC5EB;" width="15.459" height="78.586"/>
					<rect x="421.693" y="96.789" style="fill:#BFC5EB;" width="15.459" height="58.543"/>
					<rect x="448.633" y="116.04" style="fill:#BFC5EB;" width="25.774" height="39.293"/>
					<rect x="496.577" y="95" style="fill:#BFC5EB;" width="13.371" height="60.333"/>
					<rect x="478.806" y="130.074" style="fill:#BFC5EB;" width="13.371" height="25.259"/>
					<line style="fill:none;stroke:#BFC5EB;stroke-miterlimit:10;" x1="385.246" y1="155.333" x2="519.684" y2="155.333"/>
				</g>
				<g>
					<polygon style="fill:#BFC5EB;" points="663.508,134.844 654.424,141.922 667.849,143.585 544.136,239.979 471.976,175.814 
						405.892,251.247 411.91,256.518 472.683,187.148 543.798,250.383 672.766,149.896 671.096,163.319 680.18,156.241 
						682.542,137.207 					"/>
					<polyline style="fill:none;stroke:#A4ACE3;stroke-miterlimit:10;" points="389.079,259.568 690.877,259.568 690.877,78.427 
											"/>
				</g>
				<g>
					<path style="fill:none;stroke:#BFC5EB;stroke-miterlimit:10;" d="M553.817,115.493c0,20.812,16.867,37.688,37.679,37.688
						c20.812,0,37.688-16.877,37.688-37.688c0-20.812-16.877-37.679-37.688-37.679v37.679H553.817z"/>
					<path style="fill:#BFC5EB;" d="M544.266,105.942h37.679V68.263C561.133,68.263,544.266,85.131,544.266,105.942z"/>
				</g>
			</g>
		</g>
		<g>
			<g>
				<rect x="71.747" y="318.872" style="fill:#BFC5EB;" width="325.395" height="9.436"/>
				<rect x="212.148" y="363.52" style="fill:#BFC5EB;" width="164.371" height="42.436"/>
				<rect x="81.923" y="328.308" style="fill:#BFC5EB;" width="130.225" height="141.692"/>
				<polygon style="fill:#A4ACE3;" points="81.923,328.308 212.148,328.308 212.148,341.09 81.923,333.319 				"/>
				<polygon style="fill:#A4ACE3;" points="212.148,364.38 212.148,405.956 222.246,405.956 				"/>
				<g>
					<line style="fill:none;stroke:#A4ACE3;stroke-miterlimit:10;" x1="81.923" y1="359.917" x2="212.148" y2="359.917"/>
					<line style="fill:none;stroke:#A4ACE3;stroke-miterlimit:10;" x1="81.923" y1="399.154" x2="212.148" y2="399.154"/>
					<line style="fill:none;stroke:#A4ACE3;stroke-miterlimit:10;" x1="81.923" y1="438.392" x2="212.148" y2="438.392"/>
				</g>
				
					<rect x="376.519" y="328.308" transform="matrix(-1 -1.224647e-16 1.224647e-16 -1 762.1052 798.3084)" style="fill:#A4ACE3;" width="9.067" height="141.692"/>
			</g>
			<g>
				<g>
					<g>
						<path style="fill:#BFC5EB;" d="M463.234,405.989c3.994-19.762-23.132-109.78-47.811-93.223
							C390.745,329.323,443.365,392.294,463.234,405.989z"/>
						<path style="fill:none;stroke:#A4ACE3;stroke-linecap:round;stroke-linejoin:round;stroke-miterlimit:10;" d="
							M467.615,425.197c-3.634-16.895-7.549-33.81-13.901-49.881c-6.352-16.071-15.266-31.369-27.773-43.295"/>
					</g>
					<g>
						<path style="fill:#BFC5EB;" d="M479.284,396.609c-12.668-34.042-39.632-130.104-11.669-131.328S502.15,372.32,479.284,396.609
							z"/>
						<path style="fill:none;stroke:#A4ACE3;stroke-linecap:round;stroke-linejoin:round;stroke-miterlimit:10;" d="
							M475.523,423.742c7.819-44.83,7.814-91.014-0.015-135.843"/>
					</g>
					<g>
						<path style="fill:#BFC5EB;" d="M486.691,404.788c2.767-35.898,29.078-86.478,47.841-75.057
							C553.296,341.152,506.917,389.664,486.691,404.788z"/>
						<path style="fill:none;stroke:#A4ACE3;stroke-linecap:round;stroke-linejoin:round;stroke-miterlimit:10;" d="
							M480.775,423.775c7.454-31.172,25.131-59.81,49.655-80.445"/>
					</g>
				</g>
				<g>
					<path style="fill:#BFC5EB;" d="M512.758,411.728h-71.997v35.272c0,12.703,10.298,23.001,23.001,23.001h25.995
						c12.703,0,23.001-10.298,23.001-23.001V411.728z"/>
					<polygon style="fill:#A4ACE3;" points="512.758,419.192 448.65,419.192 512.758,433.537 					"/>
				</g>
			</g>
			<g>
				<path style="fill:#BFC5EB;" d="M47.675,470h11.821c7.093-15.342-3.552-33.837-7.638-2.669
					C49.523,446.086,37.923,453.13,47.675,470z"/>
				<path style="fill:#BFC5EB;" d="M261.655,470h22.836c7.564-12.888-1.449-27.713-10.236-3.896
					c5.083-34.547-14.17-38.334-7.176,1.386C258.388,444.331,240.376,451.102,261.655,470z"/>
				<path style="fill:#BFC5EB;" d="M675.342,470h17.282c13.921-12.343,4.539-31.063-6.97-4.459
					C687.945,440.908,662.49,421.149,675.342,470z"/>
			</g>
		</g>
		
			<line style="fill:none;stroke:#A4ACE3;stroke-linecap:round;stroke-linejoin:round;stroke-miterlimit:10;" x1="720" y1="470" x2="30" y2="470"/>
		<g>
			<g>
				<ellipse style="fill:#6A61B2;" cx="372.615" cy="156.218" rx="29.156" ry="21.439"/>
				<polygon style="fill:#6A61B2;" points="350.128,167.987 338.443,177.168 358.061,173.206 				"/>
				<circle style="fill:#FFFFFF;" cx="373.03" cy="156.218" r="3"/>
				<circle style="fill:#FFFFFF;" cx="384.636" cy="156.218" r="3"/>
				<circle style="fill:#FFFFFF;" cx="361.425" cy="156.218" r="3"/>
			</g>
			<g>
				<ellipse style="fill:#6A61B2;" cx="232.146" cy="125.166" rx="29.156" ry="21.439"/>
				<polygon style="fill:#6A61B2;" points="209.659,136.936 197.974,146.117 217.592,142.154 				"/>
				<circle style="fill:#FFFFFF;" cx="232.561" cy="125.166" r="3"/>
				<circle style="fill:#FFFFFF;" cx="244.167" cy="125.166" r="3"/>
				<circle style="fill:#FFFFFF;" cx="220.956" cy="125.166" r="3"/>
			</g>
			<g>
				<ellipse style="fill:#6A61B2;" cx="523.116" cy="145.908" rx="29.156" ry="21.439"/>
				<polygon style="fill:#6A61B2;" points="545.603,157.677 557.289,166.858 537.67,162.896 				"/>
				<circle style="fill:#FFFFFF;" cx="522.701" cy="145.908" r="3"/>
				<circle style="fill:#FFFFFF;" cx="511.095" cy="145.908" r="3"/>
				<circle style="fill:#FFFFFF;" cx="534.306" cy="145.908" r="3"/>
			</g>
		</g>
	</g>
	<g>
		<g>
			<g>
				<g>
					<polygon style="fill:#E48A68;" points="573.135,441.94 571.002,460.801 560.089,460.801 558.775,442.707 					"/>
					<path style="fill:#FFFFFF;" d="M533.123,467.49h44.319c0.126-1.336-0.832-4.966-1.79-6.277
						c-0.05-1.966-0.462-6.696-3.382-6.696s-4.181,4.226-7.055,4.226s-3.277-4.84-6.454-4.84s-5.092,3.529-5.092,3.529
						l-14.153,4.038C536.535,462.32,534.151,464.565,533.123,467.49L533.123,467.49z"/>
					<path style="fill:#2C2F37;" d="M577.69,470h-44.814c-0.262,0-0.474-0.212-0.474-0.474v-1.562c0-0.262,0.212-0.474,0.474-0.474
						h44.814c0.262,0,0.474,0.212,0.474,0.474v1.562C578.164,469.788,577.952,470,577.69,470z"/>
				</g>
				<g>
					<polygon style="fill:#E48A68;" points="609.867,441.94 611.63,460.801 622.544,460.801 624.227,442.707 					"/>
					<path style="fill:#FFFFFF;" d="M649.51,467.49H605.19c-0.126-1.336,0.832-4.966,1.79-6.277c0.05-1.966,0.462-6.696,3.382-6.696
						c2.92,0,4.181,4.226,7.055,4.226s3.277-4.84,6.454-4.84s5.092,3.529,5.092,3.529l14.153,4.038
						C646.098,462.32,648.481,464.565,649.51,467.49L649.51,467.49z"/>
					<path style="fill:#2C2F37;" d="M604.943,470h44.814c0.262,0,0.474-0.212,0.474-0.474v-1.562c0-0.262-0.212-0.474-0.474-0.474
						h-44.814c-0.262,0-0.474,0.212-0.474,0.474v1.562C604.469,469.788,604.681,470,604.943,470z"/>
				</g>
			</g>
			<g>
				<g>
					<g>
						<path style="fill:#2C2F37;" d="M566.151,272.905c-2.751,10.088-10.89,79.047-12.954,89.594
							c-2.063,10.546,0.826,67.455-0.091,80.065h22.239c2.751-8.254,4.181-62.02,6.015-78.298
							c6.878-17.195,11.201-40.139,15.054-55.136v-34.849L566.151,272.905z"/>
					</g>
					<rect x="551.71" y="438.937" style="fill:#5B5D63;" width="25.186" height="6.005"/>
					<path style="fill:#2C2F37;" d="M626.276,272.905c1.945,18.025,3.271,77.464,3.365,90.216s-1.875,70.966-2.296,78.819h-21.17
						c-1.729-13.761-4.836-69.309-4.795-76.874c-4.122-11.532-12.695-39.303-13.577-46.254v-42.579L626.276,272.905z"/>
					<rect x="604.454" y="438.937" style="fill:#5B5D63;" width="25.186" height="6.005"/>
				</g>
				<g>
					
						<path style="fill:none;stroke:#5B5D63;stroke-width:0.75;stroke-linecap:round;stroke-linejoin:round;stroke-miterlimit:10;" d="
						M591.248,332.929c-1.779-6.277-3.123-11.582-3.445-14.117v-42.579"/>
					
						<path style="fill:none;stroke:#5B5D63;stroke-width:0.75;stroke-linecap:round;stroke-linejoin:round;stroke-miterlimit:10;" d="
						M580.375,275.265v17.089c0,6.027,4.886,10.913,10.913,10.913h3.814"/>
					
						<path style="fill:none;stroke:#5B5D63;stroke-width:0.75;stroke-linecap:round;stroke-linejoin:round;stroke-miterlimit:10;" d="
						M614.531,275.562c-0.174,9.518,3.951,19.033,11.017,25.411"/>
					
						<path style="fill:none;stroke:#5B5D63;stroke-width:0.75;stroke-linecap:round;stroke-linejoin:round;stroke-miterlimit:10;" d="
						M573.05,275.086c-0.386,7.405-3.989,14.587-9.694,19.324"/>
					
						<path style="fill:none;stroke:#5B5D63;stroke-width:0.75;stroke-linecap:round;stroke-linejoin:round;stroke-miterlimit:10;" d="
						M629.44,363.756c-3.828,0.711-7.754,0.896-11.632,0.547"/>
					
						<path style="fill:none;stroke:#5B5D63;stroke-width:0.75;stroke-linecap:round;stroke-linejoin:round;stroke-miterlimit:10;" d="
						M553.286,363.938c3.065,0.452,6.189,0.514,9.269,0.182"/>
					
						<path style="fill:none;stroke:#5B5D63;stroke-width:0.75;stroke-linecap:round;stroke-linejoin:round;stroke-miterlimit:10;" d="
						M588.517,331.398c-2.936,11.66-6.738,23.102-11.366,34.2c0.671,19.969-1.186,47.299-3.691,71.223"/>
					
						<path style="fill:none;stroke:#5B5D63;stroke-width:0.75;stroke-linecap:round;stroke-linejoin:round;stroke-miterlimit:10;" d="
						M593.044,329.551c3.239,12.088,7.116,24.005,11.61,35.685c0.525,20.875,2.528,48.115,4.227,72.338"/>
				</g>
			</g>
		</g>
		<g>
			<g>
				<g>
					<path style="fill:#E48A68;" d="M493.684,207.7l-5.22,8.993c-3.416-0.893-11.893-4.126-11.893-4.126l5.904-12.735
						C485.664,200.599,491.368,205.067,493.684,207.7z"/>
					<path style="fill:#E48A68;" d="M482.475,199.833c-2.344-0.639-14.676-2.476-15.159-0.807
						c-0.483,1.669,11.468,4.596,13.276,4.918L482.475,199.833z"/>
					<g>
						<path style="fill:#E48A68;" d="M477.356,202.766c-1.412-0.346-2.816,2.005-1.684,3.27c-1.808,0.534-1.757,2.27-0.797,3.285
							c-1.563,0.5-1.15,2.424,0.036,3.084c1.186,0.66,5.964,1.538,6.953,1.665c0.989,0.126,1.765-1.574,0.671-2.197
							c1.063-0.058,2.237-1.764,1.075-2.339c1.659-0.164,1.799-1.964,0.613-2.624C483.037,206.25,478.858,203.134,477.356,202.766z"
							/>
						<g>
							
								<path style="fill:none;stroke:#BF603B;stroke-width:0.75;stroke-linecap:round;stroke-linejoin:round;stroke-miterlimit:10;" d="
								M474.911,212.404c1.186,0.66,5.964,1.538,6.953,1.665c0.989,0.126,1.765-1.574,0.671-2.197
								c1.063-0.058,2.237-1.764,1.075-2.339c1.659-0.164,1.799-1.964,0.613-2.624c-1.186-0.66-5.365-3.776-6.867-4.144"/>
							
								<line style="fill:none;stroke:#BF603B;stroke-width:0.75;stroke-linecap:round;stroke-linejoin:round;stroke-miterlimit:10;" x1="482.535" y1="211.873" x2="474.876" y2="209.321"/>
							
								<line style="fill:none;stroke:#BF603B;stroke-width:0.75;stroke-linecap:round;stroke-linejoin:round;stroke-miterlimit:10;" x1="483.61" y1="209.534" x2="475.672" y2="206.036"/>
						</g>
					</g>
					<g>
						<path style="fill:#E48A68;" d="M493.684,207.7c-0.693-1.236-5.956-7.33-7.588-7.281c-1.631,0.049-9.25,2.692-9.182,4.01
							c0.069,1.319,5.086,1.253,6.168,0.547c0.612,2.113,4.454,5.696,6.937,5.228L493.684,207.7z"/>
						
							<path style="fill:none;stroke:#BF603B;stroke-width:0.75;stroke-linecap:round;stroke-linejoin:round;stroke-miterlimit:10;" d="
							M485.002,200.604c-2.653,0.629-8.146,2.706-8.088,3.826c0.069,1.319,5.086,1.253,6.168,0.547
							c0.612,2.113,4.454,5.696,6.937,5.228"/>
					</g>
				</g>
				<g>
					<path style="fill:#D82F3C;" d="M564.356,186.244c-6.823,2.642-33.035,19.985-35.988,22.749
						c-5.046-1.32-36.342-4.998-36.342-4.998l-4.27,15.078c5.046,2.35,38.519,10.79,44.057,10.518
						c5.538-0.272,37.904-12.772,40.242-15.711l4.553-18.459L564.356,186.244z"/>
					
						<path style="fill:none;stroke:#A30D18;stroke-width:0.75;stroke-linecap:round;stroke-linejoin:round;stroke-miterlimit:10;" d="
						M530.197,214.968c-1.07-1.767-1.638-3.835-1.619-5.9c-0.851,1.116-1.432,2.377-1.678,3.759"/>
				</g>
			</g>
			<g>
				<path style="fill:#FFFFFF;" d="M570.397,198.241c-5.871-1.276-8.594-10.295-6.041-11.997c2.553-1.702,20.421-6.467,23.909-6.879
					h17.935c2.997,0.327,22.329,4.156,23.946,6.709c1.617,2.553,4.747,14.634-2.06,16.421c-1.472,6.29,3.164,64.367-0.862,70.468
					c-4.026,6.1-59.785,5.124-62.591,0.854C561.826,269.547,566.889,207.706,570.397,198.241z"/>
			</g>
			<g>
				<path style="fill:#D82F3C;" d="M632.288,292.605c-6.23,2.7-30.4,3.66-37.81,3.28c-0.33-5.31-0.32-11.64-0.04-18.62
					c1.26-31,7.84-74.67,13.01-97.72c5.22,0.86,21.23,4.22,22.7,6.53c1.61,2.55,4.74,14.63-2.06,16.42
					C629.028,212.055,633.508,281.615,632.288,292.605z"/>
				<g>
					<path style="fill:#D82F3C;" d="M577.118,276.545c0.18,6.88,0.58,13.43,1.25,19.42c-6.17,0.11-18.51-1.63-20.82-2.59
						c0.58-17.54,7.77-86.55,12.85-95.13c-5.87-1.28-8.6-10.3-6.04-12c2.2-1.46,15.76-5.21,21.71-6.48
						C580.718,201.135,576.228,242.785,577.118,276.545z"/>
					<g>
						
							<path style="fill:none;stroke:#A30D18;stroke-width:0.75;stroke-linecap:round;stroke-linejoin:round;stroke-miterlimit:10;" d="
							M565.377,219.987c1.705-10.783,3.462-19.109,5.022-21.742"/>
						
							<path style="fill:none;stroke:#A30D18;stroke-width:0.75;stroke-linecap:round;stroke-linejoin:round;stroke-miterlimit:10;" d="
							M567.322,208.658c-1.098-2.918-1.651-6.04-1.624-9.157"/>
					</g>
				</g>
			</g>
			<g>
				<g>
					<path style="fill:#E48A68;" d="M576.925,239.591l1.173,10.768c-7.442,1.609-23.049,2.087-24.553,1.837
						c-1.503-0.251-1.276-1.682,0.009-1.859c1.286-0.177,8.383-1.158,8.383-1.158s-9.558-0.397-10.885-0.558
						c-1.327-0.161-2.053-1.586-0.077-1.934c1.975-0.349,10.441-0.552,10.441-0.552s-10.856-0.612-11.811-0.843
						c-0.955-0.231-1.538-1.609,0.224-1.908c1.761-0.3,11.696-0.497,11.696-0.497s-9.183-1.143-10.185-1.35
						c-1.003-0.207-1.394-1.562,0.654-1.769C554.043,239.56,573.49,239.159,576.925,239.591z"/>
					<path style="fill:#E48A68;" d="M576.925,239.591c-1.73-1.72-7.146-5.54-8.746-5.98c-1.6-0.441-8.107-0.533-8.241,0.731
						c-0.133,1.264,2.903,2.409,5.212,2.129c0.564,1.928,1.99,4.608,4.145,5.903C571.45,243.667,576.925,239.591,576.925,239.591z"
						/>
					
						<path style="fill:none;stroke:#BF603B;stroke-width:0.75;stroke-linecap:round;stroke-linejoin:round;stroke-miterlimit:10;" d="
						M561.927,240.887c-0.891,3.264-0.712,7.295,0.721,10.107"/>
				</g>
				<g>
					<path style="fill:#D82F3C;" d="M630.145,186.074c6.853,5.695,11.018,56.512,2.567,63.391c-8.451,6.879-56.92,4.071-56.92,4.071
						l-1.786-17.871c6.457-1.361,34.112-4.028,39.446-3.467c-0.702-8.002,0-32.708,4.071-38.183
						C621.594,188.541,630.145,186.074,630.145,186.074z"/>
					<g>
						
							<path style="fill:none;stroke:#A30D18;stroke-width:0.75;stroke-linecap:round;stroke-linejoin:round;stroke-miterlimit:10;" d="
							M631.181,250.413c-11.581,5.66-55.389,3.123-55.389,3.123"/>
						
							<path style="fill:none;stroke:#A30D18;stroke-width:0.75;stroke-linecap:round;stroke-linejoin:round;stroke-miterlimit:10;" d="
							M574.006,235.665c6.457-1.361,34.112-4.028,39.446-3.467c-0.627-7.148-0.134-27.628,2.881-35.818"/>
						
							<path style="fill:none;stroke:#A30D18;stroke-width:0.75;stroke-linecap:round;stroke-linejoin:round;stroke-miterlimit:10;" d="
							M617.885,239.165c-0.752-2.734-2.378-5.219-4.581-7.004c1.93-0.19,3.881,0.136,5.665,0.898"/>
					</g>
				</g>
			</g>
		</g>
		<g>
			<g>
				<path style="fill:#E48A68;" d="M587.854,171.141c2.539,0.016,4.996-0.599,7.165-1.765c2.163-1.155,4.037-2.806,5.443-4.882
					l2.266-3.345v-20.077c0-4.19-3.443-7.562-7.628-7.47l-6.876,0.158c-4.065,0.087-5.781,3.699-7.301,7.464
					c-1.842,4.544-0.36,7.421-0.512,12.302c-0.016,0.561-0.055,1.144-0.12,1.749c-0.027,0.24-0.06,0.485-0.093,0.736
					c-0.016,0.12-0.038,0.245-0.055,0.37c-0.033,0.223-0.076,0.452-0.12,0.686c-0.038,0.218-0.076,0.425-0.104,0.632
					c-0.016,0.087-0.033,0.169-0.044,0.256c-0.071,0.496-0.131,0.97-0.169,1.433c-0.044,0.441-0.065,0.877-0.076,1.291
					C579.403,168.717,584.476,171.125,587.854,171.141z"/>
				<g>
					<path style="fill:#E48A68;" d="M588.264,179.365c0,0,2.392,4.359,8.774,4.359c6.102,0,9.161-4.359,9.161-4.359l-3.468-18.218
						l-13.102,8.359l-0.255,1.562l-0.482,3.262L588.264,179.365z"/>
					<path style="fill:#2C2F37;" d="M588.892,174.33c2.476-0.521,4.803-1.672,6.759-3.313c1.924-1.609,3.454-3.691,4.416-5.993
						c-1.341,1.83-3.076,3.297-5.047,4.353c-1.735,0.931-3.643,1.514-5.646,1.688L588.892,174.33z"/>
				</g>
				<g>
					<path style="fill:#E48A68;" d="M599.605,157.07c0,2.761,2.238,4.999,4.999,4.999c2.761,0,5-2.238,5-4.999
						c0-2.761-2.238-4.999-5-4.999C601.844,152.07,599.605,154.309,599.605,157.07z"/>
					<g>
						
							<path style="fill:none;stroke:#BF603B;stroke-width:0.75;stroke-linecap:round;stroke-linejoin:round;stroke-miterlimit:10;" d="
							M601.743,159.743c0.087-1.364,0.776-2.68,1.848-3.527c1.073-0.848,2.511-1.215,3.859-0.984"/>
						
							<path style="fill:none;stroke:#BF603B;stroke-width:0.75;stroke-linecap:round;stroke-linejoin:round;stroke-miterlimit:10;" d="
							M603.591,156.215c1.504,0.247,2.737,1.359,3.175,2.819"/>
					</g>
				</g>
				<g>
					
						<path style="fill:none;stroke:#2C2F37;stroke-width:0.75;stroke-linecap:round;stroke-linejoin:round;stroke-miterlimit:10;" d="
						M588.906,150.242c0.019,0.745,0.038,1.495-0.093,2.228c-0.131,0.733-0.424,1.457-0.951,1.984
						c-0.228,0.228-0.503,0.427-0.633,0.722c-0.188,0.424-0.01,0.939,0.31,1.275c0.319,0.337,0.754,0.534,1.177,0.724"/>
					<g>
						<g>
							<path style="fill:#EBB044;" d="M586.6,146.572c0.028,0.277-0.032,0.563-0.17,0.805c-0.137,0.242-0.346,0.433-0.598,0.552
								c-0.538-0.357-1.1-0.725-1.741-0.809c-0.586-0.078-1.185,0.094-1.702,0.38c-0.517,0.286-1,0.676-1.433,1.078
								c-0.165-0.011-0.309-0.161-0.314-0.326c0.497-1.009,1.485-1.871,2.61-2.196C584.377,145.732,585.605,145.954,586.6,146.572z"
								/>
							
								<path style="fill:none;stroke:#2C2F37;stroke-width:0.75;stroke-linecap:round;stroke-linejoin:round;stroke-miterlimit:10;" d="
								M586.073,152.06c-0.341-0.841-1.073-1.371-2.164-1.371c-1.112,0-1.906,0.624-2.288,1.366"/>
							<path style="fill:#2C2F37;" d="M584.809,151.999c0,0.723-0.429,1.309-0.957,1.309c-0.529,0-0.957-0.586-0.957-1.309
								c0-0.723,0.428-1.309,0.957-1.309C584.38,150.689,584.809,151.276,584.809,151.999z"/>
						</g>
						<g>
							<path style="fill:#EBB044;" d="M591.081,146.572c-0.028,0.277,0.033,0.563,0.17,0.805c0.137,0.242,0.346,0.433,0.598,0.552
								c0.538-0.357,1.1-0.725,1.741-0.809c0.586-0.078,1.185,0.094,1.702,0.38c0.518,0.286,1,0.676,1.433,1.078
								c0.165-0.011,0.309-0.161,0.314-0.326c-0.497-1.009-1.485-1.871-2.609-2.196
								C593.304,145.732,592.076,145.954,591.081,146.572z"/>
							
								<path style="fill:none;stroke:#2C2F37;stroke-width:0.75;stroke-linecap:round;stroke-linejoin:round;stroke-miterlimit:10;" d="
								M591.608,152.06c0.341-0.841,1.073-1.371,2.164-1.371c1.112,0,1.906,0.624,2.288,1.366"/>
							<path style="fill:#2C2F37;" d="M594.786,151.999c0,0.723-0.428,1.309-0.957,1.309c-0.529,0-0.957-0.586-0.957-1.309
								c0-0.723,0.429-1.309,0.957-1.309C594.358,150.689,594.786,151.276,594.786,151.999z"/>
						</g>
					</g>
					<g>
						<g>
							<path style="fill:#BF513B;" d="M592.836,157.07c0,0.472,1.152,0.854,2.572,0.854c1.421,0,2.572-0.383,2.572-0.854
								c0-0.472-1.152-0.854-2.572-0.854C593.988,156.215,592.836,156.598,592.836,157.07z"/>
						</g>
						<g>
							<path style="fill:#BF513B;" d="M579.921,157.7c0.458,0.142,1.063,0.223,1.727,0.223c1.422,0,2.572-0.381,2.572-0.855
								c0-0.469-1.15-0.85-2.572-0.85c-0.561,0-1.079,0.06-1.504,0.163c-0.033,0.223-0.076,0.452-0.12,0.686
								C579.986,157.286,579.948,157.493,579.921,157.7z"/>
						</g>
					</g>
					<path style="fill:#FFFFFF;" d="M583.356,160.677c3.214-0.529,6.524-0.475,9.719,0.16
						C593.075,166.221,583.834,167.52,583.356,160.677z"/>
				</g>
			</g>
			<path style="fill:#EBB044;" d="M613.108,149.655c-1.04,1.86-2.7,3.35-4.65,4.22c-0.92-1.1-2.3-1.8-3.85-1.8
				c-2.1,0-3.91,1.3-4.64,3.13c-1.02-0.79-1.7-2.03-1.78-3.33c-0.1-1.41,0.51-2.86,1.59-3.78c-1.22-0.56-2.21-1.68-2.71-2.93
				c-0.51-1.24-0.52-2.68-0.04-3.93c-0.89,1.54-2.77,2.47-4.55,2.41c-1.78-0.05-3.49-1.15-4.29-2.74c-0.24,1.39-1.44,2.65-2.79,3.08
				c-1.35,0.43-2.93,0.05-3.93-0.95c-0.91,1.14-2.02,2.17-3.42,2.56c-1.4,0.39-3.04,0.09-4-1c-0.86-0.96-1.05-2.42-0.59-3.62
				c0.46-1.2,1.51-2.12,2.72-2.56c-1.37-0.84-2.2-2.52-2.04-4.11c0.17-1.6,1.31-3.05,2.82-3.59c1.51-0.54,3.32-0.13,4.45,1
				c-0.98-1.44-0.85-3.56,0.24-4.91c1.1-1.35,3.03-1.92,4.72-1.48c1.68,0.45,3.06,1.84,3.58,3.5c0.15-1.32,0.57-2.57,1.47-3.55
				c0.89-0.97,2.18-1.6,3.5-1.58c1.42,0.01,2.76,0.76,3.72,1.8c0.96,1.04,1.57,2.36,2.01,3.7c0.85-1.38,2.67-1.91,4.22-1.45
				c1.55,0.47,2.74,1.84,3.2,3.4c0.46,1.55,0.25,3.25-0.36,4.76c1.25-0.83,3.05-0.56,4.27,0.34c1.21,0.89,1.83,2.49,1.63,3.98
				c-0.21,1.5-1.18,2.84-2.49,3.59c1.24-0.13,2.47,1.06,2.75,2.28C614.138,147.305,613.728,148.575,613.108,149.655z"/>
		</g>
	</g>
	<g>
		<g>
			<g>
				<g>
					<g>
						<path style="fill:#2C2F37;" d="M305.944,445.968h14.32c2.604,4.707,18.225,18.225,21.53,20.128s2.303,3.904,2.303,3.904
							h-20.428c-3.505-1.801-12.217-6.908-13.719-8.31l-3.104,8.31h-5.608c0,0,1.342-22.338,2.203-24.032
							C304.155,444.564,305.688,445.201,305.944,445.968z"/>
						<path style="fill:#E48A68;" d="M335.934,461.59c-9.04,2.35-26.59-9.02-29.99-15.62h14.32
							C322.054,449.21,330.064,456.66,335.934,461.59z"/>
					</g>
					<g>
						<path style="fill:#E48A68;" d="M320.264,445.97h-14.32c1.796-18.777,3.491-70.357,14.32-77.059
							c-6.534-7.039-17.195-23.759-17.195-23.759l32.865-4.061c2.064,5.483,7.344,20.304,7.344,24.063
							C343.278,368.911,323.243,430.224,320.264,445.97z"/>
						
							<path style="fill:none;stroke:#BF603B;stroke-width:0.75;stroke-linecap:round;stroke-linejoin:round;stroke-miterlimit:10;" d="
							M343.323,365.42c-3.477-0.174-6.998,0.608-10.074,2.238"/>
					</g>
				</g>
				<g>
					<g>
						<path style="fill:#2C2F37;" d="M376.995,445.968h14.32c2.604,4.707,18.225,18.225,21.53,20.128
							c3.305,1.903,2.303,3.904,2.303,3.904H394.72c-3.505-1.801-12.217-6.908-13.719-8.31l-3.104,8.31h-5.608
							c0,0,1.342-22.338,2.203-24.032C375.206,444.564,376.738,445.201,376.995,445.968z"/>
						<path style="fill:#E48A68;" d="M406.985,461.59c-9.04,2.35-26.59-9.02-29.99-15.62h14.32
							C393.105,449.21,401.115,456.66,406.985,461.59z"/>
					</g>
					<g>
						<path style="fill:#E48A68;" d="M391.315,445.97c-1.642-17.558-7.937-75.981-10.374-82.917
							c-2.437-6.935-14.621-25.415-14.621-25.415l-26.603,9.544c4.671,8.123,17.667,20.104,20.917,24.369
							c-4.061,10.357,12.936,57.143,16.361,74.419"/>
						
							<path style="fill:none;stroke:#BF603B;stroke-width:0.75;stroke-linecap:round;stroke-linejoin:round;stroke-miterlimit:10;" d="
							M380.674,362.566c-2.973,0.257-5.912,0.9-8.72,1.909"/>
					</g>
				</g>
			</g>
			<g>
				<path style="fill:#2C2F37;" d="M285.7,276.203c-5.109,9.275-10.603,30.338,0.777,42.669h10.901
					c-4.317,11.372-4.477,37.593-3.198,46.066c14.869,2.238,73.385-13.59,82.339-21.424c-6.715-13.59-37.419-59.959-46.289-67.312
					H285.7z"/>
				<g>
					
						<path style="fill:none;stroke:#5B5D63;stroke-width:0.75;stroke-linecap:round;stroke-linejoin:round;stroke-miterlimit:10;" d="
						M288.518,279.403c-4.87,11.181-4.774,24.42,0.256,35.53c4.05-0.15,8.18,0.15,12.189,0.742
						c-0.231,0.596-0.165,1.728-0.396,2.325c0.643,0.275,1.134,0.959,1.777,1.234c-0.919,0.643-2.109,1.566-3.027,2.209
						c-2.669,13.251-3.104,27.222-1.493,40.643"/>
					
						<path style="fill:none;stroke:#5B5D63;stroke-width:0.75;stroke-linecap:round;stroke-linejoin:round;stroke-miterlimit:10;" d="
						M319.703,281.36c10.177,17.243,21.785,44.666,26.428,71.799"/>
					
						<path style="fill:none;stroke:#5B5D63;stroke-width:0.75;stroke-linecap:round;stroke-linejoin:round;stroke-miterlimit:10;" d="
						M332.556,281.881c-14.977,6.055-32.227,6.27-47.35,0.592"/>
					
						<path style="fill:none;stroke:#5B5D63;stroke-width:0.75;stroke-linecap:round;stroke-linejoin:round;stroke-miterlimit:10;" d="
						M298.229,282.736c-0.843,3.553-2.842,6.823-5.621,9.192c-2.779,2.369-6.324,3.826-9.966,4.095"/>
					
						<path style="fill:none;stroke:#5B5D63;stroke-width:0.75;stroke-linecap:round;stroke-linejoin:round;stroke-miterlimit:10;" d="
						M295.844,359.917c12.771-1.839,25.563-3.682,38.111-6.683c12.548-3.001,24.89-7.188,36.151-13.487"/>
				</g>
			</g>
		</g>
		<g>
			<path style="fill:#7D3119;" d="M278.799,202.793c-1.59-11.534,1.555-23.674,8.608-32.938c-3.357-1.01-6.139-3.792-7.088-7.167
				c-0.949-3.375-0.006-7.23,2.438-9.743c2.444-2.513,6.31-3.561,9.672-2.568c3.362,0.993,6.052,4.01,6.596,7.473
				c7.906,1.96,15.753,5.004,22.942,8.835c2.277,10.263,3.506,20.656,3.517,31.169c-3.833,3.831-9.704,4.894-15.112,4.548
				c-5.408-0.345-10.661-1.921-16.033-2.63C288.965,199.065,283.323,199.81,278.799,202.793z"/>
			<g>
				<path style="fill:#E48A68;" d="M313.134,195.104c-2.539,0.016-4.996-0.599-7.165-1.765c-2.163-1.155-4.037-2.806-5.443-4.882
					l-2.266-3.345v-20.077c0-4.19,3.443-7.562,7.628-7.47l6.876,0.158c4.064,0.087,5.781,3.699,7.301,7.464
					c1.842,4.544,0.36,7.421,0.512,12.302c0.016,0.561,0.055,1.144,0.12,1.749c0.027,0.24,0.06,0.485,0.093,0.736
					c0.016,0.12,0.038,0.245,0.055,0.37c0.033,0.223,0.076,0.452,0.12,0.686c0.038,0.218,0.076,0.425,0.104,0.632
					c0.016,0.087,0.033,0.169,0.044,0.256c0.071,0.496,0.131,0.97,0.169,1.433c0.044,0.441,0.065,0.877,0.076,1.291
					C321.585,192.679,316.512,195.087,313.134,195.104z"/>
				<g>
					<path style="fill:#E48A68;" d="M312.724,203.328c0,0,1.809,12.57-4.572,12.57c-10.755,0-13.362-12.57-13.362-12.57
						l3.468-18.218l13.102,8.359l0.255,1.562l0.482,3.262L312.724,203.328z"/>
					<path style="fill:#2C2F37;" d="M312.096,198.293c-2.476-0.521-4.803-1.672-6.759-3.313c-1.924-1.609-3.454-3.69-4.416-5.993
						c1.341,1.83,3.076,3.296,5.047,4.353c1.735,0.931,3.643,1.514,5.646,1.688L312.096,198.293z"/>
				</g>
				<g>
					<path style="fill:#E48A68;" d="M301.383,181.032c0,2.761-2.238,4.999-4.999,4.999c-2.761,0-5-2.238-5-4.999
						c0-2.761,2.238-4.999,5-4.999C299.144,176.033,301.383,178.271,301.383,181.032z"/>
					<g>
						
							<path style="fill:none;stroke:#BF603B;stroke-width:0.75;stroke-linecap:round;stroke-linejoin:round;stroke-miterlimit:10;" d="
							M299.245,183.705c-0.087-1.364-0.776-2.68-1.848-3.527c-1.072-0.848-2.511-1.215-3.859-0.984"/>
						
							<path style="fill:none;stroke:#BF603B;stroke-width:0.75;stroke-linecap:round;stroke-linejoin:round;stroke-miterlimit:10;" d="
							M297.396,180.178c-1.504,0.247-2.737,1.359-3.175,2.819"/>
					</g>
				</g>
				<g>
					
						<path style="fill:none;stroke:#2C2F37;stroke-width:0.75;stroke-linecap:round;stroke-linejoin:round;stroke-miterlimit:10;" d="
						M312.082,174.205c-0.019,0.745-0.038,1.495,0.093,2.228c0.131,0.733,0.424,1.457,0.951,1.984
						c0.228,0.228,0.503,0.427,0.634,0.722c0.188,0.424,0.01,0.939-0.31,1.275c-0.319,0.337-0.754,0.534-1.177,0.724"/>
					<g>
						<g>
							<path style="fill:#7D3119;" d="M314.388,170.535c-0.028,0.277,0.033,0.563,0.17,0.805c0.137,0.242,0.346,0.433,0.598,0.552
								c0.538-0.357,1.1-0.725,1.741-0.809c0.586-0.078,1.185,0.094,1.702,0.38c0.517,0.286,1,0.676,1.433,1.078
								c0.165-0.011,0.309-0.161,0.314-0.326c-0.497-1.009-1.485-1.871-2.61-2.196C316.611,169.695,315.383,169.917,314.388,170.535
								z"/>
							
								<path style="fill:none;stroke:#2C2F37;stroke-width:0.75;stroke-linecap:round;stroke-linejoin:round;stroke-miterlimit:10;" d="
								M314.915,176.023c0.341-0.841,1.073-1.371,2.164-1.371c1.112,0,1.906,0.624,2.288,1.366"/>
						</g>
						<g>
							<path style="fill:#7D3119;" d="M309.907,170.535c0.028,0.277-0.033,0.563-0.17,0.805c-0.137,0.242-0.346,0.433-0.598,0.552
								c-0.538-0.357-1.1-0.725-1.741-0.809c-0.586-0.078-1.185,0.094-1.702,0.38c-0.518,0.286-1,0.676-1.433,1.078
								c-0.165-0.011-0.309-0.161-0.313-0.326c0.497-1.009,1.485-1.871,2.609-2.196
								C307.684,169.695,308.912,169.917,309.907,170.535z"/>
							
								<path style="fill:none;stroke:#2C2F37;stroke-width:0.75;stroke-linecap:round;stroke-linejoin:round;stroke-miterlimit:10;" d="
								M309.38,176.023c-0.341-0.841-1.073-1.371-2.164-1.371c-1.112,0-1.906,0.624-2.288,1.366"/>
						</g>
					</g>
					<g>
						<g>
							<path style="fill:#BF513B;" d="M308.151,181.032c0,0.472-1.152,0.854-2.572,0.854c-1.421,0-2.572-0.383-2.572-0.854
								c0-0.472,1.152-0.854,2.572-0.854C307,180.178,308.151,180.561,308.151,181.032z"/>
						</g>
						<g>
							<path style="fill:#BF513B;" d="M321.067,181.662c-0.458,0.142-1.063,0.223-1.727,0.223c-1.422,0-2.572-0.381-2.572-0.855
								c0-0.469,1.15-0.85,2.572-0.85c0.561,0,1.079,0.06,1.504,0.163c0.033,0.223,0.076,0.452,0.12,0.686
								C321.002,181.248,321.04,181.455,321.067,181.662z"/>
						</g>
					</g>
				</g>
				<path style="fill:#FFFFFF;" d="M308.93,184.952c2.594-0.939,5.47-1.081,8.144-0.4c-0.606,1.537-2.342,2.53-3.994,2.558
					C311.427,187.137,310.1,186.118,308.93,184.952z"/>
			</g>
			<path style="fill:#7D3119;" d="M299.58,179.813c2.865-3.668,3.776-8.777,2.356-13.209c6.615,1.908,13.611,2.352,20.383,1.191
				c1.433-0.246,2.631-1.249,3.093-2.628c0.942-2.811,1.137-5.943,0.513-8.794c-0.354-1.617-0.967-3.174-1.797-4.606
				c-1.797-3.099-5.535-4.457-8.955-3.391c-6.506,2.028-12.601,5.561-17.637,10.109c-5.134,4.636-3.375,13.475-2.368,20.318
				C296.566,179.246,298.115,179.795,299.58,179.813z"/>
		</g>
		<g>
			<g>
				<g>
					<g>
						<path style="fill:#E48A68;" d="M387.163,236.513l3.693,8.742c6.382-1.942,18.532-8.231,19.576-9.064
							c1.044-0.833,0.259-1.832-0.8-1.419c-1.059,0.413-6.91,2.689-6.91,2.689s7.146-4.38,8.093-5.069
							c0.947-0.689,0.895-2.089-0.766-1.514c-1.661,0.575-8.228,4.03-8.228,4.03s8.048-5.098,8.681-5.682
							c0.633-0.584,0.491-1.887-0.985-1.365c-1.476,0.522-9.164,4.607-9.164,4.607s6.541-4.791,7.22-5.377
							c0.679-0.586,0.401-1.79-1.254-1.075S389.607,234.718,387.163,236.513z"/>
						<path style="fill:#E48A68;" d="M387.163,236.513c0.591-2.055,3.107-7.287,4.144-8.307c1.037-1.02,5.978-3.865,6.619-2.955
							c0.641,0.911-1.195,3.081-3.082,3.852c0.39,1.716,0.442,4.376-0.656,6.285C393.091,237.298,387.163,236.513,387.163,236.513z"
							/>
						
							<path style="fill:none;stroke:#BF603B;stroke-width:0.75;stroke-linecap:round;stroke-linejoin:round;stroke-miterlimit:10;" d="
							M399.195,231.109c2.074,2.118,3.656,5.28,3.758,8.043"/>
						
							<path style="fill:none;stroke:#BF603B;stroke-width:0.75;stroke-linecap:round;stroke-linejoin:round;stroke-miterlimit:10;" d="
							M395.122,231.829c-0.341,2.544-1.439,4.983-3.118,6.925c1.858-0.322,3.813,0.16,5.335,1.273"/>
					</g>
					<path style="fill:#E48A68;" d="M387.163,236.513l3.693,8.742c-6.273,3.766-34.458,22.341-43.169,21.963
						c-6.895-0.299-1.479-15.546,3.882-17.306S381.081,238.793,387.163,236.513z"/>
					<path style="fill:#E48A68;" d="M351.685,247.317c0.995,3.175,1.072,22.023-4.922,19.703
						c-9.992-3.866-24.187-41.195-24.023-45.403c0.164-4.208,10.617-11.49,14.374-8.13
						C340.871,216.847,350.239,242.7,351.685,247.317z"/>
					
						<path style="fill:none;stroke:#BF603B;stroke-width:0.75;stroke-linecap:round;stroke-linejoin:round;stroke-miterlimit:10;" d="
						M347.33,253.184c1.234-1.608,2.948-2.842,4.864-3.503c-1.508-0.448-3.089-0.477-4.577,0.034"/>
				</g>
				<path style="fill:#518F60;" d="M335.99,211.223c3.098,2.756,10.842,19.48,12.741,25.29c-2.411,2.085-14.465,9.683-18.337,10.048
					l-8.547-16.218l-1.899-12.2L335.99,211.223z"/>
			</g>
			<g>
				<path style="fill:#518F60;" d="M277.2,228.663c0.59,5.08,7.69,42.99,8.5,47.54c0,1.5,9.97,2.71,22.27,2.71
					c12.29,0,22.26-1.21,22.26-2.71c-0.61-7.74-0.66-15.63-0.13-23.37c2.12-0.2,4.15-1.21,5.58-2.78c1.44-1.57,2.26-3.68,2.27-5.81
					c0.03-6.25-6.61-11.21-6.98-17.45c6.04-3.23,6.89-14.04,5.02-15.57s-19.48-7.06-23.27-7.89c0,0,1.81,12.57-4.57,12.57
					c-10.75,0-13.36-12.57-13.36-12.57c-2.62,0.66-22.27,7.12-23.72,8.4C269.62,213.013,264.01,226.453,277.2,228.663z"/>
				<g>
					
						<path style="fill:none;stroke:#2F703E;stroke-width:0.75;stroke-linecap:round;stroke-linejoin:round;stroke-miterlimit:10;" d="
						M337.95,244.243c0.03-6.25-6.61-11.21-6.98-17.45"/>
					
						<path style="fill:none;stroke:#2F703E;stroke-width:0.75;stroke-linecap:round;stroke-linejoin:round;stroke-miterlimit:10;" d="
						M331.966,230.702c0.673-1.611,1.34-3.262,2.237-4.76"/>
					
						<path style="fill:none;stroke:#2F703E;stroke-width:0.75;stroke-linecap:round;stroke-linejoin:round;stroke-miterlimit:10;" d="
						M330.347,252.764c-3.663,0.489-7.445,0.024-10.889-1.313c-1.512-0.587-3.189-0.645-4.736-0.159
						c-3.355,1.054-6.807,1.696-10.325,1.454c-4.398-0.302-8.808-2.038-11.749-5.321"/>
					
						<path style="fill:none;stroke:#2F703E;stroke-width:0.75;stroke-linecap:round;stroke-linejoin:round;stroke-miterlimit:10;" d="
						M282.035,237.413c2.115,12.74,5.294,29.105,6.969,38.598"/>
					
						<path style="fill:none;stroke:#2F703E;stroke-width:0.75;stroke-linecap:round;stroke-linejoin:round;stroke-miterlimit:10;" d="
						M292.51,205.19c2.298,6.637,7.658,14.933,16.401,14.295c8.743-0.638,6.648-11.615,6.004-14.295"/>
				</g>
			</g>
			<g>
				<g>
					<g>
						<path style="fill:#E48A68;" d="M270.638,306.435l-9.317,1.804c0.579,6.646,4.218,19.835,4.817,21.028
							c0.599,1.194,1.738,0.633,1.554-0.489c-0.185-1.122-1.2-7.317-1.2-7.317s2.806,7.898,3.284,8.967
							c0.478,1.069,1.858,1.308,1.639-0.436c-0.219-1.744-2.24-8.883-2.24-8.883s3.322,8.929,3.762,9.668
							c0.441,0.74,1.745,0.871,1.54-0.681c-0.205-1.552-2.611-9.919-2.611-9.919s3.333,7.391,3.766,8.177
							c0.432,0.786,1.669,0.763,1.311-1.005C276.585,325.581,271.888,309.198,270.638,306.435z"/>
						<path style="fill:#E48A68;" d="M270.638,306.435c1.888,1.003,6.487,4.548,7.269,5.774c0.783,1.225,2.544,6.649,1.521,7.087
							c-1.024,0.439-2.768-1.806-3.131-3.812c-1.76,0.027-4.373-0.473-6.014-1.942C268.642,312.073,270.638,306.435,270.638,306.435
							z"/>
						
							<path style="fill:none;stroke:#BF603B;stroke-width:0.75;stroke-linecap:round;stroke-linejoin:round;stroke-miterlimit:10;" d="
							M273.434,319.325c-2.502,1.591-5.922,2.484-8.647,2.012"/>
					</g>
					<path style="fill:#E48A68;" d="M270.638,306.435l-9.317,1.804c-2.387-6.917-14.857-37.691-12.684-46.134
						c1.72-6.684,15.646,1.125,16.259,6.734C265.508,274.448,269.666,300.014,270.638,306.435z"/>
					<path style="fill:#E48A68;" d="M248.637,262.105c-0.157,3.323,12.561,11.992,16.259,6.734
						c8.528-12.127,20.274-42.337,20.11-46.546c-0.164-4.208-10.617-11.49-14.374-8.13
						C266.875,217.523,249.155,251.159,248.637,262.105z"/>
					
						<path style="fill:none;stroke:#BF603B;stroke-width:0.75;stroke-linecap:round;stroke-linejoin:round;stroke-miterlimit:10;" d="
						M258.965,267.382c2.02-0.161,4.085,0.284,5.859,1.264c-0.678-1.42-1.715-2.613-3.092-3.375"/>
				</g>
				<g>
					<path style="fill:#518F60;" d="M271.07,211.733c-3.168,1.787-14.047,20.414-15.62,25.681
						c2.599,3.283,17.536,10.723,21.914,10.586c2.268-4.951,9.507-21.546,9.097-25.991
						C286.051,217.562,275.584,209.187,271.07,211.733z"/>
					
						<path style="fill:none;stroke:#2F703E;stroke-width:0.75;stroke-linecap:round;stroke-linejoin:round;stroke-miterlimit:10;" d="
						M279.609,242.92c2.99-6.969,7.166-17.506,6.852-20.912"/>
				</g>
			</g>
		</g>
	</g>
	<g>
		<g>
			<g>
				<g>
					<polygon style="fill:#E48A68;" points="185.839,441.94 189.644,460.801 200.558,460.801 200.199,442.707 					"/>
					<path style="fill:#FFFFFF;" d="M227.524,467.49h-44.319c-0.126-1.336,0.832-4.966,1.79-6.277
						c0.05-1.966,0.462-6.696,3.382-6.696c2.92,0,4.181,4.226,7.055,4.226s3.277-4.84,6.454-4.84c3.176,0,5.092,3.529,5.092,3.529
						l14.153,4.038C224.112,462.32,226.495,464.565,227.524,467.49L227.524,467.49z"/>
					<path style="fill:#2C2F37;" d="M182.957,470h44.814c0.262,0,0.474-0.212,0.474-0.474v-1.562c0-0.262-0.212-0.474-0.474-0.474
						h-44.814c-0.262,0-0.474,0.212-0.474,0.474v1.562C182.483,469.788,182.695,470,182.957,470z"/>
				</g>
				<g>
					<polygon style="fill:#E48A68;" points="132.511,441.94 134.453,460.801 145.366,460.801 146.871,442.707 					"/>
					<path style="fill:#FFFFFF;" d="M172.332,467.49h-44.319c-0.126-1.336,0.832-4.966,1.79-6.277
						c0.05-1.966,0.462-6.696,3.382-6.696c2.92,0,4.181,4.226,7.055,4.226s3.277-4.84,6.454-4.84s5.092,3.529,5.092,3.529
						l14.153,4.038C168.92,462.32,171.304,464.565,172.332,467.49L172.332,467.49z"/>
					<path style="fill:#2C2F37;" d="M127.765,470h44.814c0.262,0,0.474-0.212,0.474-0.474v-1.562c0-0.262-0.212-0.474-0.474-0.474
						h-44.814c-0.262,0-0.474,0.212-0.474,0.474v1.562C127.291,469.788,127.503,470,127.765,470z"/>
				</g>
			</g>
			<g>
				<g>
					<path style="fill:#5766CC;" d="M191.928,270.867c3.03,14.858,10.744,144.976,11.019,174.27h-20.661
						c-4.408-23.599-19.835-116.035-19.835-123.674v-50.596H191.928z"/>
					<path style="fill:#5766CC;" d="M132.511,270.867c-3.943,40.478-3.078,157.839-2.291,174.27h19.946
						c5.398-23.875,15.591-113.406,18.346-129.935v-46.556L132.511,270.867z"/>
				</g>
				<g>
					
						<path style="fill:none;stroke:#2837A1;stroke-width:0.75;stroke-linecap:round;stroke-linejoin:round;stroke-miterlimit:10;" d="
						M164.23,347.024c1.892-14.809,3.437-26.751,4.283-31.822v-46.556"/>
					
						<path style="fill:none;stroke:#2837A1;stroke-width:0.75;stroke-linecap:round;stroke-linejoin:round;stroke-miterlimit:10;" d="
						M175.437,272.446v17.85c0,4.443-3.02,8.318-7.328,9.403l-5.329,1.342"/>
					
						<path style="fill:none;stroke:#2837A1;stroke-width:0.75;stroke-linecap:round;stroke-linejoin:round;stroke-miterlimit:10;" d="
						M184.893,277.565c0.791,6.229,3.866,12.142,8.51,16.366"/>
					
						<path style="fill:none;stroke:#2837A1;stroke-width:0.75;stroke-linecap:round;stroke-linejoin:round;stroke-miterlimit:10;" d="
						M134.803,297.915c-2.069,46.357-3.514,93.534-2.292,144.025"/>
					
						<path style="fill:none;stroke:#2837A1;stroke-width:0.75;stroke-linecap:round;stroke-linejoin:round;stroke-miterlimit:10;" d="
						M167.06,338.273c5.318,34.215,11.695,68.232,17.124,104.124"/>
					
						<path style="fill:none;stroke:#2837A1;stroke-width:0.75;stroke-linecap:round;stroke-linejoin:round;stroke-miterlimit:10;" d="
						M199.386,361.428c-3.629,1.31-7.506,1.927-11.362,1.807"/>
					
						<path style="fill:none;stroke:#2837A1;stroke-width:0.75;stroke-linecap:round;stroke-linejoin:round;stroke-miterlimit:10;" d="
						M161.748,365.169c-4.081,0.307-8.204,0.041-12.211-0.79"/>
				</g>
			</g>
		</g>
		<g>
			<g>
				<g>
					<path style="fill:#E48A68;" d="M207.829,231.165c0.685,3.735,3.049,17.62-3.702,17.62c-17.555,0-26.278-46.021-25.507-50.765
						c0.771-4.744,13.628-11.537,17.415-7.207C199.824,195.142,206.834,225.734,207.829,231.165z"/>
					<path style="fill:#FFFFFF;" d="M194.726,186.244c4.191,3.875,13.114,32.466,13.542,36.349
						c-3.315,1.637-13.155,3.669-18.503,3.027l-4.955-29.917L194.726,186.244z"/>
				</g>
				<g>
					<path style="fill:#E48A68;" d="M219.195,193.945l9.311,2.97c-2.668,7.913-14.427,51.871-24.378,51.871
						c-9.686,0-9.659-11.929-6.301-17.423C201.185,225.868,215.594,200.424,219.195,193.945z"/>
					<g>
						<path style="fill:#E48A68;" d="M219.195,193.945l9.311,2.97c1.452-2.442,1.315-11.748,0.655-15.576
							c-0.66-3.828-9.174-12.879-10.824-14.261c-1.65-1.381-2.107,0.467-1.582,1.721c0.526,1.254,4.882,8.184,4.882,8.184
							c-1.98-1.518-5.412-1.848-3.894,1.98c-1.122,0.264-2.112,1.782-0.198,3.63c-3.432,1.716-0.462,7.458,1.254,7.788
							c1.716,0.33,1.056-2.574,1.056-2.574l1.122,1.071C219.723,190.842,219.261,193.219,219.195,193.945z"/>
						
							<path style="fill:none;stroke:#BF603B;stroke-width:0.75;stroke-linecap:round;stroke-linejoin:round;stroke-miterlimit:10;" d="
							M217.49,182.674c1.871-0.148,3.79,0.418,5.28,1.559"/>
						
							<path style="fill:none;stroke:#BF603B;stroke-width:0.75;stroke-linecap:round;stroke-linejoin:round;stroke-miterlimit:10;" d="
							M217.817,178.906c1.788-0.157,3.629,0.377,5.055,1.468"/>
						
							<path style="fill:none;stroke:#BF603B;stroke-width:0.75;stroke-linecap:round;stroke-linejoin:round;stroke-miterlimit:10;" d="
							M221.757,176.897c0.732,0.419,1.435,0.887,2.104,1.4"/>
					</g>
					
						<path style="fill:none;stroke:#BF603B;stroke-width:0.75;stroke-linecap:round;stroke-linejoin:round;stroke-miterlimit:10;" d="
						M196.609,233.379c1.456-3.167,3.246-6.182,5.329-8.977c-1.706,1.207-3.573,2.562-5.111,3.977"/>
				</g>
			</g>
			<g>
				<path style="fill:#FFFFFF;" d="M188.685,198.241c5.871-1.276,8.594-10.295,6.041-11.997c-2.553-1.702-20.421-6.467-23.909-6.879
					h-17.935c-2.997,0.327-22.33,4.156-23.946,6.709c-1.617,2.553-4.747,14.634,2.06,16.421c1.472,6.29-3.164,64.367,0.862,70.468
					c4.026,6.1,59.785,5.124,62.591,0.854C197.255,269.547,192.193,207.706,188.685,198.241z"/>
				<g>
					
						<path style="fill:none;stroke:#C8C3CA;stroke-width:0.75;stroke-linecap:round;stroke-linejoin:round;stroke-miterlimit:10;" d="
						M150.426,181.135c5.095,10.025,20.391,9.202,22.888,0"/>
					
						<path style="fill:none;stroke:#C8C3CA;stroke-width:0.75;stroke-linecap:round;stroke-linejoin:round;stroke-miterlimit:10;" d="
						M136.085,206.925c0.991,21.355-5.097,43.014-0.732,63.943"/>
					<g>
						
							<path style="fill:none;stroke:#C8C3CA;stroke-width:0.75;stroke-linecap:round;stroke-linejoin:round;stroke-miterlimit:10;" d="
							M192.675,224.053c-1.234-12.005-2.715-22.37-3.99-25.812"/>
						
							<path style="fill:none;stroke:#C8C3CA;stroke-width:0.75;stroke-linecap:round;stroke-linejoin:round;stroke-miterlimit:10;" d="
							M190.108,204.21c0.792-2.034,1.411-4.134,1.849-6.272"/>
					</g>
				</g>
				<g>
					<g>
						<path style="fill:#C8C3CA;" d="M193.638,234.265c-10.08,1.28-20.19,1.92-30.3,1.92c-10.93,0-21.86-0.75-32.75-2.24
							c0.03-1.01,0.06-2.02,0.1-3.02c20.85,2.89,41.84,3,62.68,0.35C193.458,232.265,193.548,233.265,193.638,234.265z"/>
					</g>
					<g>
						<path style="fill:#C8C3CA;" d="M194.388,244.135c-10.32,1.35-20.68,2.02-31.05,2.02c-11.02,0-22.05-0.76-33.03-2.28
							c0.02-1,0.05-2.01,0.08-3.02c21.21,2.96,42.58,3.06,63.79,0.29C194.248,242.145,194.328,243.145,194.388,244.135z"/>
					</g>
					<g>
						<path style="fill:#C8C3CA;" d="M194.968,254.035c-10.52,1.39-21.08,2.09-31.63,2.09c-11.07,0-22.14-0.76-33.17-2.29
							c0-0.99,0.01-2.01,0.02-3.04c21.49,3.02,43.14,3.1,64.63,0.23C194.868,252.045,194.918,253.055,194.968,254.035z"/>
					</g>
					<g>
						<path style="fill:#C8C3CA;" d="M195.258,263.955c-10.61,1.43-21.27,2.14-31.92,2.14c-11.01,0-22.01-0.75-32.98-2.27
							c-0.05-0.96-0.09-1.98-0.12-3.05c21.61,3.03,43.38,3.09,64.98,0.17C195.238,261.995,195.258,263.005,195.258,263.955z"/>
					</g>
				</g>
			</g>
			<g>
				<g>
					<g>
						<path style="fill:#E48A68;" d="M136.634,275.266l-9.791,4.63c-4.596-6.973-27.089-37.472-27.075-47.423
							c0.011-7.877,17.618-3.181,19.882,2.847C121.914,241.348,133.743,268.44,136.634,275.266z"/>
						<path style="fill:#E48A68;" d="M119.65,235.32c-2.272,3.043-18.728,5.223-19.835-2.03
							c-1.107-7.252,20.498-40.117,24.501-42.779c4.002-2.662,17.726,2.14,17.13,7.861
							C140.85,204.094,122.954,230.895,119.65,235.32z"/>
						
							<path style="fill:none;stroke:#BF603B;stroke-width:0.75;stroke-linecap:round;stroke-linejoin:round;stroke-miterlimit:10;" d="
							M112.922,233.818c2.312-0.062,4.638,0.57,6.601,1.794c-0.687-1.659-1.798-3.082-3.321-4.033"/>
					</g>
					<path style="fill:#FFFFFF;" d="M142.984,190.519c-1.607-2.314-7.632-8.437-12.946-5.307
						c-7.159,4.217-15.28,11.57-21.911,25.712c2.864,5.383,15.148,12.905,20.895,13.943
						C133.941,217.841,147.157,196.525,142.984,190.519z"/>
					
						<path style="fill:none;stroke:#C8C3CA;stroke-width:0.75;stroke-linecap:round;stroke-linejoin:round;stroke-miterlimit:10;" d="
						M130.988,221.956c3.389-5.181,8.25-13.353,10.9-20.271"/>
				</g>
				<g>
					<g>
						<path style="fill:#E48A68;" d="M142.768,284.935c-2.17,3.83-5.32,7.09-9.07,9.37c-2.55-4.66-5.48-10.48-6.86-14.41l9.8-4.63
							C137.618,276.495,140.178,280.615,142.768,284.935z"/>
						<path style="fill:#E48A68;" d="M136.634,275.266c2.371,0.575,8.459,3.194,9.671,4.328c1.212,1.134,4.694,6.632,3.686,7.406
							c-1.008,0.775-3.571-1.214-4.54-3.33c-1.939,0.527-4.969,0.714-7.199-0.447C136.023,282.064,136.634,275.266,136.634,275.266z
							"/>
						
							<path style="fill:none;stroke:#BF603B;stroke-width:0.75;stroke-linecap:round;stroke-linejoin:round;stroke-miterlimit:10;" d="
							M142.281,284.196c-1.232-2.512-2.622-4.946-4.158-7.285"/>
					</g>
					
						<path style="fill:none;stroke:#2837A1;stroke-width:0.75;stroke-linecap:round;stroke-linejoin:round;stroke-miterlimit:10;" d="
						M143.075,284.388c-2.343,4.387-5.983,8.072-10.34,10.47"/>
				</g>
			</g>
		</g>
		<g>
			<g>
				<path style="fill:#E48A68;" d="M171.228,171.141c-2.539,0.016-4.996-0.599-7.165-1.765c-2.163-1.155-4.037-2.806-5.443-4.882
					l-2.266-3.345v-20.077c0-4.19,3.443-7.562,7.628-7.47l6.876,0.158c4.065,0.087,5.781,3.699,7.301,7.464
					c1.842,4.544,0.36,7.421,0.512,12.302c0.016,0.561,0.055,1.144,0.12,1.749c0.027,0.24,0.06,0.485,0.093,0.736
					c0.016,0.12,0.038,0.245,0.055,0.37c0.033,0.223,0.076,0.452,0.12,0.686c0.038,0.218,0.076,0.425,0.103,0.632
					c0.016,0.087,0.033,0.169,0.044,0.256c0.071,0.496,0.131,0.97,0.169,1.433c0.044,0.441,0.065,0.877,0.076,1.291
					C179.678,168.717,174.606,171.125,171.228,171.141z"/>
				<g>
					<path style="fill:#E48A68;" d="M170.817,179.365c0,0-2.392,4.359-8.774,4.359c-6.102,0-9.161-4.359-9.161-4.359l3.468-18.218
						l13.102,8.359l0.255,1.562l0.482,3.262L170.817,179.365z"/>
					<path style="fill:#2C2F37;" d="M170.189,174.33c-2.476-0.521-4.803-1.672-6.759-3.313c-1.924-1.609-3.454-3.691-4.416-5.993
						c1.341,1.83,3.076,3.297,5.047,4.353c1.735,0.931,3.643,1.514,5.646,1.688L170.189,174.33z"/>
				</g>
				<g>
					<path style="fill:#E48A68;" d="M159.476,157.07c0,2.761-2.238,4.999-4.999,4.999c-2.761,0-5-2.238-5-4.999
						c0-2.761,2.238-4.999,5-4.999C157.238,152.07,159.476,154.309,159.476,157.07z"/>
					<g>
						
							<path style="fill:none;stroke:#BF603B;stroke-width:0.75;stroke-linecap:round;stroke-linejoin:round;stroke-miterlimit:10;" d="
							M157.338,159.743c-0.087-1.364-0.776-2.68-1.848-3.527c-1.073-0.848-2.511-1.215-3.859-0.984"/>
						
							<path style="fill:none;stroke:#BF603B;stroke-width:0.75;stroke-linecap:round;stroke-linejoin:round;stroke-miterlimit:10;" d="
							M155.49,156.215c-1.504,0.247-2.737,1.359-3.175,2.819"/>
					</g>
				</g>
				<g>
					
						<path style="fill:none;stroke:#2C2F37;stroke-width:0.75;stroke-linecap:round;stroke-linejoin:round;stroke-miterlimit:10;" d="
						M170.175,150.242c-0.019,0.745-0.038,1.495,0.093,2.228c0.131,0.733,0.424,1.457,0.951,1.984
						c0.228,0.228,0.503,0.427,0.633,0.722c0.188,0.424,0.01,0.939-0.309,1.275c-0.319,0.337-0.754,0.534-1.177,0.724"/>
					<g>
						<g>
							<path style="fill:#2C2F37;" d="M172.482,146.572c-0.028,0.277,0.033,0.563,0.17,0.805c0.137,0.242,0.346,0.433,0.598,0.552
								c0.538-0.357,1.1-0.725,1.741-0.809c0.586-0.078,1.185,0.094,1.702,0.38c0.518,0.286,1,0.676,1.433,1.078
								c0.165-0.011,0.309-0.161,0.314-0.326c-0.497-1.009-1.485-1.871-2.61-2.196C174.704,145.732,173.476,145.954,172.482,146.572
								z"/>
							
								<path style="fill:none;stroke:#2C2F37;stroke-width:0.75;stroke-linecap:round;stroke-linejoin:round;stroke-miterlimit:10;" d="
								M173.009,152.06c0.341-0.841,1.073-1.371,2.164-1.371c1.112,0,1.906,0.624,2.288,1.366"/>
						</g>
						<g>
							<path style="fill:#2C2F37;" d="M168,146.572c0.028,0.277-0.033,0.563-0.17,0.805c-0.137,0.242-0.346,0.433-0.598,0.552
								c-0.538-0.357-1.1-0.725-1.741-0.809c-0.586-0.078-1.185,0.094-1.702,0.38c-0.518,0.286-1,0.676-1.433,1.078
								c-0.165-0.011-0.309-0.161-0.314-0.326c0.497-1.009,1.485-1.871,2.609-2.196C165.778,145.732,167.006,145.954,168,146.572z"
								/>
							
								<path style="fill:none;stroke:#2C2F37;stroke-width:0.75;stroke-linecap:round;stroke-linejoin:round;stroke-miterlimit:10;" d="
								M167.473,152.06c-0.341-0.841-1.073-1.371-2.164-1.371c-1.112,0-1.906,0.624-2.288,1.366"/>
						</g>
					</g>
					<g>
						<g>
							<path style="fill:#BF513B;" d="M166.245,157.07c0,0.472-1.152,0.854-2.572,0.854c-1.421,0-2.572-0.383-2.572-0.854
								c0-0.472,1.152-0.854,2.572-0.854C165.093,156.215,166.245,156.598,166.245,157.07z"/>
						</g>
						<g>
							<path style="fill:#BF513B;" d="M179.16,157.7c-0.458,0.142-1.062,0.223-1.727,0.223c-1.422,0-2.572-0.381-2.572-0.855
								c0-0.469,1.15-0.85,2.572-0.85c0.561,0,1.079,0.06,1.504,0.163c0.033,0.223,0.076,0.452,0.12,0.686
								C179.095,157.286,179.133,157.493,179.16,157.7z"/>
						</g>
					</g>
					<path style="fill:#FFFFFF;" d="M175.007,161.02c-2.692-0.867-5.605-1.038-8.381-0.493c0.443,1.794,2.179,3.237,4.021,3.386
						C172.49,164.062,174.282,162.719,175.007,161.02z"/>
				</g>
			</g>
			<path style="fill:#2C2F37;" d="M148.061,146.79c0.74,2.31,1.85,4.48,3.05,6.59c0.88-0.82,2.07-1.31,3.37-1.31
				c1.67,0,3.15,0.82,4.06,2.08c0.59-0.53,0.98-1.32,1.12-2.11c0.24-1.31-0.05-2.64-0.14-3.97c-0.1-1.33,0.04-2.78,0.94-3.76
				c0.77,0.84,2.31,1.11,3.43,0.88c1.11-0.23,2.11-0.84,3.09-1.42c0.97-0.59,1.98-1.18,3.1-1.39c3.66-0.68,7,2.87,10.71,2.55
				c1.84-0.16,3.56-1.36,4.34-3.04c0.78-1.67,0.59-3.76-0.47-5.27c-1.07-1.51-2.97-2.39-4.81-2.22c-0.5,0.05-1,0.16-1.5,0.13
				c-0.51-0.04-1.04-0.27-1.25-0.72c-0.23-0.5-0.03-1.1,0.29-1.54c0.32-0.45,0.74-0.82,1.01-1.3c0.67-1.19,0.14-2.81-0.97-3.61
				c-1.1-0.8-2.61-0.87-3.92-0.47c-1.3,0.39-2.44,1.21-3.49,2.07c-1.05,0.87-2.06,1.81-3.22,2.52c-0.83,0.51-2.04,0.84-2.66,0.09
				c-0.53-0.62-0.26-1.59-0.54-2.36c-0.28-0.75-1.09-1.22-1.89-1.28c-0.8-0.07-1.59,0.2-2.32,0.54c-2.86,1.37-5.05,4.1-5.76,7.2
				c-0.46-0.87-1.72-1.3-2.7-1.18c-0.98,0.13-1.84,0.74-2.43,1.54c-0.58,0.79-0.9,1.75-1.09,2.71
				C146.871,141.41,147.221,144.2,148.061,146.79z"/>
		</g>
	</g>
</g>
</svg>
