<?xml version="1.0" encoding="utf-8"?>
<!-- Generator: Adobe Illustrator 27.5.0, SVG Export Plug-In . SVG Version: 6.00 Build 0)  -->
<svg version="1.1" xmlns="http://www.w3.org/2000/svg" xmlns:xlink="http://www.w3.org/1999/xlink" x="0px" y="0px"
	 viewBox="0 0 750 500" style="enable-background:new 0 0 750 500;" xml:space="preserve">
<g id="BACKGROUND">
	<rect style="fill:#FFADAA;" width="750" height="500"/>
</g>
<g id="OBJECTS">
	<path style="fill:#FFC9C7;" d="M667.039,403.52c-57.882,0-21.561-71.792-11.143-97.326c4.246-10.406,5.725-21.566-0.635-31.646
		c-27.782-44.026-106.855-6.504-126.573-49.174c-38.756-83.866-31.56-153.789-121.952-153.789
		c-126.205,0-155.606,147.472-170.859,170.559c-6.887,10.425-15.282,20.622-27.466,27.418
		c-22.062,12.307-51.698,11.169-77.17,18.324c-35.572,9.992-61.359,36.791-68.532,65.958c-7.173,29.167,5.774,69.823,25.819,95.002
		l596.578,1.943C689.193,431.397,697.457,403.52,667.039,403.52z"/>
	<ellipse style="fill:#FF928F;" cx="375" cy="448.846" rx="332.369" ry="17.009"/>
	<g>
		<ellipse style="fill:#FF928F;" cx="503.172" cy="77.833" rx="51.401" ry="36.608"/>
		<g>
			<g>
				<polygon style="fill:#1E1609;" points="512.088,65.102 505.361,58.061 512.172,58.287 518.983,58.513 518.899,65.328 
					518.815,72.142 				"/>
				<path style="fill:#1E1609;" d="M511.025,61.438c0,0-13.464,17.512-28.432,11.238c0,0,12.084,14.056,33.029-5.604L511.025,61.438
					z"/>
			</g>
			<rect x="487.974" y="83.614" style="fill:#019AE6;" width="6.553" height="7.862"/>
			<rect x="500.72" y="79.587" style="fill:#019AE6;" width="6.553" height="11.889"/>
			<rect x="513.465" y="75.559" style="fill:#019AE6;" width="6.553" height="15.917"/>
		</g>
		<path style="fill:#FF928F;" d="M509.969,108.322c0,0,7.184,21.949,37.425,18.117c0,0-12.672-2.464-20.757-21.576L509.969,108.322z
			"/>
	</g>
	<g>
		
			<line style="fill:none;stroke:#1E1609;stroke-width:2;stroke-linecap:round;stroke-linejoin:round;stroke-miterlimit:10;" x1="487.704" y1="220.981" x2="518.518" y2="450.789"/>
		
			<line style="fill:none;stroke:#1E1609;stroke-width:2;stroke-linecap:round;stroke-linejoin:round;stroke-miterlimit:10;" x1="486.459" y1="204.374" x2="439.272" y2="450.789"/>
		
			<line style="fill:none;stroke:#1E1609;stroke-width:2;stroke-linecap:round;stroke-linejoin:round;stroke-miterlimit:10;" x1="329.565" y1="204.374" x2="282.378" y2="450.789"/>
		
			<line style="fill:none;stroke:#1E1609;stroke-width:2;stroke-linecap:round;stroke-linejoin:round;stroke-miterlimit:10;" x1="438.259" y1="366.221" x2="507.178" y2="366.221"/>
		<polygon style="fill:#FFFFFF;" points="460.898,397.44 281.302,397.44 333.572,124.482 513.169,124.482 		"/>
		<path style="fill:#019AE6;" d="M299.829,349.055l14.386-13.31c2.942-2.722,6.805-3.415,9.444-1.694l6.41,4.18
			c3.43,2.237,8.6,0.815,11.898-3.274l15.337-19.017c2.361-2.928,6.253-3.137,7.598-0.408l14.014,28.446l24.182-22.714
			c2.043-1.919,4.815-1.927,6.004-0.017l11.179,17.953l14.606-21.509c2.394-3.525,7.003-3.505,7.779,0.034l6.868,31.329H299.829z"/>
		<path style="fill:#EB3F27;" d="M299.829,351.633l2.423-10.75l11.079,3.719c4.048,1.359,9.101-0.331,12.735-4.258l8.034-8.684
			c4.439-4.798,10.934-5.71,14.496-2.036l4.696,4.845c2.683,2.768,7.7,1.737,10.68-2.196l19.089-25.19
			c3.745-4.942,10.306-4.676,11.439,0.463l4.977,22.578c1.056,4.789,6.536,5.998,10.955,2.416l4.812-3.899
			c4.564-3.698,10.262-3.609,13.035,0.203l7.284,10.013c1.316,1.81,3.936,2.012,6.218,0.48l3.368-2.261
			c1.845-1.239,3.961-1.019,4.945,0.514l9.016,14.043H299.829z"/>
		
			<polyline style="fill:none;stroke:#1E1609;stroke-width:2;stroke-linecap:round;stroke-linejoin:round;stroke-miterlimit:10;" points="
			309.894,317.332 352.783,288.144 369.462,306.014 393.884,293.393 415.329,313.608 462.865,279.804 		"/>
		<polygon style="fill:#1E1609;" points="459.343,282.265 456.844,278.863 460.529,278.775 464.214,278.688 463.028,282.177 
			461.842,285.667 		"/>
		<g>
			<path style="fill:#019AE6;" d="M408.635,238.646c-24.038,0-43.532-19.477-43.532-43.532c0-24.038,19.494-43.532,43.532-43.532
				c16.545,0,30.94,9.244,38.311,22.824c3.33,6.157,5.22,13.216,5.22,20.708C452.166,219.169,432.672,238.646,408.635,238.646z"/>
			<path style="fill:#EB3F27;" d="M408.635,195.114v-43.532c16.545,0,30.94,9.244,38.311,22.824L408.635,195.114z"/>
			<path style="fill:#1E1609;" d="M452.166,195.114h-43.532l38.311-20.708C450.276,180.563,452.166,187.622,452.166,195.114z"/>
		</g>
		<rect x="337.266" y="254.538" style="fill:#519FD6;" width="9.375" height="9.375"/>
		<rect x="382.483" y="254.538" style="fill:#F54555;" width="9.375" height="9.375"/>
		<rect x="427.7" y="254.538" style="fill:#1E1609;" width="9.375" height="9.375"/>
		<rect x="352.808" y="256.301" style="fill:#1E1609;" width="11.362" height="2.056"/>
		<rect x="352.808" y="260.093" style="fill:#1E1609;" width="18.137" height="2.056"/>
		<rect x="398.824" y="256.301" style="fill:#1E1609;" width="11.362" height="2.056"/>
		<rect x="398.824" y="260.093" style="fill:#1E1609;" width="18.137" height="2.056"/>
		<rect x="444.84" y="256.301" style="fill:#1E1609;" width="11.362" height="2.056"/>
		<rect x="444.84" y="260.093" style="fill:#1E1609;" width="18.137" height="2.056"/>
	</g>
	<g>
		<path style="fill:#FF7F5E;" d="M586.873,424.3c0,0-0.263,6.129-0.572,13.213c0,0,16.46,2.492,21.338,1.548l-0.114-15.504
			L586.873,424.3z"/>
		<path style="fill:#FF7F5E;" d="M526.53,420.086c0,0-0.752,7.249-7.889,18.974l25.262-1.226l2.723-15.495L526.53,420.086z"/>
		<path style="fill:#FF7F5E;" d="M490.817,142.485c-3.222,0.605,0.902,5.571,0.902,5.571l4.406,0.005
			C496.125,148.061,491.598,142.339,490.817,142.485z"/>
		<path style="fill:#427346;" d="M613.421,195.292l0.707,40.373l-69.396-0.804l0.492-39.569l-20.357-0.232
			c0,0,11.249-40.947,15.047-41.683c3.789-0.746,30.963-4.36,30.963-4.36l20.386,0.397c0,0,28.514,0.611,30.558,3.963
			c2.045,3.343,13.284,37.449,13.284,37.449L613.421,195.292z"/>
		<path style="fill:#FFFFFF;" d="M545.224,195.292l-20.357-0.232c0,0,11.249-40.947,15.047-41.683c0,0,5.649,3.808,6.221,10.707
			C546.706,170.981,545.224,195.292,545.224,195.292z"/>
		<g>
			<path style="fill:#1E1609;" d="M526.497,189.297c1.604-0.34,3.198-0.484,4.789-0.558c1.591-0.073,3.179-0.078,4.764-0.003
				c1.585,0.068,3.166,0.22,4.744,0.438c1.578,0.219,3.153,0.509,4.718,0.998c-1.604,0.343-3.198,0.487-4.79,0.561
				c-1.591,0.072-3.179,0.079-4.764,0.001c-1.585-0.071-3.166-0.222-4.743-0.441C529.637,190.072,528.063,189.783,526.497,189.297z"
				/>
		</g>
		<path style="fill:#1E1609;" d="M579.569,138.373c4.593,0.628,15.537-2.19,19.023-5.41c1.026-0.948,1.961-2.069,2.416-3.427
			c1.138-3.4-0.983-7.25-0.025-10.711c0.684-2.47,2.888-4.829,1.945-7.202c-0.51-1.285-1.834-2.053-2.339-3.34
			c-0.719-1.83,0.463-3.854,0.492-5.835c0.04-2.698-2.934-5.394-5.471-5.077c-0.338-2.37-0.875-5.062-2.849-6.245
			c-0.902-0.541-1.974-0.664-3.012-0.664c-3.661,0-7.353,1.384-10.92,0.516c-3.944-0.96-7.008-4.521-10.986-5.307
			c-4.581-0.906-9.521,2.738-10.295,7.592c-0.172,1.076-0.194,2.264-0.858,3.1c-1.347,1.697-4.142,0.683-5.877,1.927
			c-1.191,0.854-1.552,2.61-1.227,4.091c0.326,1.482,1.2,2.753,2.075,3.961c0.244,0.336,0.498,0.697,0.53,1.119
			c0.068,0.893-0.823,1.473-1.482,2.037c-2.384,2.042-2.447,6.102-0.825,8.854c1.623,2.752,4.487,4.406,7.365,5.533
			c2.805,1.099,5.745,1.813,8.722,2.12c1.686,0.174,3.468,0.015,5.148,0.242c4.058,0.547,8.274,1.276,11.594,3.801
			C584.673,131.537,580.041,135.873,579.569,138.373z"/>
		<polygon style="fill:#FF7F5E;" points="590.949,119.326 589.93,149.134 581.286,164.079 571.623,148.53 571.623,119.326 		"/>
		<path style="fill:#1E1609;" d="M571.623,142.831v-8.954h12.294C583.917,133.877,583.599,142.831,571.623,142.831z"/>
		<path style="fill:#FF7F5E;" d="M558.782,119.182c0,1.066,0.062,2.138,0.185,3.198c0.296,2.57,0.949,5.071,1.966,7.277
			c2.12,4.597,5.829,7.912,11.178,7.912c8.972,0,19.176-2.57,19.176-18.387c0-9.052-7.277-16.391-16.255-16.391
			C566.059,102.792,558.782,107.918,558.782,119.182z"/>
		<path style="fill:#1E1609;" d="M567.03,112.652c3.81,0.287,7.625-0.586,11.12-2.041c0.922-0.384,2.094-0.773,2.844-0.101
			c1.312,1.177-0.478,3.948,1.06,4.817c0.988,0.558,2.231-0.473,3.316-0.137c1.191,0.369,0.826,1.357,0.583,2.551
			s-0.551,4.459,0.266,5.398c2.124,2.443,6.447,2.351,7.306,1.004c3.542-5.548,1.995-17.208-1.69-22.773
			c-3.573-5.396-10.767-7.542-17.248-7.039c-6.018,0.468-12.396,3.17-15.856,8.172C554.37,108.808,560.626,112.169,567.03,112.652z"
			/>
		<path style="fill:#FF7F5E;" d="M587.465,124.444c0,2.939,2.383,5.322,5.322,5.322c2.939,0,5.322-2.383,5.322-5.322
			s-2.383-5.322-5.322-5.322C589.847,119.122,587.465,121.505,587.465,124.444z"/>
		<path style="fill:#1E1609;" d="M573.021,119.122c0,0.555,0.45,1.006,1.005,1.006c0.555,0,1.006-0.45,1.006-1.006
			c0-0.555-0.45-1.006-1.006-1.006C573.472,118.117,573.021,118.567,573.021,119.122z"/>
		<path style="fill:#1E1609;" d="M562.194,119.122c0,0.555,0.45,1.006,1.006,1.006s1.005-0.45,1.005-1.006
			c0-0.555-0.45-1.006-1.005-1.006S562.194,118.567,562.194,119.122z"/>
		<path style="fill:#E05E61;" d="M573.021,127.107c0,2.188,1.773,3.961,3.961,3.961c2.188,0,3.961-1.773,3.961-3.961
			c0-2.188-1.773-3.961-3.961-3.961C574.795,123.146,573.021,124.919,573.021,127.107z"/>
		<path style="fill:#E05E61;" d="M558.966,122.38c0.296,2.57,0.949,5.071,1.966,7.277c1.091-0.702,1.812-1.929,1.812-3.321
			C562.744,124.21,561.068,122.473,558.966,122.38z"/>
		<path style="fill:none;stroke:#332737;stroke-linecap:round;stroke-linejoin:round;stroke-miterlimit:10;" d="M574.027,131.499
			c-0.888,0.341-1.815,0.428-2.723,0.257"/>
		<g>
			<path style="fill:#1E1609;" d="M592.319,121.722c0.918-0.106,1.904,0.054,2.754,0.628c0.887,0.559,1.336,1.781,1.14,2.798
				c-0.054,0.527-0.339,1.069-0.731,1.455c-0.407,0.386-0.91,0.608-1.399,0.694c-0.98,0.192-1.937,0.053-2.798-0.294
				c0.918-0.061,1.815-0.167,2.583-0.456c0.784-0.282,1.275-0.818,1.358-1.551c0.138-0.757-0.075-1.495-0.643-2.043
				C594.007,122.402,593.188,122.02,592.319,121.722z"/>
		</g>
		<g>
			<path style="fill:#1E1609;" d="M567.579,128.143c-0.782,0.026-1.589-0.153-2.31-0.574c-0.725-0.408-1.328-1.183-1.469-2.069
				c-0.058-0.218-0.053-0.434-0.065-0.653c-0.009-0.103-0.011-0.217,0.027-0.375c0.018-0.143,0.068-0.288,0.169-0.434
				c0.175-0.297,0.496-0.452,0.755-0.521c0.261-0.058,0.502-0.067,0.727-0.051c0.889,0.099,1.62,0.381,2.358,0.746l-0.633,0.339
				c0.29-1.48,0.619-2.955,1.107-4.406c0.045,1.53-0.069,3.037-0.222,4.537c-0.024,0.236-0.235,0.409-0.472,0.384
				c-0.037-0.004-0.073-0.012-0.106-0.024l-0.056-0.021c-0.666-0.251-1.401-0.516-2.049-0.558c-0.325-0.036-0.591,0.035-0.599,0.11
				c-0.052,0.036-0.091,0.487-0.05,0.789c0.015,0.333,0.145,0.63,0.279,0.931c0.17,0.282,0.38,0.554,0.65,0.787
				C566.159,127.539,566.841,127.895,567.579,128.143z"/>
		</g>
		<path style="fill:#FF7F5E;" d="M545.228,195.294l-18.062-0.209l-25.31-38.31l-11.287,3.193c0,0,15.906,60.282,32.964,60.282
			C536.34,220.249,545.228,195.294,545.228,195.294z"/>
		<path style="fill:#FF7F5E;" d="M632.905,191.279l-19.483,4.015l0.594,7.807l-40.221-3.33l-5.142,10.05
			c0,0,52.63,17.3,66.458,8.208C639.201,215.34,632.905,191.279,632.905,191.279z"/>
		<path style="fill:#FF7F5E;" d="M498.478,148.942c-1.641-1.412-12.773-2.388-12.773-2.388s-4.693-7.57-5.683-7.459
			c-3.236,0.365,0.243,11.021,0.844,12.52c0.333,0.831,6.377,3.221,9.703,8.352l11.287-3.193
			C501.855,156.775,500.606,150.771,498.478,148.942z"/>
		<path style="fill:#FF7F5E;" d="M490.047,147.868c0,0-2.94-8.799-4.786-8.071c-1.911,0.753,0.114,8.147,0.114,8.147
			L490.047,147.868z"/>
		<g>
			<path style="fill:#1E1609;" d="M484.74,145.038c0.337,0.441,0.703,0.781,1.099,0.981c0.245,0.148,0.251,0.069,0.477,0.086
				l0.696-0.023c0.99-0.046,2.038-0.068,3.08,0.016c1.045,0.08,2.094,0.259,3.117,0.564c1.02,0.316,2.023,0.731,2.915,1.399
				c-1.105,0.143-2.129,0.152-3.151,0.156c-1.019-0.008-2.024-0.044-3.038-0.125c-1.016-0.085-2.032-0.196-3.098-0.452
				c-0.267-0.069-0.544-0.147-0.832-0.267c-0.28-0.098-0.745-0.419-0.852-0.657C484.815,146.191,484.653,145.598,484.74,145.038z"/>
		</g>
		<path style="fill:#FF7F5E;" d="M573.795,199.771c0,0-3.175-5.143-3.98-6.283c-0.805-1.14-7.216-3.327-8.447-2.387
			c-1.231,0.94-0.254,2.987,3.543,3.791c0,0-1.561,2.296-3.818,1.55c-2.258-0.745-6.017-5.671-7.092-6.994
			c-1.075-1.323-3.456,1.599-1.528,3.7c0,0-1.339,2.841,0.503,4.488c0,0-1.734,1.388-0.027,2.943c0,0-0.964,1.517,2.91,3.756
			c3.874,2.239,12.794,5.485,12.794,5.485L573.795,199.771z"/>
		<g>
			<path style="fill:#1E1609;" d="M527.165,195.085c0.8,0.208,1.453,0.565,2.072,0.956c0.61,0.4,1.165,0.856,1.672,1.359
				c0.508,0.503,0.966,1.056,1.369,1.664c0.395,0.616,0.754,1.268,0.964,2.069c-0.803-0.208-1.457-0.564-2.075-0.956
				c-0.61-0.4-1.164-0.855-1.669-1.36c-0.505-0.505-0.963-1.057-1.366-1.665C527.738,196.535,527.378,195.884,527.165,195.085z"/>
		</g>
		<g>
			<path style="fill:#1E1609;" d="M614.017,203.101c1.031-0.269,2.041-0.3,3.042-0.267c0.999,0.048,1.986,0.188,2.954,0.427
				c0.967,0.24,1.919,0.564,2.828,1.012c0.902,0.46,1.787,1.007,2.497,1.804c-1.063-0.036-2.019-0.16-2.977-0.306
				c-0.952-0.155-1.894-0.334-2.824-0.568c-0.931-0.232-1.859-0.499-2.779-0.831C615.838,204.03,614.922,203.655,614.017,203.101z"
				/>
		</g>
		<path style="fill:#019AE6;" d="M544.735,234.86c0,0-18.075,161.606-23.145,184.491l27.343,3.066l30.493-141.774l2.567,143.891
			l28.099-1.012c0,0,7.308-123.302,8.583-142.821c2.659-40.72-4.543-45.038-4.543-45.038L544.735,234.86z"/>
		<path style="fill:#1E1609;" d="M497.521,450.789c0,0-0.114-7.195,4.712-8.948c4.826-1.752,10.68-1.654,12.934-4.006
			c2.254-2.353,6.204-7.363,6.204-7.363s9.854,0.419,8.164,7.363c0,0,12.677-0.183,14.368,0c1.69,0.183,2.535,10.131-0.282,12.954
			C543.621,450.789,502.633,450.783,497.521,450.789z"/>
		<path style="fill:#1E1609;" d="M576.115,450.789c0,0,1.393-7.927,6.629-10.159c5.236-2.232,5.977-10.158,5.977-10.158
			s12.76-0.884,16.058,0c3.298,0.883,1.626,6.716,2.859,8.589c1.233,1.873,3.788,4.679,3.129,11.728L576.115,450.789z"/>
		<g>
			<path style="fill:#FFFFFF;" d="M584.142,439.832c1.477-1.484,3.387-2.497,5.371-3.192c1.995-0.692,4.112-1.067,6.232-1.095
				c2.116,0.015,4.239,0.257,6.245,0.887c1.023,0.234,1.972,0.717,2.937,1.089c0.938,0.457,1.842,0.981,2.71,1.54
				c-1.042-0.151-2.02-0.42-3.015-0.607l-1.488-0.262l-0.734-0.145l-0.743-0.091c-0.495-0.057-0.986-0.12-1.473-0.201
				c-0.491-0.053-0.985-0.072-1.475-0.11c-0.49-0.045-0.979-0.087-1.47-0.075c-0.49-0.006-0.98-0.037-1.469-0.027
				C591.855,437.614,587.973,438.296,584.142,439.832z"/>
		</g>
		<g>
			<path style="fill:#FFFFFF;" d="M529.535,437.835c-1.472,1.622-3.213,2.969-5.073,4.127c-1.863,1.159-3.885,2.089-6.034,2.723
				c-1.077,0.301-2.191,0.514-3.323,0.614c-1.139,0.07-2.288,0.045-3.394-0.151c-1.11-0.191-2.273-0.499-3.258-1.277
				c-0.476-0.399-0.859-1.002-0.899-1.629c-0.046-0.625,0.197-1.187,0.534-1.612c-0.152,0.52-0.161,1.071,0.01,1.502
				c0.179,0.43,0.499,0.736,0.914,0.932c0.826,0.401,1.85,0.492,2.857,0.531c2.058,0.055,4.031-0.249,6.013-0.833
				c1.981-0.545,3.917-1.337,5.852-2.174C525.662,439.726,527.573,438.789,529.535,437.835z"/>
		</g>
		<g>
			<path style="fill:#1E1609;" d="M525.609,440.434c1.633-0.414,3.266-0.63,4.898-0.777c1.633-0.146,3.266-0.224,4.898-0.222
				c1.633-0.005,3.266,0.074,4.898,0.219c1.633,0.146,3.266,0.364,4.898,0.78c-1.633,0.416-3.266,0.634-4.898,0.78
				c-1.633,0.145-3.266,0.225-4.898,0.219c-1.633,0.002-3.266-0.076-4.898-0.222C528.875,441.064,527.242,440.848,525.609,440.434z"
				/>
		</g>
		<polygon style="fill:#1E1609;" points="526.53,420.086 545.783,427.138 546.626,422.34 		"/>
		<polygon style="fill:#1E1609;" points="586.873,424.3 607.551,427.138 607.525,423.557 		"/>
		<g>
			<path style="fill:#1E1609;" d="M581.644,413.307c2.405-0.594,4.825-0.99,7.25-1.318c2.424-0.34,4.857-0.563,7.291-0.764
				c2.437-0.163,4.876-0.302,7.324-0.324c2.447-0.035,4.899,0.001,7.365,0.236c-2.405,0.596-4.825,0.994-7.25,1.321
				c-2.424,0.339-4.857,0.563-7.292,0.761c-2.437,0.161-4.876,0.299-7.324,0.321C586.562,413.574,584.11,413.539,581.644,413.307z"
				/>
		</g>
		<g>
			<path style="fill:#1E1609;" d="M523.801,406.649c2.366-0.118,4.707-0.041,7.039,0.105c2.334,0.134,4.653,0.384,6.969,0.656
				c2.312,0.31,4.62,0.644,6.914,1.094c2.295,0.438,4.582,0.945,6.844,1.651c-2.366,0.121-4.707,0.044-7.039-0.102
				c-2.334-0.134-4.653-0.384-6.969-0.659c-2.311-0.312-4.62-0.646-6.913-1.097C528.35,407.859,526.063,407.352,523.801,406.649z"/>
		</g>
		<path style="fill:#1E1609;" d="M579.426,280.644l-10.776-8.433c0,0-0.928,20.06,6.841,25.746L579.426,280.644z"/>
		<g>
			<path style="fill:#1E1609;" d="M543.943,241.668c6.057-0.447,12.115-0.766,18.175-0.958c6.059-0.22,12.12-0.322,18.18-0.402
				c6.061-0.043,12.122-0.06,18.185,0.039c6.062,0.071,12.126,0.271,18.19,0.6c-6.057,0.449-12.115,0.77-18.175,0.96
				c-6.059,0.219-12.12,0.322-18.18,0.399c-6.061,0.04-12.122,0.058-18.185-0.042C556.071,242.193,550.008,241.994,543.943,241.668z
				"/>
		</g>
		<g>
			<path style="fill:#1E1609;" d="M554.912,234.856c0.329,0.924,0.45,1.828,0.524,2.727c0.06,0.898,0.043,1.789-0.041,2.673
				c-0.084,0.884-0.237,1.761-0.469,2.631c-0.243,0.869-0.536,1.732-1.039,2.576c-0.332-0.924-0.454-1.828-0.526-2.728
				c-0.06-0.898-0.043-1.788,0.044-2.672c0.086-0.884,0.24-1.761,0.471-2.631C554.12,236.564,554.412,235.7,554.912,234.856z"/>
		</g>
		<g>
			<path style="fill:#1E1609;" d="M602.562,235.665c0.487,0.738,0.765,1.496,0.996,2.258c0.218,0.763,0.358,1.534,0.431,2.31
				c0.074,0.777,0.077,1.56,0.003,2.35c-0.086,0.791-0.222,1.587-0.567,2.402c-0.489-0.738-0.769-1.496-0.998-2.258
				c-0.218-0.763-0.358-1.533-0.428-2.31c-0.071-0.777-0.075-1.56,0-2.35C602.084,237.275,602.219,236.48,602.562,235.665z"/>
		</g>
		<path style="fill:#FFFFFF;" d="M635.106,190.825l-21.684,4.467c0,0-2.597-33.699-1.066-38.069c1.531-4.36,9.466-3.847,9.466-3.847
			C623.866,156.719,635.106,190.825,635.106,190.825z"/>
		<g>
			<path style="fill:#1E1609;" d="M567.098,149.629c1.441,2.494,2.765,5.044,4.151,7.564c1.342,2.541,2.674,5.087,3.971,7.65
				c2.617,5.114,5.128,10.279,7.618,15.454l-1.813,0.018c2.371-5.184,4.761-10.36,7.259-15.486c1.237-2.568,2.51-5.121,3.793-7.669
				c1.327-2.528,2.592-5.084,3.974-7.587c-0.971,2.689-2.058,5.326-3.084,7.99c-1.07,2.645-2.149,5.284-3.264,7.908
				c-2.207,5.258-4.522,10.468-6.856,15.669c-0.226,0.503-0.817,0.728-1.32,0.502c-0.225-0.101-0.396-0.277-0.494-0.484
				c-2.455-5.192-4.891-10.393-7.22-15.644c-1.176-2.62-2.317-5.258-3.448-7.9C569.279,154.951,568.13,152.318,567.098,149.629z"/>
		</g>
		<g>
			<polygon style="fill:#FFFFFF;" points="570.878,149.012 570.477,143.204 591.266,143.204 591.265,149.416 			"/>
			<polygon style="fill:#FFFFFF;" points="570.878,149.012 581.936,173.087 591.265,149.416 			"/>
			<g>
				<path style="fill:#1E1609;" d="M570.878,149.012c1.753-0.069,3.453-0.048,5.148-0.015l5.056,0.108l5.045,0.128
					c1.692,0.059,3.379,0.041,5.137,0.182c-1.614,0.68-3.315,1.14-5.037,1.376c-1.721,0.256-3.463,0.371-5.198,0.313
					c-1.735-0.044-3.465-0.231-5.168-0.561C574.161,150.214,572.474,149.756,570.878,149.012z"/>
			</g>
		</g>
		<g>
			<path style="fill:#1E1609;" d="M613.054,190.171c1.615-0.764,3.27-1.336,4.94-1.839c1.67-0.503,3.354-0.938,5.055-1.296
				c1.699-0.365,3.416-0.646,5.146-0.864c1.73-0.216,3.476-0.363,5.262-0.315c-1.614,0.767-3.269,1.339-4.939,1.842
				c-1.67,0.501-3.354,0.939-5.055,1.293c-1.7,0.361-3.416,0.644-5.146,0.861C616.585,190.069,614.84,190.217,613.054,190.171z"/>
		</g>
	</g>
	<g>
		<path style="fill:#EB3F27;" d="M219.125,121.412c0,0,6.259-6.944,6.259-11.035c0-8.784-5.803-16.973-13.869-17.849
			c-4.917-0.534-15.526,0.596-18.268,4.216c0,0-5.01-3.245-9.604-1.917c-4.64,1.342-13.642,9.583-11.999,35.265
			c0.773,12.074-24.377,29.793-11.795,40.289l68.049-7.37L219.125,121.412z"/>
		<path style="fill:#F17353;" d="M147.765,228.5l-36.641-49.292l8.85-5.772l28.939,28.618l21.752,11.455
			c0,0-4.242,10.782-8.818,16.077C159.518,232.281,151.965,235.043,147.765,228.5z"/>
		<path style="fill:#F17353;" d="M251.588,228.704l43.823-35.508l-5.689-6.842l-36.63,22.584l-3.165-10.433l-17.259,8.843
			c0,0,1.874,12.685,5.006,18.943C239.267,229.477,245.784,232.599,251.588,228.704z"/>
		<path style="fill:#F17353;" d="M119.975,173.436c0,0-1.715-13.51-3.689-14.729c-1.974-1.218-3.972,1.779-3.07,3.656
			c0.902,1.876,0.317,3.144-0.731,2.583c-1.048-0.561-11.332-6.92-11.722-2.411c0,0-3.753,0.805-2.242,3.193
			c0,0-2.729,1.584-0.463,3.168c0,0-2.607,1.487-0.633,2.705c1.974,1.218,9.266,3.956,13.699,7.607L119.975,173.436z"/>
		<g>
			<path style="fill:#1E1609;" d="M100.763,162.535c0.652-0.2,1.235-0.195,1.8-0.14c0.56,0.067,1.092,0.211,1.597,0.426
				c0.505,0.215,0.982,0.498,1.419,0.865c0.43,0.377,0.842,0.811,1.113,1.44c-0.674,0.107-1.232,0.067-1.778-0.015
				c-0.539-0.092-1.051-0.24-1.538-0.451c-0.487-0.21-0.954-0.475-1.395-0.81C101.543,163.502,101.121,163.114,100.763,162.535z"/>
		</g>
		<g>
			<path style="fill:#1E1609;" d="M98.521,165.727c0.602-0.228,1.144-0.257,1.671-0.239c0.523,0.03,1.022,0.134,1.499,0.302
				c0.477,0.167,0.93,0.401,1.354,0.707c0.42,0.317,0.822,0.681,1.143,1.24c-0.623,0.223-1.166,0.253-1.69,0.235
				c-0.52-0.029-1.011-0.131-1.479-0.298c-0.468-0.167-0.913-0.398-1.335-0.703C99.267,166.654,98.863,166.29,98.521,165.727z"/>
		</g>
		<g>
			<path style="fill:#1E1609;" d="M98.059,168.895c0.457-0.402,0.937-0.568,1.414-0.67c0.477-0.087,0.956-0.079,1.421,0.024
				c0.465,0.104,0.92,0.299,1.326,0.605c0.396,0.318,0.769,0.729,0.909,1.323c-0.599,0.11-1.027,0.147-1.455,0.152
				c-0.421,0.001-0.819-0.035-1.212-0.127c-0.394-0.089-0.787-0.222-1.183-0.42C98.881,169.571,98.482,169.326,98.059,168.895z"/>
		</g>
		<g>
			<path style="fill:#1E1609;" d="M108.414,164.255c-1.173,1.318-2.143,2.325-2.993,3.472c-0.423,0.566-0.845,1.135-1.232,1.768
				c-0.43,0.619-0.778,1.3-1.316,2.039c-0.597-1.686-0.128-3.607,0.96-5.022c0.539-0.715,1.237-1.303,2.02-1.708
				C106.637,164.409,107.509,164.152,108.414,164.255z"/>
		</g>
		<path style="fill:#F17353;" d="M230.703,428.529c0,0-3-13.141-3.645-16.359c-0.645-3.218,8.234-147.779,8.234-147.779h-30.184
			c0,0,5.137,139.147,5.177,142.818c0.07,6.473-0.142,11.666-0.142,11.666s2.455,13.275,7.301,17.7
			C222.289,441,229.621,438.184,230.703,428.529z"/>
		<path style="fill:#FFFFFF;" d="M230.703,428.529c0,0,0.361,6.338-3.219,7.544c-3.58,1.207-12.574-3.119-13.782-6.136
			c-1.208-3.017-3.559-11.063-3.559-11.063s-3.217,3.017-3.658,4.827c-0.442,1.81-0.442,1.81-0.442,1.81l-0.935,7.04l5.74,2.212
			c0,0,0.298,6.839,2.217,9.051c1.919,2.212,4.571,6.979,16.103,6.973c4.028-0.002,6.392-5.865,5.599-10.491
			C234.23,437.165,230.703,428.529,230.703,428.529z"/>
		<path style="fill:#F17353;" d="M133.692,428.529c0,0,4.746-13.141,5.819-16.359c1.073-3.218,30.776-147.779,30.776-147.779
			l34.596,6.848c0,0-47.413,132.299-47.94,135.97c-0.93,6.473-1.408,11.666-1.408,11.666s-4.219,13.275-9.652,17.7
			C140.449,441,133.49,438.184,133.692,428.529z"/>
		<polygon style="fill:#1E1609;" points="201.875,286.391 168.816,284.826 170.287,264.391 204.882,271.239 		"/>
		<path style="fill:#EB3F27;" d="M232.616,407.662l-22.426-5.137l-4.82-121.498l-37.9,122.038h-27l29.679-166.457l66.731-5.278
			c0,0,6.551,7.079,7.895,30.52C246.121,285.292,232.616,407.662,232.616,407.662z"/>
		<path style="fill:#1E1609;" d="M215.447,272.121c0,0-4.028,6.07-10.076,8.907l0.521,13.122
			C205.699,294.342,218.552,283.137,215.447,272.121z"/>
		<g>
			<path style="fill:#1E1609;" d="M182.066,235.666c0.417,0.886,0.624,1.772,0.784,2.658c0.147,0.886,0.215,1.772,0.216,2.658
				c0.002,0.886-0.067,1.772-0.213,2.658c-0.158,0.886-0.367,1.772-0.786,2.658c-0.419-0.886-0.628-1.772-0.786-2.658
				c-0.146-0.886-0.215-1.772-0.213-2.658c0.001-0.886,0.069-1.772,0.216-2.658C181.442,237.438,181.649,236.552,182.066,235.666z"
				/>
		</g>
		<g>
			<path style="fill:#1E1609;" d="M227.017,232.111c0.547,0.746,0.888,1.527,1.182,2.316c0.281,0.791,0.485,1.594,0.622,2.409
				c0.138,0.815,0.207,1.641,0.199,2.48c-0.02,0.841-0.089,1.691-0.366,2.575c-0.55-0.746-0.892-1.526-1.185-2.315
				c-0.281-0.791-0.485-1.595-0.62-2.41c-0.135-0.815-0.204-1.641-0.196-2.481C226.674,233.844,226.743,232.995,227.017,232.111z"/>
		</g>
		<g>
			<path style="fill:#1E1609;" d="M168.816,243.81c5.909-0.925,11.829-1.723,17.76-2.394c5.929-0.699,11.869-1.281,17.81-1.841
				c5.945-0.523,11.892-1.02,17.85-1.402c5.955-0.41,11.922-0.69,17.901-0.843c-5.908,0.927-11.828,1.727-17.76,2.397
				c-5.929,0.698-11.869,1.281-17.811,1.838c-5.945,0.52-11.893,1.018-17.85,1.399C180.761,243.373,174.794,243.655,168.816,243.81z
				"/>
		</g>
		<path style="fill:#FFFFFF;" d="M133.692,428.529c0,0-1.203,6.338,2.217,7.544c3.419,1.207,12.988-3.119,14.598-6.137
			c1.609-3.017,5.028-11.063,5.028-11.063s2.816,3.017,3.017,4.827c0.201,1.81,0.201,1.81,0.201,1.81v7.04l-6.034,2.213
			c0,0-1.207,6.839-3.419,9.051c-2.213,2.212-5.498,6.979-17.03,6.973c-4.028-0.002-5.613-5.865-4.205-10.491
			C129.017,437.165,133.692,428.529,133.692,428.529z"/>
		<g>
			<path style="fill:#1E1609;" d="M198.365,278.844c2.035,0.499,4.063,1.14,5.96,1.354c0.468,0.033,0.902,0.042,1.132-0.101
				c0.342-0.149,0.762-0.413,1.155-0.682c0.801-0.553,1.589-1.182,2.363-1.818c1.537-1.299,3.038-2.662,4.449-4.113
				c1.405-1.465,2.721-2.981,3.806-4.793c-0.299,2.111-1.366,4.081-2.608,5.794c-1.261,1.723-2.731,3.28-4.369,4.65
				c-0.834,0.672-1.683,1.324-2.637,1.88c-0.492,0.27-0.972,0.534-1.605,0.74c-0.751,0.258-1.4,0.095-1.941-0.022
				C201.887,281.154,200.08,280.094,198.365,278.844z"/>
		</g>
		<polygon style="fill:#FFFFFF;" points="168.357,158.852 170.15,236.609 236.881,231.331 230.175,155.865 217.042,151.075 
			183.643,152.025 		"/>
		<polygon style="fill:#F17353;" points="189.801,120.111 190.803,149.396 183.643,152.025 202.673,193.197 217.042,151.075 
			208.277,148.803 208.788,120.111 		"/>
		<path style="fill:#1E1609;" d="M208.788,143.204v-8.797h-12.078C196.711,134.406,197.022,143.204,208.788,143.204z"/>
		<path style="fill:#F17353;" d="M219.125,121.412c0,0.962-0.056,1.929-0.167,2.885c-0.267,2.318-0.856,4.575-1.773,6.566
			c-1.912,4.147-5.259,7.138-10.085,7.138c-8.094,0-17.301-2.318-17.301-16.589c0-8.167,6.566-14.788,14.665-14.788
			C212.559,106.624,219.125,111.249,219.125,121.412z"/>
		<path style="fill:#EB3F27;" d="M216.333,111.871c0,0-9.192-7.887-20.451-1.861c0,0,6.737,11.347-6.846,15.099
			c0,0-9.199-8.177-1.599-19.038C193.217,97.813,215.26,90.605,216.333,111.871z"/>
		<circle style="fill:#F17353;" cx="188.445" cy="126.159" r="4.802"/>
		<circle style="fill:#1E1609;" cx="205.37" cy="121.357" r="0.907"/>
		<path style="fill:#1E1609;" d="M216.046,121.357c0,0.501-0.406,0.907-0.907,0.907c-0.501,0-0.907-0.406-0.907-0.907
			c0-0.501,0.406-0.907,0.907-0.907C215.64,120.45,216.046,120.856,216.046,121.357z"/>
		<g>
			<path style="fill:#1E1609;" d="M210.85,124.451c0.549,0.178,1.031,0.475,1.461,0.85c0.422,0.384,0.836,0.815,1.001,1.552
				c0.031,0.186,0.037,0.385-0.044,0.629c-0.068,0.247-0.268,0.447-0.446,0.553c-0.374,0.201-0.695,0.222-0.998,0.208
				c-0.6-0.03-1.142-0.204-1.635-0.505c0.561-0.107,1.098-0.164,1.571-0.273c0.227-0.062,0.458-0.128,0.538-0.219
				c0.036-0.044,0.05-0.045,0.04-0.065c0.003-0.007,0.012-0.092-0.013-0.165c-0.044-0.328-0.33-0.781-0.599-1.201
				C211.445,125.385,211.136,124.948,210.85,124.451z"/>
		</g>
		<path style="fill:#E05E61;" d="M206.278,127.867c0,1.974-1.6,3.574-3.574,3.574c-1.974,0-3.574-1.6-3.574-3.574
			s1.6-3.574,3.574-3.574C204.677,124.294,206.278,125.894,206.278,127.867z"/>
		<path style="fill:#E05E61;" d="M218.958,124.297c-0.267,2.318-0.856,4.575-1.773,6.566c-0.984-0.634-1.635-1.74-1.635-2.997
			C215.55,125.948,217.062,124.38,218.958,124.297z"/>
		<path style="fill:#FFFFFF;" d="M210.19,132.524c-0.819,0.155-4.019,0.308-4.82,0c0,0,0.684,3.531,2.41,3.531
			C209.505,136.055,210.19,132.524,210.19,132.524z"/>
		<g>
			<path style="fill:#1E1609;" d="M188.867,123.703c-0.781,0.289-1.512,0.645-2.018,1.14c-0.497,0.494-0.677,1.135-0.556,1.806
				c0.074,0.644,0.49,1.108,1.187,1.37c0.682,0.266,1.489,0.373,2.32,0.448c-0.774,0.333-1.641,0.471-2.535,0.302
				c-0.447-0.074-0.908-0.277-1.285-0.63c-0.362-0.354-0.624-0.855-0.675-1.338c-0.18-0.93,0.237-2.057,1.053-2.562
				C187.138,123.721,188.036,123.587,188.867,123.703z"/>
		</g>
		<path style="fill:#F17353;" d="M314.453,186.944c2.151-3.06,2.54-5.215,1.126-5.316c-1.414-0.101-12.032,4.341-12.032,4.341
			s-9.411-3.586-10.615-3.196c-2.166,0.701-3.723,3.69-3.723,3.69l6.201,6.734c0,0,11.165-2.046,11.891-2.415
			C309.795,189.512,314.081,187.473,314.453,186.944z"/>
		<g>
			<path style="fill:#1E1609;" d="M175.937,155.29c-0.295,0.342-0.27,0.828-0.308,1.256c-0.01,0.442,0,0.884,0.029,1.326
				c0.056,0.883,0.142,1.765,0.238,2.646c0.201,1.761,0.457,3.516,0.736,5.268c0.571,3.501,1.186,6.999,1.843,10.48l-0.677-0.521
				l10.575-1.138c0.439-0.047,0.833,0.27,0.881,0.709c0.006,0.058,0.006,0.116,0,0.171l-0.003,0.027l-0.717,6.334l-0.877-0.993
				l5.592-0.053c0.286-0.003,0.542,0.125,0.713,0.329l0.011,0.013l9.473,11.42l-1.509-0.035l11.605-12.757l0.008-0.009
				c0.208-0.229,0.512-0.327,0.797-0.292l4.721,0.62l-0.972,1.079l-1.813-8.385l-0.005-0.023c-0.09-0.418,0.175-0.829,0.593-0.92
				c0.122-0.026,0.247-0.021,0.36,0.008l8.306,2.181l-0.781,0.657c-0.179-3.545-0.352-7.091-0.485-10.645
				c-0.143-3.553-0.302-7.106-0.396-10.671c0.411,3.526,0.756,7.064,1.116,10.603c0.371,3.538,0.702,7.082,1.027,10.629
				c0.031,0.342-0.22,0.644-0.562,0.675c-0.066,0.006-0.13,0.002-0.191-0.012l-0.029-0.007l-8.377-1.892l0.947-0.934l2.019,8.337
				c0.114,0.472-0.176,0.948-0.648,1.063c-0.102,0.025-0.203,0.03-0.302,0.02l-0.023-0.003l-4.732-0.53l0.805-0.301l-11.511,12.843
				c-0.366,0.409-0.994,0.443-1.403,0.077c-0.038-0.034-0.076-0.074-0.107-0.112l-9.38-11.496l0.723,0.341l-5.592-0.053l-0.018,0
				c-0.483-0.005-0.871-0.4-0.867-0.883c0-0.036,0.004-0.076,0.008-0.11l0.863-6.315l0.877,0.908l-10.608,0.778l-0.025,0.002
				c-0.322,0.024-0.605-0.208-0.652-0.523c-0.519-3.527-0.976-7.054-1.315-10.601c-0.173-1.772-0.324-3.547-0.42-5.327
				c-0.048-0.89-0.076-1.782-0.055-2.675c0.007-0.446,0.033-0.893,0.079-1.337C175.594,156.11,175.611,155.611,175.937,155.29z"/>
		</g>
		<path style="fill:#FFFFFF;" d="M168.357,158.852c0,0-8.711,0.763-13.694,4.158c-4.983,3.395-6.58,19.097-1.597,23.313
			l-4.152,15.73l21.752,11.455C170.665,213.509,174.002,164.715,168.357,158.852z"/>
		<path style="fill:#FFFFFF;" d="M230.175,155.865c0,0,9.018,0.202,14.001,3.597c4.983,3.395,6.58,19.097,1.597,23.313l4.152,15.73
			l-21.752,11.455C228.174,209.96,224.531,161.727,230.175,155.865z"/>
		<path style="fill:none;stroke:#332737;stroke-width:2;stroke-linecap:round;stroke-linejoin:round;stroke-miterlimit:10;" d="
			M177.646,203.194c3.154,3.08,7.53,3.702,11.446,2.635c3.916-1.067,7.456-3.642,10.765-6.459"/>
		<g>
			<path style="fill:#1E1609;" d="M220.967,203.8c3.257,0.185,6.582,0.492,9.399-0.67c1.394-0.57,2.576-1.448,3.355-2.654
				c0.808-1.182,1.237-2.639,1.442-4.145c0.236-1.51,0.231-3.088,0.167-4.675c-0.048-1.607-0.178-3.211-0.299-4.819
				c-0.271-3.215-0.702-6.421-1.16-9.672c1.262,3.032,2.138,6.223,2.708,9.469c0.532,3.243,0.995,6.523,0.562,9.982
				c-0.272,1.698-0.779,3.464-1.876,4.948c-1.089,1.476-2.693,2.565-4.386,3.034c-1.686,0.519-3.442,0.553-5.099,0.351
				C224.116,204.727,222.528,204.305,220.967,203.8z"/>
		</g>
		<g>
			<path style="fill:#1E1609;" d="M234.678,206.535c-0.429-0.418-0.658-0.829-0.844-1.244c-0.173-0.414-0.273-0.83-0.312-1.252
				c-0.039-0.421-0.013-0.848,0.083-1.286c0.11-0.44,0.26-0.887,0.615-1.374c0.475,0.367,0.741,0.776,0.947,1.194
				c0.197,0.419,0.309,0.851,0.346,1.289c0.038,0.438,0.003,0.883-0.115,1.33C235.266,205.639,235.082,206.09,234.678,206.535z"/>
		</g>
		<g>
			<path style="fill:#1E1609;" d="M153.066,186.324c0.9,1.068,1.595,2.236,2.206,3.441c0.608,1.208,1.132,2.456,1.526,3.766
				c0.193,0.658,0.372,1.319,0.476,2.027c0.06,0.342,0.083,0.721,0.111,1.088c-0.001,0.404,0.034,0.764-0.17,1.327
				c-0.188,0.462-0.522,0.896-1.043,1.099c-0.503,0.188-0.971,0.126-1.347,0.014c-0.751-0.264-1.311-0.705-1.759-1.25
				c0.67,0.169,1.336,0.33,1.904,0.278c0.276-0.014,0.507-0.095,0.605-0.21c0.088-0.09,0.16-0.263,0.159-0.422l-0.092-0.656
				c-0.068-0.292-0.122-0.576-0.222-0.882c-0.159-0.599-0.348-1.22-0.537-1.839c-0.377-1.241-0.741-2.507-1.067-3.796
				C153.488,189.023,153.202,187.712,153.066,186.324z"/>
		</g>
		<g>
			<path style="fill:#1E1609;" d="M168.357,158.852c0.518-0.252,1.011-0.233,1.463-0.138c0.449,0.109,0.857,0.336,1.192,0.648
				c0.657,0.615,1.087,1.619,0.632,2.647c-0.544-0.206-0.87-0.405-1.198-0.586c-0.307-0.19-0.562-0.38-0.8-0.6
				c-0.235-0.221-0.449-0.475-0.661-0.782C168.775,159.723,168.571,159.378,168.357,158.852z"/>
		</g>
		<g>
			<path style="fill:#1E1609;" d="M169.605,212.95c0.042-3.024,0.224-6.015,0.445-9.001c0.207-2.987,0.491-5.961,0.761-8.935
				c0.3-2.971,0.578-5.942,0.923-8.912c0.315-2.972,0.644-5.942,1.073-8.937c0.403,2.998,0.509,6.019,0.485,9.029
				c-0.029,3.012-0.224,6.016-0.491,9.01c-0.311,2.99-0.682,5.973-1.207,8.934C171.078,207.101,170.465,210.049,169.605,212.95z"/>
		</g>
		<g>
			<path style="fill:#1E1609;" d="M230.175,155.865c0.518,0.046,0.852,0.283,1.119,0.532c0.257,0.26,0.423,0.565,0.509,0.888
				c0.085,0.323,0.086,0.664-0.006,1.007c-0.103,0.344-0.275,0.688-0.665,1.023c-0.445-0.264-0.685-0.518-0.887-0.767
				c-0.19-0.251-0.312-0.499-0.377-0.758c-0.068-0.259-0.079-0.529-0.038-0.831C229.881,156.649,229.973,156.332,230.175,155.865z"
				/>
		</g>
		<g>
			<path style="fill:#1E1609;" d="M245.773,182.775c-0.201,1.173-0.357,2.236-0.498,3.318c-0.145,1.073-0.28,2.138-0.396,3.194
				c-0.104,1.039-0.23,2.137-0.174,3.038c0.015,0.093,0.009,0.24,0.031,0.292c0.011,0.077,0.032,0.169,0.013,0.165
				c-0.051,0.028,0.051,0.113,0.063,0.139c0.039,0.045-0.013,0.053,0.011,0.09c0.063,0.073,0.27-0.132,0.402-0.344
				c0.141-0.222,0.272-0.482,0.388-0.756c0.095,0.285,0.152,0.585,0.147,0.903c-0.025,0.311-0.023,0.683-0.454,1.052
				c-0.218,0.167-0.574,0.218-0.798,0.162c-0.254-0.052-0.416-0.093-0.647-0.282c-0.247-0.18-0.334-0.352-0.445-0.527
				c-0.127-0.19-0.161-0.33-0.233-0.502c-0.435-1.291-0.399-2.469-0.291-3.648c0.131-1.17,0.421-2.312,0.874-3.397
				C244.231,184.601,244.842,183.54,245.773,182.775z"/>
		</g>
		<path style="fill:#EB3F27;" d="M170.15,236.609"/>
		<g>
			<path style="fill:#1E1609;" d="M209.873,394.536c2.042-0.12,4.056-0.044,6.059,0.1c2.003,0.145,3.997,0.358,5.979,0.649
				c1.983,0.284,3.954,0.653,5.915,1.086c1.961,0.435,3.912,0.939,5.834,1.641c-2.043,0.122-4.056,0.048-6.06-0.097
				c-2.003-0.146-3.997-0.357-5.979-0.652c-1.982-0.288-3.954-0.655-5.915-1.089C213.747,395.739,211.796,395.236,209.873,394.536z"
				/>
		</g>
		<g>
			<path style="fill:#1E1609;" d="M142.294,392.838c2.363-0.414,4.725-0.63,7.088-0.777c2.363-0.16,4.725-0.202,7.088-0.222
				c2.363,0.018,4.726,0.06,7.088,0.219c2.363,0.147,4.725,0.364,7.088,0.78c-2.363,0.416-4.725,0.634-7.088,0.78
				c-2.363,0.159-4.725,0.202-7.088,0.219c-2.363-0.02-4.725-0.063-7.088-0.222C147.02,393.468,144.657,393.252,142.294,392.838z"/>
		</g>
		<g>
			<path style="fill:#1E1609;" d="M148.913,202.054c1.075,0.442,2.003,1.048,2.894,1.694c0.882,0.655,1.705,1.374,2.474,2.15
				c0.769,0.775,1.483,1.607,2.123,2.508c0.629,0.908,1.22,1.865,1.581,2.975c-1.985-1.159-3.591-2.55-5.125-4.077
				c-0.757-0.767-1.475-1.575-2.147-2.435C150.05,204.001,149.416,203.101,148.913,202.054z"/>
		</g>
		<g>
			<path style="fill:#1E1609;" d="M253.091,208.938c-0.001,0.664-0.116,1.191-0.265,1.701c-0.156,0.501-0.36,0.962-0.613,1.397
				c-0.248,0.438-0.552,0.843-0.911,1.231c-0.374,0.38-0.778,0.75-1.377,1.053c-0.166-0.646-0.128-1.221-0.024-1.768
				c0.11-0.545,0.313-1.051,0.582-1.519c0.273-0.466,0.617-0.893,1.037-1.261C251.952,209.413,252.436,209.085,253.091,208.938z"/>
		</g>
		<g>
			<path style="fill:#1E1609;" d="M249.938,116.208l0.01,0.081l6.223,65.438c0.152,1.597,1.493,2.817,3.097,2.817h96.429
				l-6.187-68.687c-0.091-0.95-0.887-1.674-1.842-1.674h-95.929C250.654,114.184,249.812,115.13,249.938,116.208z"/>
			
				<rect x="312.977" y="180.727" transform="matrix(-1 -1.224647e-16 1.224647e-16 -1 706.8105 365.2714)" style="fill:#48485C;" width="80.856" height="3.817"/>
			<path style="fill:#FFFFFF;" d="M253.582,116.208l0.01,0.081l6.144,64.438h99.605l-6.187-64.87
				c-0.091-0.95-0.887-1.674-1.842-1.674h-95.887C254.335,114.184,253.481,115.124,253.582,116.208z"/>
			<polygon style="fill:#48485C;" points="350.287,116.289 256.498,116.289 262.403,178.225 356.194,178.225 			"/>
			<polyline style="fill:none;stroke:#019AE6;stroke-width:2;stroke-miterlimit:10;" points="337.1,155.789 330.116,153.359 
				321.839,164.463 313.562,121.064 301.405,154.878 295.456,138.184 290.283,140.997 282.006,119.893 275.798,144.382 
				270.754,138.803 			"/>
			<polyline style="fill:none;stroke:#EB3F27;stroke-width:2;stroke-miterlimit:10;" points="344.186,150.321 332.807,134.016 
				318.176,153.867 306.797,139.884 302.733,143.597 293.521,123.714 285.935,144.065 274.691,135.042 			"/>
			
				<rect x="267.108" y="158.346" transform="matrix(-1 -1.224647e-16 1.224647e-16 -1 548.4092 318.7377)" style="fill:#019AE6;" width="14.194" height="2.046"/>
			
				<rect x="286.018" y="158.346" transform="matrix(-1 -1.224647e-16 1.224647e-16 -1 586.2292 318.7377)" style="fill:#EB3F27;" width="14.194" height="2.046"/>
			<rect x="327.939" y="118.782" style="fill:#FFFFFF;" width="18.321" height="13.03"/>
			<g>
				<path style="fill:#EB3F27;" d="M337.1,129.359c-2.24,0-4.062-1.822-4.062-4.062c0-2.24,1.822-4.062,4.062-4.062
					c2.24,0,4.062,1.822,4.062,4.062c0,0.291-0.037,0.572-0.095,0.846c0.24,0.137,0.483,0.267,0.733,0.39
					c0.104-0.395,0.164-0.808,0.164-1.235c0-2.682-2.182-4.864-4.864-4.864c-2.682,0-4.864,2.182-4.864,4.864
					s2.182,4.864,4.864,4.864c1.088,0,2.091-0.364,2.902-0.97c-0.18-0.198-0.362-0.395-0.547-0.591
					C338.79,129.076,337.978,129.359,337.1,129.359z"/>
				<path style="fill:#019AE6;" d="M341.066,126.143c-0.215,1.006-0.8,1.877-1.611,2.457c0.185,0.196,0.367,0.393,0.547,0.591
					c0.869-0.649,1.512-1.582,1.797-2.658C341.55,126.41,341.306,126.28,341.066,126.143z"/>
			</g>
			<rect x="267.072" y="163.025" style="fill:#FFFFFF;" width="36.663" height="12.266"/>
			<path style="fill:#F54555;" d="M268.626,173.71c0,0,1.434-2.813,2.476-2.875c1.621-0.096,2.386,1.467,3.151,1.437
				c2.476-0.096,2.791-3.066,5.177-3.066c1.268,0,2.461,3.21,4.142,3.21c1.981,0,2.836-4.6,4.308-4.6
				c1.471,0,1.861,2.683,3.188,2.779c1.327,0.096,2.092-3.45,4.253-3.498c2.161-0.048,3.63,3.928,6.861-2.876v9.873L268.626,173.71z
				"/>
			<path style="fill:#EB3F27;" d="M347.22,167.439c-2.255,0-2.936,5.937-4.833,7.852h4.833h4.833
				C350.156,173.376,349.475,167.439,347.22,167.439z"/>
			<path style="fill:#EB3F27;" d="M333.727,165.284c-2.255,0-2.936,7.567-4.833,10.008h4.833h4.833
				C336.662,172.851,335.982,165.284,333.727,165.284z"/>
			<path style="fill:#019AE6;" d="M340.473,161.281c-2.255,0-2.936,10.594-4.833,14.011h4.833h4.833
				C343.409,171.874,342.729,161.281,340.473,161.281z"/>
			<path style="fill:#019AE6;" d="M326.98,168.286c-2.255,0-2.936,5.297-4.833,7.005h4.833h4.833
				C329.915,173.583,329.235,168.286,326.98,168.286z"/>
			<path style="fill:#FFFFFF;" d="M337.835,155.789c0,0.406-0.329,0.735-0.735,0.735c-0.406,0-0.735-0.329-0.735-0.735
				c0-0.406,0.329-0.735,0.735-0.735C337.506,155.054,337.835,155.383,337.835,155.789z"/>
			<path style="fill:#FFFFFF;" d="M344.921,150.321c0,0.406-0.329,0.735-0.735,0.735c-0.406,0-0.735-0.329-0.735-0.735
				c0-0.406,0.329-0.735,0.735-0.735C344.592,149.587,344.921,149.916,344.921,150.321z"/>
		</g>
	</g>
</g>
</svg>
