<?xml version="1.0" encoding="utf-8"?>
<!-- Generator: Adobe Illustrator 27.5.0, SVG Export Plug-In . SVG Version: 6.00 Build 0)  -->
<svg version="1.1" xmlns="http://www.w3.org/2000/svg" xmlns:xlink="http://www.w3.org/1999/xlink" x="0px" y="0px"
	 viewBox="0 0 750 500" style="enable-background:new 0 0 750 500;" xml:space="preserve">
<g id="BACKGROUND">
	<rect style="fill:#D7D2FD;" width="750" height="500"/>
</g>
<g id="OBJECTS">
	<g>
		<defs>
			<rect id="SVGID_1_" width="750" height="500"/>
		</defs>
		<clipPath id="SVGID_00000121241042918143882690000006910445828895859361_">
			<use xlink:href="#SVGID_1_"  style="overflow:visible;"/>
		</clipPath>
		<g style="opacity:0.15;clip-path:url(#SVGID_00000121241042918143882690000006910445828895859361_);">
			<g>
				<g>
					<path style="fill:#D7D2FD;" d="M336.772-175.333c-20.282,24.293-42.717,46.82-66.615,67.536
						C222.691-66.634,169.588-32.659,113.776-4C73.261,16.802,30.917,35.767-8.296,59.435c0.653-1.342,1.326-2.673,2.016-4.002
						c39.993-23.777,83.01-42.891,124.134-64.256c55.188-28.67,107.689-62.85,154.417-104.011
						c21.797-19.202,42.337-39.95,61.069-62.185C334.483-175.135,335.632-175.235,336.772-175.333z"/>
				</g>
			</g>
			<g>
				<g>
					<path style="fill:#D7D2FD;" d="M225.734-150.408c-7.027,9.645-14.528,18.927-22.474,27.833
						c-36.145,40.491-81.076,72.964-130.603,95.091c-11.258,5.035-22.769,9.524-34.456,13.441c0.912-1.171,1.841-2.339,2.774-3.499
						c38.883-13.467,75.577-33.267,108.26-58.284c27.299-20.892,51.755-45.468,72.278-73.001
						C222.914-149.358,224.321-149.891,225.734-150.408z"/>
				</g>
			</g>
			<g>
				<g>
					<path style="fill:#D7D2FD;" d="M64.762,112.236C41.783,186.178,2.853,254.924-48.615,312.756
						c-0.152-1.047-0.302-2.086-0.455-3.133l-0.003-0.008c26.546-30.054,49.746-63.009,69.037-98.171
						c18.272-33.294,33.092-68.485,43.998-104.871c4.12-13.734,12.238-42.129-8.202-47.253c-8.517-2.133-17.306,2.969-23.943,7.789
						c-7.722,5.614-14.765,12.325-21.806,18.755c-16.495,15.061-32.208,30.964-47.052,47.631c0.535-1.89,1.081-3.767,1.652-5.651
						l-0.003-0.008c19.237-21.465,39.954-41.795,62.172-59.884c10.54-8.584,28.288-18.155,39.368-4.897
						C77.282,76.372,69.196,97.951,64.762,112.236z"/>
				</g>
			</g>
			<g>
				<g>
					<path style="fill:#D7D2FD;" d="M486.152-161.759c-3.058,3.277-6.132,6.534-9.215,9.786
						c-36.574,38.541-74.731,75.58-114.341,110.993c-13.616,12.173-29.432,28.306-48.953,29.24
						c-7.883,0.372-15.415-2.887-20.155-9.303c-5.496-7.437-5.109-17.198-2.612-25.689c2.919-9.919,8.368-18.977,14.562-27.18
						c8.352-11.086,16.907-22.018,25.485-32.931c16.836-21.426,33.985-42.595,51.443-63.517c1.768-2.12,3.544-4.242,5.323-6.357
						l0.008-0.003c1.022,0.034,2.039,0.078,3.056,0.122c-4.845,5.76-9.667,11.538-14.464,17.342
						c-16.706,20.202-33.13,40.645-49.262,61.306c-7.612,9.751-15.572,19.376-22.616,29.545c-6.2,8.945-11.905,19.521-12.793,30.566
						c-0.827,10.422,4.773,20.485,15.342,23.1c8.933,2.21,18.493-1.612,26.159-5.959c9.006-5.113,16.599-12.044,24.295-18.89
						c9.556-8.502,19.014-17.093,28.4-25.778c33.694-31.2,66.287-63.597,97.692-97.114
						C484.387-162.249,485.272-162.009,486.152-161.759z"/>
				</g>
			</g>
			<g>
				<g>
					<path style="fill:#D7D2FD;" d="M535.378-144.981c-21.428,20.314-43.792,39.733-65.997,59.118
						c-30.82,26.911-62.107,53.269-93.699,79.267C311.926,45.857,246.962,96.815,182.094,147.886
						c-31.788,25.024-63.635,50-95.137,75.382c-25.803,20.79-51.221,42.134-74.968,65.282
						c-19.278,18.793-37.564,38.997-53.468,60.783c-0.255-1.073-0.509-2.146-0.764-3.219c18.933-25.572,41.13-48.914,64.293-70.479
						c23.686-22.049,48.728-42.592,74.009-62.762c31.868-25.433,63.909-50.65,95.941-75.864
						c64.633-50.876,129.3-101.729,192.681-154.162c31.827-26.32,63.327-53.044,94.311-80.341
						c18.089-15.934,36.371-31.855,53.973-48.456c0,0,0,0,0.007-0.003C533.773-145.634,534.576-145.308,535.378-144.981z"/>
				</g>
			</g>
			<g>
				<g>
					<path style="fill:#D7D2FD;" d="M592.92-116.158c-41.997,37.172-81.705,76.949-118.9,118.945
						c-49.803,56.23-95.115,116.433-135.468,179.795c-40.41,63.474-75.882,130.097-105.942,199.078
						c-30.005,68.861-54.636,140.066-73.41,212.797c-1.835,7.104-3.614,14.223-5.338,21.35c-0.728-0.435-1.455-0.871-2.175-1.309
						c3.894-16.107,8.085-32.141,12.548-48.092c20.309-72.532,46.413-143.441,77.871-211.882
						c31.43-68.371,68.184-134.288,109.851-196.955c41.7-62.72,88.296-122.184,139.373-177.553
						c31.486-34.13,64.675-66.678,99.432-97.457C591.486-117.018,592.203-116.588,592.92-116.158z"/>
				</g>
			</g>
			<g>
				<g>
					<path style="fill:#D7D2FD;" d="M156.6,356.048c5.005,20.283,2.172,41.891-0.209,62.352
						c-2.717,23.356-6.644,46.569-11.752,69.519c-7.635,34.314-17.923,68.019-30.706,100.765c-0.674-0.504-1.341-1.018-1.994-1.537
						c14.149-36.367,25.208-73.908,32.974-112.165c4.405-21.66,7.757-43.531,10.035-65.512c2.109-20.304,4.47-42.635-3.705-61.975
						c-7.873-18.648-25.943-27.361-45.55-24.963c-18.57,2.266-35.431,11.77-50.903,21.732
						c-28.364,18.264-54.311,40.103-77.249,64.747c-0.333-0.844-0.664-1.68-0.996-2.523c13.378-14.271,27.76-27.593,43.013-39.829
						c16.048-12.877,33.132-25.282,51.402-34.818c14.999-7.829,32.541-14.265,49.719-11.602
						C139.61,323.175,152.154,338.065,156.6,356.048z"/>
				</g>
			</g>
			<g>
				<g>
					<path style="fill:#D7D2FD;" d="M86.956,453.473c3.035,13.266,2.744,27.253,1.706,40.743
						c-0.925,12.085-2.81,24.091-5.669,35.869c-2.071,8.549-4.645,16.962-7.703,25.193c-0.634-0.618-1.27-1.245-1.899-1.874
						c3.373-9.225,6.142-18.689,8.266-28.308c2.577-11.627,4.228-23.463,4.885-35.352c0.728-13.033,0.803-26.61-2.853-39.249
						c-3.311-11.468-10.261-22.394-21.06-28.077c-11.015-5.801-23.493-3.955-34.153,1.668C17.858,429.68,9.13,438.245,1.292,447.194
						c-1.301,1.492-2.589,2.997-3.854,4.521c-0.456-0.855-0.911-1.71-1.369-2.573c11.725-14.389,26.023-27.998,43.638-31.875
						C63.834,411.959,81.938,431.605,86.956,453.473z"/>
				</g>
			</g>
			<g>
				<g>
					<path style="fill:#D7D2FD;" d="M720.445,1.107c-37.138,43.456-77.447,84.236-118.706,123.735
						c-62.867,60.177-127.79,118.31-187.708,181.499c-59.251,62.497-114.02,130.483-153.332,207.486
						c-21.101,41.315-37.768,86.427-45.023,132.607c-0.818-0.321-1.628-0.645-2.433-0.979
						c8.503-53.519,29.652-105.403,55.759-152.326c41.965-75.424,97.864-141.941,157.832-203.617
						c60.604-62.333,125.659-120.084,187.993-180.649C650.97,73.742,686.227,37.456,718.991-0.912
						C719.479-0.245,719.962,0.431,720.445,1.107z"/>
				</g>
			</g>
			<g>
				<g>
					<path style="fill:#D7D2FD;" d="M750.156,48.973c-32.257,35.212-62.643,72.136-91.036,110.539
						c-38.158,51.604-72.706,105.879-103.406,162.245c-30.55,56.096-57.29,114.271-79.958,173.998
						c-22.075,58.15-40.27,117.785-54.37,178.361c-0.852,0.098-1.706,0.188-2.559,0.286c1.317-5.687,2.672-11.36,4.063-17.029
						c15.255-62.124,34.831-123.184,58.438-182.638c23.729-59.756,51.546-117.889,83.199-173.859
						c31.596-55.858,67.016-109.565,105.995-160.552c24.729-32.354,50.899-63.595,78.421-93.601
						C749.352,47.466,749.758,48.218,750.156,48.973z"/>
				</g>
			</g>
			<g>
				<g>
					<path style="fill:#D7D2FD;" d="M389.682,599.561c-2.546,25.875-7.098,51.747-12.973,77.257
						c-0.89,0.008-1.782,0.008-2.674,0.009c1.594-7.111,3.097-14.243,4.49-21.399c3.786-19.403,7.509-39.21,9.012-58.944
						c0.735-9.526,0.311-19.482-4.299-28.065c-4.376-8.149-12.264-14.157-21.806-13.867c-17.787,0.542-31.335,18.165-41.454,30.827
						c-19.165,23.99-34.187,51.141-44.584,79.953c-0.791-0.186-1.584-0.379-2.37-0.574c0.659-1.845,1.339-3.68,2.044-5.515
						c12.5-32.595,31.031-64.333,55.279-89.632c10.717-11.182,27.677-23.318,43.468-14.503
						C389.524,563.882,391.249,583.563,389.682,599.561z"/>
				</g>
			</g>
			<g>
				<g>
					<path style="fill:#D7D2FD;" d="M800.451,245.772c0.013,1.169,0.017,2.331,0.015,3.505l0.003,0.008
						c-18.44,19.337-38.156,37.566-57.981,55.483c-45.202,40.863-91.264,81.247-126.839,131.148
						c-31.875,44.698-55.76,95.064-70.694,147.882c-5.812,20.545-10.255,41.46-13.282,62.572c-0.872,0.351-1.739,0.691-2.616,1.026
						c3.84-27.229,10.021-54.13,18.407-80.31c16.313-50.893,40.943-99.122,73.03-141.884
						c37.092-49.441,84.459-89.416,129.876-130.849C767.55,278.685,784.495,262.655,800.451,245.772z"/>
				</g>
			</g>
			<g>
				<g>
					<path style="fill:#D7D2FD;" d="M705.265,276.323c38.721-20.178,66.971-53.206,90.457-89.551
						c0.172,1.159,0.344,2.319,0.505,3.473c-8.029,12.239-16.628,24.085-26.067,35.303c-11.174,13.285-23.572,25.598-37.397,36.131
						c-12.64,9.631-27.37,19.547-42.969,23.51c-12.044,3.056-27.082,1.831-32.241-11.434c-3.08-7.898-1.035-16.948,1.579-24.661
						c2.829-8.335,6.393-16.475,9.955-24.514C692.5,171.63,725.462,123.104,765.82,81.689c0.336,0.8,0.677,1.59,1.013,2.39
						c-16.634,17.12-31.991,35.482-45.935,54.874c-20.134,28.001-37.266,58.155-50.996,89.789c-3.504,8.087-7.244,16.31-9.62,24.813
						c-2.485,8.844-3.333,19.672,4.412,26.262C676.04,289.469,693.962,282.214,705.265,276.323z"/>
				</g>
			</g>
			<g>
				<g>
					<path style="fill:#D7D2FD;" d="M793.094,328.744c-0.209,1.139-0.433,2.282-0.664,3.428l0.002,0.008
						c-6.898,4.956-13.625,10.154-20.19,15.562c-40.56,33.451-74.464,74.958-99.494,121.167
						c-20.661,38.139-35.217,79.49-42.555,122.189l-0.008,0.002c-0.944,0.706-1.88,1.409-2.834,2.109
						c3.51-21.327,8.81-42.351,15.803-62.82c16.947-49.595,43.563-95.809,77.693-135.571
						C742.169,369.983,766.443,347.702,793.094,328.744z"/>
				</g>
			</g>
			<g>
				<g>
					<path style="fill:#D7D2FD;" d="M767.121,415.068c-0.675,1.612-1.366,3.229-2.069,4.834c-1.078,0.919-2.152,1.853-3.215,2.793
						c-35.403,31.355-61.804,72.493-75.44,117.675c-1.228,1.325-2.45,2.638-3.693,3.942c1.893-6.791,4.078-13.498,6.553-20.121
						C705.062,481.798,732.227,443.776,767.121,415.068z"/>
				</g>
			</g>
		</g>
		<g style="clip-path:url(#SVGID_00000121241042918143882690000006910445828895859361_);">
			<g>
				<path style="fill:#E4E1FF;" d="M117.374,149.983l7.146-33.622l-24.013-5.104c-0.614-5.001-1.882-9.801-3.725-14.31
					l19.321-15.646L94.471,54.588L74.683,70.612c-3.95-2.497-8.226-4.519-12.756-5.978v-25.57H27.554v25.57
					c-5.468,1.76-10.568,4.341-15.166,7.59L-8.187,57.276l-20.204,27.809l20.064,14.577c-1.608,4.605-2.629,9.479-2.982,14.537
					l-23.653,6.338l8.897,33.202l22.96-6.152c2.769,4.483,6.145,8.553,10.021,12.086l-9.565,21.483l31.402,13.981l9.434-21.189
					c2.152,0.251,4.336,0.394,6.553,0.394c3.247,0,6.425-0.292,9.523-0.823l10.534,20.674l30.627-15.605L84.725,157.59
					c3.669-3.718,6.827-7.941,9.354-12.558L117.374,149.983z M12.146,118.14c0-17.973,14.622-32.594,32.594-32.594
					c17.973,0,32.595,14.622,32.595,32.594c0,17.973-14.621,32.595-32.595,32.595C26.768,150.735,12.146,136.113,12.146,118.14z"/>
			</g>
			<g>
				<path style="fill:#E4E1FF;" d="M508.763,454.123l7.146-33.622l-24.013-5.104c-0.614-5.001-1.882-9.801-3.725-14.31
					l19.321-15.646l-21.632-26.713l-19.788,16.024c-3.95-2.497-8.226-4.519-12.756-5.978v-25.57h-34.373v25.57
					c-5.468,1.76-10.568,4.341-15.166,7.59l-20.576-14.949l-20.204,27.809l20.064,14.578c-1.608,4.605-2.629,9.479-2.982,14.537
					l-23.653,6.338l8.897,33.202l22.96-6.152c2.769,4.483,6.145,8.553,10.021,12.086l-9.565,21.483l31.402,13.981l9.434-21.189
					c2.152,0.251,4.336,0.394,6.553,0.394c3.247,0,6.425-0.292,9.523-0.823l10.534,20.674l30.627-15.605l-10.699-20.999
					c3.669-3.718,6.828-7.94,9.355-12.558L508.763,454.123z M403.535,422.279c0-17.973,14.622-32.595,32.594-32.595
					c17.973,0,32.594,14.622,32.594,32.595c0,17.973-14.621,32.595-32.594,32.595C418.157,454.874,403.535,440.252,403.535,422.279z
					"/>
			</g>
			<g>
				<path style="fill:#E4E1FF;" d="M544.709,19.677l7.146-33.622l-24.013-5.104c-0.614-5.001-1.882-9.801-3.725-14.31l19.321-15.646
					l-21.632-26.713l-19.788,16.024c-3.95-2.497-8.226-4.519-12.756-5.978v-25.57h-34.373v25.57
					c-5.468,1.76-10.568,4.341-15.166,7.59l-20.576-14.949l-20.204,27.809l20.064,14.577c-1.608,4.605-2.629,9.479-2.982,14.537
					L392.373-9.77l8.897,33.202l22.96-6.152c2.769,4.483,6.145,8.553,10.021,12.086l-9.565,21.483l31.402,13.981l9.434-21.189
					c2.152,0.251,4.336,0.394,6.553,0.394c3.247,0,6.425-0.292,9.523-0.823l10.534,20.674l30.627-15.605L512.06,27.283
					c3.669-3.718,6.828-7.941,9.354-12.558L544.709,19.677z M439.481-12.167c0-17.973,14.622-32.595,32.594-32.595
					c17.973,0,32.594,14.622,32.594,32.595c0,17.973-14.621,32.595-32.594,32.595C454.103,20.428,439.481,5.806,439.481-12.167z"/>
			</g>
			<g>
				<g>
					<g>
						<g>
							<path style="fill:#E4E1FF;" d="M119.181,243.454H78.937c-1.238,0-2.241-1.003-2.241-2.241v-15.654
								c0-1.238,1.003-2.241,2.241-2.241h40.244c1.238,0,2.241,1.003,2.241,2.241v15.654
								C121.422,242.451,120.419,243.454,119.181,243.454z"/>
						</g>
					</g>
				</g>
				<g>
					<g>
						<g>
							<path style="fill:#E4E1FF;" d="M167.006,243.454h-40.244c-1.238,0-2.241-1.003-2.241-2.241v-15.654
								c0-1.238,1.004-2.241,2.241-2.241h40.244c1.238,0,2.241,1.003,2.241,2.241v15.654
								C169.247,242.451,168.243,243.454,167.006,243.454z"/>
						</g>
					</g>
				</g>
				<g>
					<g>
						<g>
							<path style="fill:#E4E1FF;" d="M142.883,265.914h-40.244c-1.238,0-2.241-1.004-2.241-2.241v-15.654
								c0-1.238,1.003-2.241,2.241-2.241h40.244c1.238,0,2.241,1.003,2.241,2.241v15.654
								C145.124,264.91,144.121,265.914,142.883,265.914z"/>
						</g>
					</g>
				</g>
			</g>
			<g>
				<g>
					<g>
						<g>
							<path style="fill:#E4E1FF;" d="M580.701,98.713h-40.244c-1.238,0-2.241-1.003-2.241-2.241V80.818
								c0-1.238,1.003-2.241,2.241-2.241h40.244c1.238,0,2.241,1.003,2.241,2.241v15.654
								C582.942,97.71,581.939,98.713,580.701,98.713z"/>
						</g>
					</g>
				</g>
				<g>
					<g>
						<g>
							<path style="fill:#E4E1FF;" d="M628.526,98.713h-40.244c-1.238,0-2.241-1.003-2.241-2.241V80.818
								c0-1.238,1.003-2.241,2.241-2.241h40.244c1.238,0,2.241,1.003,2.241,2.241v15.654
								C630.767,97.71,629.763,98.713,628.526,98.713z"/>
						</g>
					</g>
				</g>
				<g>
					<g>
						<g>
							<path style="fill:#E4E1FF;" d="M604.403,121.173h-40.244c-1.238,0-2.241-1.004-2.241-2.241v-15.654
								c0-1.238,1.004-2.241,2.241-2.241h40.244c1.238,0,2.241,1.003,2.241,2.241v15.654
								C606.644,120.17,605.641,121.173,604.403,121.173z"/>
						</g>
					</g>
				</g>
			</g>
			<g>
				<g>
					<g>
						<g>
							<path style="fill:#E4E1FF;" d="M714.013,404.915h40.244c1.238,0,2.241,1.004,2.241,2.241v15.654
								c0,1.238-1.003,2.241-2.241,2.241h-40.244c-1.238,0-2.241-1.003-2.241-2.241v-15.654
								C711.772,405.919,712.775,404.915,714.013,404.915z"/>
						</g>
					</g>
				</g>
				<g>
					<g>
						<g>
							<path style="fill:#E4E1FF;" d="M666.189,404.915h40.244c1.238,0,2.241,1.004,2.241,2.241v15.654
								c0,1.238-1.004,2.241-2.241,2.241h-40.244c-1.238,0-2.241-1.003-2.241-2.241v-15.654
								C663.947,405.919,664.951,404.915,666.189,404.915z"/>
						</g>
					</g>
				</g>
				<g>
					<g>
						<g>
							<path style="fill:#E4E1FF;" d="M690.311,382.455h40.244c1.238,0,2.241,1.003,2.241,2.241v15.654
								c0,1.238-1.003,2.241-2.241,2.241h-40.244c-1.238,0-2.241-1.003-2.241-2.241v-15.654
								C688.07,383.459,689.073,382.455,690.311,382.455z"/>
						</g>
					</g>
				</g>
			</g>
		</g>
		<g style="clip-path:url(#SVGID_00000121241042918143882690000006910445828895859361_);">
			<g>
				<g>
					<g>
						<path style="fill:#00184C;" d="M573.482,143.392l11.496,237.998c0.298,6.171-3.894,11.366-9.171,11.366h-28.301
							L573.482,143.392z"/>
					</g>
				</g>
				<g>
					<g>
						<path style="fill:#FFFFFF;" d="M573.597,120.664v264.135c0,4.538-3.422,8.219-7.641,8.219H172.649
							c-4.22,0-7.641-3.68-7.641-8.219V120.664c0-4.541,3.421-8.222,7.641-8.222h393.307
							C570.175,112.443,573.597,116.123,573.597,120.664z"/>
					</g>
				</g>
				<g>
					<g>
						<g>
							<g>
								<rect x="191.211" y="175.056" style="fill:#00184C;" width="46.679" height="45.229"/>
							</g>
						</g>
						<g>
							<g>
								<g>
									<path style="fill:#FFFFFF;" d="M209.032,207.808c-0.1,0-0.201-0.01-0.301-0.03c-0.505-0.1-0.939-0.444-1.177-0.934
										l-3.353-6.9c-0.427-0.878-0.111-1.962,0.706-2.421c0.816-0.459,1.824-0.12,2.251,0.759l2.364,4.865l15.801-15.083
										c0.689-0.658,1.743-0.59,2.355,0.151c0.611,0.741,0.549,1.875-0.14,2.533l-17.398,16.607
										C209.832,207.65,209.437,207.808,209.032,207.808z"/>
								</g>
							</g>
						</g>
						<g>
							<g>
								<rect x="243.098" y="175.056" style="fill:#E0DCFD;" width="46.679" height="45.229"/>
							</g>
						</g>
						<g>
							<g>
								<rect x="294.985" y="175.056" style="fill:#E0DCFD;" width="46.679" height="45.229"/>
							</g>
						</g>
						<g>
							<g>
								<g>
									<path style="fill:#00184C;" d="M336.791,181.6h-36.934c-0.723,0-1.309-0.586-1.309-1.31v-0.738
										c0-0.723,0.586-1.31,1.309-1.31h36.933c0.723,0,1.31,0.586,1.31,1.31v0.738C338.101,181.013,337.514,181.6,336.791,181.6z"
										/>
								</g>
							</g>
							<g>
								<g>
									<path style="fill:#00184C;" d="M321.896,185.685h-21.721c-0.855,0-1.6,0.708-1.625,1.627
										c-0.027,0.951,0.682,1.73,1.56,1.73h21.787c0.862,0,1.561-0.752,1.561-1.679l0,0
										C323.456,186.437,322.758,185.685,321.896,185.685z"/>
								</g>
							</g>
						</g>
						<g>
							<g>
								<rect x="346.872" y="175.056" style="fill:#E0DCFD;" width="46.679" height="45.229"/>
							</g>
						</g>
						<g>
							<g>
								<rect x="398.759" y="175.056" style="fill:#E0DCFD;" width="46.679" height="45.229"/>
							</g>
						</g>
						<g>
							<g>
								<g>
									<path style="fill:#00184C;" d="M440.314,183.643h-36.431c-0.862,0-1.561-0.752-1.561-1.679l0,0
										c0-0.927,0.699-1.679,1.561-1.679h36.431c0.862,0,1.561,0.752,1.561,1.679l0,0
										C441.875,182.891,441.176,183.643,440.314,183.643z"/>
								</g>
							</g>
							<g>
								<g>
									<path style="fill:#00184C;" d="M425.67,187.728h-21.721c-0.855,0-1.6,0.708-1.625,1.627c-0.027,0.951,0.682,1.73,1.56,1.73
										h21.787c0.862,0,1.561-0.752,1.561-1.679l0,0C427.231,188.48,426.532,187.728,425.67,187.728z"/>
								</g>
							</g>
						</g>
						<g>
							<g>
								<rect x="450.646" y="175.056" style="fill:#E0DCFD;" width="46.679" height="45.229"/>
							</g>
						</g>
						<g>
							<g>
								<rect x="502.534" y="175.056" style="fill:#E0DCFD;" width="46.679" height="45.229"/>
							</g>
						</g>
					</g>
					<g>
						<g>
							<g>
								<rect x="191.211" y="224.904" style="fill:#E0DCFD;" width="46.679" height="45.229"/>
							</g>
						</g>
						<g>
							<g>
								<rect x="243.098" y="224.904" style="fill:#E0DCFD;" width="46.679" height="45.229"/>
							</g>
						</g>
						<g>
							<g>
								<path style="fill:#00184C;" d="M284.671,232.661h-36.431c-0.862,0-1.561-0.752-1.561-1.679l0,0
									c0-0.927,0.699-1.679,1.561-1.679h36.431c0.862,0,1.561,0.752,1.561,1.679l0,0
									C286.231,231.909,285.533,232.661,284.671,232.661z"/>
							</g>
						</g>
						<g>
							<g>
								<rect x="294.985" y="224.904" style="fill:#E0DCFD;" width="46.679" height="45.229"/>
							</g>
						</g>
						<g>
							<g>
								<g>
									<path style="fill:#00184C;" d="M362.28,209.602c-0.1,0-0.201-0.01-0.301-0.029c-0.505-0.1-0.939-0.444-1.177-0.933
										l-3.353-6.9c-0.427-0.878-0.111-1.962,0.706-2.421c0.816-0.459,1.824-0.119,2.251,0.759l2.365,4.866l15.801-15.083
										c0.689-0.658,1.743-0.59,2.355,0.151c0.611,0.741,0.549,1.875-0.14,2.533l-17.398,16.607
										C363.08,209.444,362.685,209.602,362.28,209.602z"/>
								</g>
							</g>
						</g>
						<g>
							<g>
								<rect x="346.872" y="224.904" style="fill:#FFAC00;" width="46.679" height="45.229"/>
							</g>
						</g>
						<g>
							<g>
								<path style="fill:#D1821F;" d="M388.427,232.661h-36.431c-0.862,0-1.561-0.752-1.561-1.679l0,0
									c0-0.927,0.699-1.679,1.561-1.679h36.431c0.862,0,1.561,0.752,1.561,1.679l0,0
									C389.988,231.909,389.289,232.661,388.427,232.661z"/>
							</g>
						</g>
						<g>
							<g>
								<rect x="398.759" y="224.904" style="fill:#00184C;" width="46.679" height="45.229"/>
							</g>
						</g>
						<g>
							<g>
								<g>
									<path d="M440.314,232.661h-36.431c-0.862,0-1.561-0.752-1.561-1.679l0,0c0-0.927,0.699-1.679,1.561-1.679h36.431
										c0.862,0,1.561,0.752,1.561,1.679l0,0C441.875,231.909,441.176,232.661,440.314,232.661z"/>
								</g>
							</g>
							<g>
								<g>
									<path d="M425.67,236.747h-21.721c-0.855,0-1.6,0.708-1.625,1.627c-0.027,0.951,0.682,1.73,1.56,1.73h21.787
										c0.862,0,1.561-0.751,1.561-1.679l0,0C427.231,237.499,426.532,236.747,425.67,236.747z"/>
								</g>
							</g>
						</g>
						<g>
							<g>
								<rect x="450.646" y="224.904" style="fill:#E0DCFD;" width="46.679" height="45.229"/>
							</g>
						</g>
						<g>
							<g>
								<rect x="502.534" y="224.904" style="fill:#E0DCFD;" width="46.679" height="45.229"/>
							</g>
						</g>
						<g>
							<g>
								<g>
									<path style="fill:#00184C;" d="M543.531,233.096h-36.431c-0.862,0-1.561-0.752-1.561-1.679l0,0
										c0-0.927,0.699-1.679,1.561-1.679h36.431c0.862,0,1.561,0.751,1.561,1.679l0,0
										C545.091,232.345,544.393,233.096,543.531,233.096z"/>
								</g>
							</g>
							<g>
								<g>
									<path style="fill:#00184C;" d="M528.886,237.182h-21.722c-0.854,0-1.6,0.708-1.625,1.627
										c-0.027,0.951,0.682,1.73,1.56,1.73h21.787c0.862,0,1.561-0.752,1.561-1.679l0,0
										C530.447,237.934,529.748,237.182,528.886,237.182z"/>
								</g>
							</g>
						</g>
					</g>
					<g>
						<g>
							<g>
								<rect x="191.211" y="274.752" style="fill:#E0DCFD;" width="46.679" height="45.229"/>
							</g>
						</g>
						<g>
							<g>
								<rect x="243.098" y="274.752" style="fill:#1574DD;" width="46.679" height="45.229"/>
							</g>
						</g>
						<g>
							<g>
								<g>
									<path style="fill:#FFFFFF;" d="M259.433,307.464c-0.1,0-0.201-0.01-0.301-0.03c-0.505-0.1-0.939-0.444-1.177-0.933
										l-3.353-6.9c-0.427-0.878-0.111-1.962,0.706-2.421c0.816-0.459,1.824-0.119,2.251,0.759l2.365,4.865l15.801-15.083
										c0.689-0.658,1.743-0.59,2.354,0.151c0.612,0.741,0.549,1.875-0.14,2.533l-17.398,16.607
										C260.232,307.305,259.837,307.464,259.433,307.464z"/>
								</g>
							</g>
						</g>
						<g>
							<g>
								<rect x="294.985" y="274.752" style="fill:#E0DCFD;" width="46.679" height="45.229"/>
							</g>
						</g>
						<g>
							<g>
								<rect x="346.872" y="274.752" style="fill:#E0DCFD;" width="46.679" height="45.229"/>
							</g>
						</g>
						<g>
							<g>
								<rect x="398.759" y="274.752" style="fill:#E0DCFD;" width="46.679" height="45.229"/>
							</g>
						</g>
						<g>
							<g>
								<rect x="450.646" y="274.752" style="fill:#E0DCFD;" width="46.679" height="45.229"/>
							</g>
						</g>
						<g>
							<g>
								<path style="fill:#00184C;" d="M492.202,282.4h-36.431c-0.862,0-1.561-0.752-1.561-1.679l0,0
									c0-0.927,0.699-1.679,1.561-1.679h36.431c0.862,0,1.56,0.751,1.56,1.679l0,0C493.762,281.648,493.064,282.4,492.202,282.4z"
									/>
							</g>
						</g>
						<g>
							<g>
								<rect x="502.534" y="274.752" style="fill:#7040BF;" width="46.679" height="45.229"/>
							</g>
						</g>
						<g>
							<g>
								<g>
									<path style="fill:#FFFFFF;" d="M518.851,307.464c-0.1,0-0.201-0.01-0.301-0.03c-0.505-0.1-0.939-0.444-1.177-0.933
										l-3.353-6.9c-0.427-0.878-0.111-1.962,0.706-2.421c0.816-0.459,1.824-0.119,2.251,0.759l2.365,4.865l15.801-15.083
										c0.689-0.658,1.743-0.59,2.354,0.151c0.612,0.741,0.549,1.875-0.14,2.533l-17.398,16.607
										C519.65,307.305,519.256,307.464,518.851,307.464z"/>
								</g>
							</g>
						</g>
					</g>
					<g>
						<g>
							<g>
								<rect x="191.211" y="324.599" style="fill:#7040BF;" width="46.679" height="45.229"/>
							</g>
						</g>
						<g>
							<g>
								<rect x="243.098" y="324.599" style="fill:#E0DCFD;" width="46.679" height="45.229"/>
							</g>
						</g>
						<g>
							<g>
								<rect x="294.985" y="324.599" style="fill:#E0DCFD;" width="46.679" height="45.229"/>
							</g>
						</g>
						<g>
							<g>
								<g>
									<path style="fill:#00184C;" d="M312.425,356.468c-0.1,0-0.201-0.01-0.301-0.03c-0.505-0.1-0.939-0.444-1.177-0.933
										l-3.353-6.9c-0.427-0.878-0.111-1.962,0.706-2.421c0.816-0.459,1.824-0.119,2.251,0.759l2.365,4.866l15.801-15.083
										c0.689-0.658,1.743-0.59,2.355,0.151c0.612,0.741,0.549,1.875-0.14,2.533l-17.398,16.607
										C313.224,356.31,312.83,356.468,312.425,356.468z"/>
								</g>
							</g>
						</g>
						<g>
							<g>
								<rect x="346.872" y="324.599" style="fill:#E0DCFD;" width="46.679" height="45.229"/>
							</g>
						</g>
						<g>
							<g>
								<g>
									<path style="fill:#00184C;" d="M388.427,332.187h-36.431c-0.862,0-1.561-0.751-1.561-1.679l0,0
										c0-0.927,0.699-1.679,1.561-1.679h36.431c0.862,0,1.561,0.751,1.561,1.679l0,0
										C389.988,331.436,389.289,332.187,388.427,332.187z"/>
								</g>
							</g>
							<g>
								<g>
									<path style="fill:#00184C;" d="M373.783,336.273h-21.721c-0.854,0-1.6,0.708-1.625,1.627
										c-0.027,0.951,0.682,1.73,1.56,1.73h21.787c0.862,0,1.561-0.752,1.561-1.679l0,0
										C375.344,337.025,374.645,336.273,373.783,336.273z"/>
								</g>
							</g>
						</g>
						<g>
							<g>
								<rect x="398.759" y="324.599" style="fill:#E0DCFD;" width="46.679" height="45.229"/>
							</g>
						</g>
						<g>
							<g>
								<path style="fill:#00184C;" d="M440.314,332.187h-36.431c-0.862,0-1.561-0.751-1.561-1.679l0,0
									c0-0.927,0.699-1.679,1.561-1.679h36.431c0.862,0,1.561,0.751,1.561,1.679l0,0
									C441.875,331.436,441.176,332.187,440.314,332.187z"/>
							</g>
						</g>
						<g>
							<g>
								<path style="fill:#00184C;" d="M440.314,338.811h-36.431c-0.862,0-1.561-0.751-1.561-1.679l0,0
									c0-0.927,0.699-1.679,1.561-1.679h36.431c0.862,0,1.561,0.752,1.561,1.679l0,0
									C441.875,338.06,441.176,338.811,440.314,338.811z"/>
							</g>
						</g>
						<g>
							<g>
								<rect x="450.646" y="324.599" style="fill:#E0DCFD;" width="46.679" height="45.229"/>
							</g>
						</g>
						<g>
							<g>
								<rect x="502.534" y="324.599" style="fill:#E0DCFD;" width="46.679" height="45.229"/>
							</g>
						</g>
						<g>
							<g>
								<g>
									<path style="fill:#00184C;" d="M543.531,332.187h-36.431c-0.862,0-1.561-0.751-1.561-1.679l0,0
										c0-0.927,0.699-1.679,1.561-1.679h36.431c0.862,0,1.561,0.751,1.561,1.679l0,0
										C545.091,331.436,544.393,332.187,543.531,332.187z"/>
								</g>
							</g>
							<g>
								<g>
									<path style="fill:#00184C;" d="M528.886,336.273h-21.722c-0.854,0-1.6,0.708-1.625,1.627
										c-0.027,0.951,0.682,1.73,1.56,1.73h21.787c0.862,0,1.561-0.752,1.561-1.679l0,0
										C530.447,337.025,529.748,336.273,528.886,336.273z"/>
								</g>
							</g>
						</g>
					</g>
				</g>
				<g>
					<g>
						<rect x="191.211" y="162.184" style="fill:#7040BF;" width="46.679" height="8.252"/>
					</g>
				</g>
				<g>
					<g>
						<rect x="243.098" y="162.184" style="fill:#FFAC00;" width="46.679" height="8.252"/>
					</g>
				</g>
				<g>
					<g>
						<rect x="294.985" y="162.184" style="fill:#00184C;" width="46.679" height="8.252"/>
					</g>
				</g>
				<g>
					<g>
						<rect x="346.872" y="162.184" style="fill:#7040BF;" width="46.679" height="8.252"/>
					</g>
				</g>
				<g>
					<g>
						<rect x="502.534" y="162.184" style="fill:#7040BF;" width="46.679" height="8.252"/>
					</g>
				</g>
				<g>
					<g>
						<rect x="398.759" y="162.184" style="fill:#1574DD;" width="46.679" height="8.252"/>
					</g>
				</g>
				<g>
					<g>
						<rect x="450.646" y="162.184" style="fill:#00184C;" width="46.679" height="8.252"/>
					</g>
				</g>
				<g>
					<g>
						<path style="fill:#00184C;" d="M573.597,120.664v22.727h-408.59v-22.727c0-4.541,3.421-8.222,7.641-8.222h393.307
							C570.175,112.443,573.597,116.123,573.597,120.664z"/>
					</g>
				</g>
				<g>
					<g>
						<g>
							<g>
								<path style="fill:#D7D2FD;" d="M192.392,122.793c0,2.172-1.637,3.933-3.657,3.933c-2.02,0-3.657-1.761-3.657-3.933
									c0-2.172,1.637-3.933,3.657-3.933C190.755,118.86,192.392,120.621,192.392,122.793z"/>
							</g>
						</g>
						<g>
							<g>
								<g>
									<path style="fill:#FFAC00;" d="M204.76,112.443c0.299-1.259,0.418-2.595,0.321-3.972
										c-0.433-6.145-5.141-11.025-10.866-11.27c-6.476-0.278-11.826,5.306-11.826,12.211c0,1.045,0.123,2.061,0.354,3.032
										c0.894,3.744,3.4,6.799,6.672,8.258c0.57,0.254,0.99,0.797,1.131,1.444c0.007,0.031,0.013,0.062,0.019,0.093
										c0.318,1.636-1.254,2.959-2.688,2.314c-4.667-2.102-8.166-6.629-9.12-12.109c-0.156-0.881-0.244-1.787-0.26-2.71
										c-0.161-9.004,6.553-16.536,14.924-16.728c8.564-0.196,15.588,7.239,15.588,16.406c0,1.035-0.089,2.049-0.261,3.032H204.76
										z"/>
								</g>
							</g>
						</g>
					</g>
					<g>
						<g>
							<g>
								<path style="fill:#D7D2FD;" d="M227.767,122.793c0,2.172-1.637,3.933-3.657,3.933c-2.02,0-3.657-1.761-3.657-3.933
									c0-2.172,1.637-3.933,3.657-3.933C226.13,118.86,227.767,120.621,227.767,122.793z"/>
							</g>
						</g>
						<g>
							<g>
								<path style="fill:#FFAC00;" d="M240.136,112.443c0.299-1.259,0.418-2.595,0.321-3.972
									c-0.433-6.145-5.141-11.025-10.865-11.27c-6.476-0.278-11.826,5.306-11.826,12.211c0,1.045,0.123,2.061,0.354,3.032
									c0.894,3.744,3.4,6.799,6.672,8.258c0.571,0.254,0.99,0.797,1.131,1.444c0.007,0.031,0.013,0.062,0.019,0.093
									c0.319,1.636-1.255,2.959-2.688,2.314c-4.667-2.102-8.166-6.629-9.12-12.109c-0.156-0.881-0.243-1.787-0.26-2.71
									c-0.162-9.004,6.552-16.536,14.924-16.728c8.564-0.196,15.588,7.239,15.588,16.406c0,1.035-0.089,2.049-0.261,3.032H240.136
									z"/>
							</g>
						</g>
					</g>
					<g>
						<g>
							<g>
								<path style="fill:#D7D2FD;" d="M263.142,122.793c0,2.172-1.637,3.933-3.657,3.933c-2.02,0-3.657-1.761-3.657-3.933
									c0-2.172,1.637-3.933,3.657-3.933C261.505,118.86,263.142,120.621,263.142,122.793z"/>
							</g>
						</g>
						<g>
							<g>
								<path style="fill:#FFAC00;" d="M275.511,112.443c0.299-1.259,0.418-2.595,0.32-3.972
									c-0.433-6.145-5.141-11.025-10.866-11.27c-6.476-0.278-11.826,5.306-11.826,12.211c0,1.045,0.123,2.061,0.354,3.032
									c0.894,3.744,3.4,6.799,6.672,8.258c0.57,0.254,0.99,0.797,1.131,1.444c0.007,0.031,0.013,0.062,0.019,0.093
									c0.319,1.636-1.254,2.959-2.688,2.314c-4.667-2.102-8.166-6.629-9.12-12.109c-0.156-0.881-0.244-1.787-0.26-2.71
									c-0.161-9.004,6.553-16.536,14.924-16.728c8.564-0.196,15.588,7.239,15.588,16.406c0,1.035-0.089,2.049-0.261,3.032H275.511
									z"/>
							</g>
						</g>
					</g>
					<g>
						<g>
							<g>
								<path style="fill:#D7D2FD;" d="M298.518,122.793c0,2.172-1.637,3.933-3.657,3.933c-2.02,0-3.657-1.761-3.657-3.933
									c0-2.172,1.637-3.933,3.657-3.933C296.881,118.86,298.518,120.621,298.518,122.793z"/>
							</g>
						</g>
						<g>
							<g>
								<path style="fill:#FFAC00;" d="M310.887,112.443c0.299-1.259,0.418-2.595,0.321-3.972
									c-0.433-6.145-5.141-11.025-10.866-11.27c-6.476-0.278-11.826,5.306-11.826,12.211c0,1.045,0.124,2.061,0.354,3.032
									c0.894,3.744,3.4,6.799,6.672,8.258c0.57,0.254,0.99,0.797,1.131,1.444c0.007,0.031,0.013,0.062,0.019,0.093
									c0.319,1.636-1.255,2.959-2.688,2.314c-4.667-2.102-8.166-6.629-9.12-12.109c-0.156-0.881-0.243-1.787-0.26-2.71
									c-0.161-9.004,6.552-16.536,14.924-16.728c8.564-0.196,15.588,7.239,15.588,16.406c0,1.035-0.089,2.049-0.261,3.032H310.887
									z"/>
							</g>
						</g>
					</g>
					<g>
						<g>
							<g>
								<path style="fill:#D7D2FD;" d="M333.893,122.793c0,2.172-1.637,3.933-3.657,3.933c-2.02,0-3.657-1.761-3.657-3.933
									c0-2.172,1.637-3.933,3.657-3.933C332.256,118.86,333.893,120.621,333.893,122.793z"/>
							</g>
						</g>
						<g>
							<g>
								<path style="fill:#FFAC00;" d="M346.262,112.443c0.299-1.259,0.418-2.595,0.321-3.972
									c-0.433-6.145-5.141-11.025-10.866-11.27c-6.476-0.278-11.826,5.306-11.826,12.211c0,1.045,0.123,2.061,0.354,3.032
									c0.894,3.744,3.4,6.799,6.672,8.258c0.571,0.254,0.99,0.797,1.131,1.444c0.007,0.031,0.013,0.062,0.019,0.093
									c0.318,1.636-1.254,2.959-2.688,2.314c-4.667-2.102-8.166-6.629-9.12-12.109c-0.156-0.881-0.243-1.787-0.26-2.71
									c-0.161-9.004,6.553-16.536,14.924-16.728c8.564-0.196,15.588,7.239,15.588,16.406c0,1.035-0.089,2.049-0.261,3.032H346.262
									z"/>
							</g>
						</g>
					</g>
					<g>
						<g>
							<g>
								<path style="fill:#D7D2FD;" d="M369.269,122.793c0,2.172-1.637,3.933-3.657,3.933c-2.02,0-3.657-1.761-3.657-3.933
									c0-2.172,1.637-3.933,3.657-3.933C367.631,118.86,369.269,120.621,369.269,122.793z"/>
							</g>
						</g>
						<g>
							<g>
								<path style="fill:#FFAC00;" d="M381.637,112.443c0.299-1.259,0.418-2.595,0.321-3.972
									c-0.433-6.145-5.141-11.025-10.866-11.27c-6.476-0.278-11.826,5.306-11.826,12.211c0,1.045,0.123,2.061,0.354,3.032
									c0.894,3.744,3.4,6.799,6.672,8.258c0.57,0.254,0.99,0.797,1.131,1.444c0.007,0.031,0.013,0.062,0.019,0.093
									c0.319,1.636-1.255,2.959-2.688,2.314c-4.667-2.102-8.166-6.629-9.12-12.109c-0.156-0.881-0.243-1.787-0.26-2.71
									c-0.161-9.004,6.553-16.536,14.924-16.728c8.564-0.196,15.588,7.239,15.588,16.406c0,1.035-0.089,2.049-0.261,3.032H381.637
									z"/>
							</g>
						</g>
					</g>
					<g>
						<g>
							<g>
								<path style="fill:#D7D2FD;" d="M404.644,122.793c0,2.172-1.637,3.933-3.657,3.933c-2.02,0-3.657-1.761-3.657-3.933
									c0-2.172,1.637-3.933,3.657-3.933C403.007,118.86,404.644,120.621,404.644,122.793z"/>
							</g>
						</g>
						<g>
							<g>
								<path style="fill:#FFAC00;" d="M417.013,112.443c0.299-1.259,0.418-2.595,0.32-3.972
									c-0.433-6.145-5.141-11.025-10.866-11.27c-6.476-0.278-11.826,5.306-11.826,12.211c0,1.045,0.123,2.061,0.354,3.032
									c0.894,3.744,3.4,6.799,6.672,8.258c0.57,0.254,0.99,0.797,1.131,1.444c0.007,0.031,0.013,0.062,0.019,0.093
									c0.318,1.636-1.254,2.959-2.688,2.314c-4.667-2.102-8.166-6.629-9.12-12.109c-0.156-0.881-0.244-1.787-0.26-2.71
									c-0.161-9.004,6.553-16.536,14.924-16.728c8.564-0.196,15.588,7.239,15.588,16.406c0,1.035-0.089,2.049-0.261,3.032H417.013
									z"/>
							</g>
						</g>
					</g>
					<g>
						<g>
							<g>
								<path style="fill:#D7D2FD;" d="M440.019,122.793c0,2.172-1.637,3.933-3.657,3.933c-2.02,0-3.657-1.761-3.657-3.933
									c0-2.172,1.637-3.933,3.657-3.933C438.382,118.86,440.019,120.621,440.019,122.793z"/>
							</g>
						</g>
						<g>
							<g>
								<path style="fill:#FFAC00;" d="M452.388,112.443c0.299-1.259,0.418-2.595,0.321-3.972
									c-0.433-6.145-5.141-11.025-10.866-11.27c-6.476-0.278-11.826,5.306-11.826,12.211c0,1.045,0.123,2.061,0.354,3.032
									c0.894,3.744,3.4,6.799,6.672,8.258c0.571,0.254,0.99,0.797,1.131,1.444c0.007,0.031,0.013,0.062,0.019,0.093
									c0.318,1.636-1.255,2.959-2.688,2.314c-4.667-2.102-8.166-6.629-9.12-12.109c-0.156-0.881-0.243-1.787-0.26-2.71
									c-0.161-9.004,6.552-16.536,14.924-16.728c8.564-0.196,15.588,7.239,15.588,16.406c0,1.035-0.089,2.049-0.261,3.032H452.388
									z"/>
							</g>
						</g>
					</g>
					<g>
						<g>
							<g>
								<path style="fill:#D7D2FD;" d="M475.395,122.793c0,2.172-1.637,3.933-3.657,3.933c-2.02,0-3.657-1.761-3.657-3.933
									c0-2.172,1.637-3.933,3.657-3.933C473.758,118.86,475.395,120.621,475.395,122.793z"/>
							</g>
						</g>
						<g>
							<g>
								<path style="fill:#FFAC00;" d="M487.763,112.443c0.299-1.259,0.418-2.595,0.321-3.972
									c-0.433-6.145-5.141-11.025-10.866-11.27c-6.476-0.278-11.826,5.306-11.826,12.211c0,1.045,0.123,2.061,0.354,3.032
									c0.894,3.744,3.4,6.799,6.672,8.258c0.571,0.254,0.99,0.797,1.131,1.444c0.007,0.031,0.013,0.062,0.019,0.093
									c0.319,1.636-1.254,2.959-2.688,2.314c-4.667-2.102-8.166-6.629-9.12-12.109c-0.156-0.881-0.243-1.787-0.26-2.71
									c-0.161-9.004,6.553-16.536,14.924-16.728c8.564-0.196,15.588,7.239,15.588,16.406c0,1.035-0.089,2.049-0.261,3.032H487.763
									z"/>
							</g>
						</g>
					</g>
					<g>
						<g>
							<g>
								<path style="fill:#D7D2FD;" d="M510.77,122.793c0,2.172-1.637,3.933-3.657,3.933c-2.02,0-3.657-1.761-3.657-3.933
									c0-2.172,1.637-3.933,3.657-3.933C509.133,118.86,510.77,120.621,510.77,122.793z"/>
							</g>
						</g>
						<g>
							<g>
								<path style="fill:#FFAC00;" d="M523.139,112.443c0.299-1.259,0.418-2.595,0.321-3.972
									c-0.433-6.145-5.141-11.025-10.866-11.27c-6.476-0.278-11.826,5.306-11.826,12.211c0,1.045,0.123,2.061,0.354,3.032
									c0.894,3.744,3.4,6.799,6.672,8.258c0.571,0.254,0.99,0.797,1.131,1.444c0.007,0.031,0.013,0.062,0.019,0.093
									c0.319,1.636-1.254,2.959-2.688,2.314c-4.667-2.102-8.166-6.629-9.12-12.109c-0.156-0.881-0.243-1.787-0.26-2.71
									c-0.161-9.004,6.553-16.536,14.924-16.728c8.564-0.196,15.588,7.239,15.588,16.406c0,1.035-0.089,2.049-0.261,3.032H523.139
									z"/>
							</g>
						</g>
					</g>
					<g>
						<g>
							<g>
								<path style="fill:#D7D2FD;" d="M546.146,122.793c0,2.172-1.637,3.933-3.657,3.933c-2.019,0-3.657-1.761-3.657-3.933
									c0-2.172,1.637-3.933,3.657-3.933C544.508,118.86,546.146,120.621,546.146,122.793z"/>
							</g>
						</g>
						<g>
							<g>
								<g>
									<path style="fill:#FFAC00;" d="M558.514,112.443c0.299-1.259,0.418-2.595,0.321-3.972
										c-0.433-6.145-5.141-11.025-10.866-11.27c-6.476-0.278-11.826,5.306-11.826,12.211c0,1.045,0.123,2.061,0.354,3.032
										c0.894,3.744,3.4,6.799,6.672,8.258c0.57,0.254,0.99,0.797,1.131,1.444c0.007,0.031,0.013,0.062,0.019,0.093
										c0.318,1.636-1.255,2.959-2.688,2.314c-4.667-2.102-8.166-6.629-9.12-12.109c-0.156-0.881-0.244-1.787-0.26-2.71
										c-0.161-9.004,6.552-16.536,14.924-16.728c8.564-0.196,15.588,7.239,15.588,16.406c0,1.035-0.089,2.049-0.261,3.032
										H558.514z"/>
								</g>
							</g>
						</g>
					</g>
				</g>
			</g>
			<g>
				<path style="fill:#D2552A;" d="M515.979,439.009c0,0,54.905,53.316,137.439,9.269l-2.202-13.33l-133.572-8.134L515.979,439.009z
					"/>
				<path style="fill:#7040BF;" d="M635.323,397.963l28.423,110.428H531.604c0,0-12.222-72.03-5.714-110.428H635.323z"/>
				<path style="fill:#492994;" d="M525.141,403.203c0.216-1.804,0.463-3.556,0.749-5.24h109.434l5.18,20.125L525.141,403.203z"/>
				
					<polyline style="fill:none;stroke:#492994;stroke-width:0.75;stroke-linecap:round;stroke-linejoin:round;stroke-miterlimit:10;" points="
					588.142,508.391 572.12,435.302 561.939,432.087 				"/>
				<path style="fill:#00184C;" d="M625.348,276.943c0,0,12.446-10.328,9.533-28.335c-2.913-18.007-16.683-20.92-16.683-20.92
					s16.154-16.683-2.648-38.398c0,0-5.826-5.561-12.976-6.356c0,0-5.826-27.011-36.544-24.098
					c-30.719,2.913-21.317,32.837-12.644,36.809c0,0-5.205,14.035,2.66,20.92v9.269c0,0-20.999,5.296-23.648,27.541
					c-2.648,22.244,20.987,30.189,20.987,30.189S613.963,288.509,625.348,276.943z"/>
				<path style="fill:#FFAC00;" d="M600.212,255.526l44.695,12.055c2.724,0.735,4.979,2.632,6.165,5.192
					c6.177,13.332,25.584,56.341,29.358,78.319c0,0,7.782,26.849-9.506,36.855c-4.631,2.68-10.108,3.51-15.404,2.741l-11.9-1.727
					l9.798,59.319c0,0-42.635,5.561-51.109-24.363l-5.296-25.952H544.05c0,0,3.707,29.924-28.07,41.046l9.004-65.939l-4.654-25.479
					l-16.964,14.783c-5.094,4.439-11.09,7.787-17.631,9.479c-10.518,2.719-24.671,1.939-33.046-16.79
					c-14.565-32.572-22.774-75.472-22.774-75.472l19.331-19.861l37.869,55.346l32.895-45.354c1.33-1.834,3.271-3.135,5.473-3.668
					l43.46-10.527H600.212z"/>
				<path style="fill:#FCFBFF;" d="M538.93,320.196c1.662-19.037,21.538-52.61,30.012-64.67h31.269c0,0-16.086,88.503-3.199,142.437
					H544.05C544.05,397.963,537.727,333.974,538.93,320.196z"/>
				<path style="fill:#FCFBFF;" d="M539.575,344.182c16.615,5.346,37.087,8.012,52.514,9.334c0.327,15.688,1.74,31.123,4.924,44.448
					H544.05C544.05,397.963,541.048,367.583,539.575,344.182z"/>
				<path style="fill:#FFA189;" d="M568.943,255.526l0.832-11.842c-1.984,0.016-3.952-0.265-5.864-0.903
					c-14.3-4.767-10.577-22.204-8.474-31.778c0.952-4.335,2.247-9.195,4.263-13.586c11.249,4.251,22.748-1.773,22.748-1.773
					c4.237,9.004,12.181,10.328,12.181,10.328c-0.355,6.736,1.897,10.909,3.428,12.94c-0.579,1.837,2.154,36.614,2.154,36.614l0,0v0
					c0,0-3.281,20.621-4.801,34.286c-4.356,0.363-8.83,0.563-13.406,0.563c-11.26,0-21.944-1.155-31.584-3.213
					C556.877,274.162,564.486,261.868,568.943,255.526z"/>
				<path style="fill:#F8756A;" d="M578.688,201.735c0,0-13.055,4.118-19.671-2.743c0.219-0.53,0.445-1.056,0.683-1.575
					c11.249,4.251,22.748-1.773,22.748-1.773c4.237,9.004,12.181,10.328,12.181,10.328c-0.058,1.103-0.04,2.13,0.027,3.098
					C590.105,209.211,582.216,208.406,578.688,201.735z"/>
				<path style="fill:#FFA189;" d="M595.796,215.206c-3.218,3.498-3.296,8.662-0.174,11.533c3.122,2.871,8.261,2.363,11.479-1.136
					c3.218-3.499,3.296-8.662,0.174-11.533C604.153,211.199,599.014,211.707,595.796,215.206z"/>
				<path style="fill:#FFAC00;" d="M665.865,358.241c0,0-3.707-16.154-25.422-18.802c-21.715-2.648-45.548-0.794-54.817-3.707
					l-1.869,27.011c0,0,39.1,24.628,59.863,26.217L665.865,358.241z"/>
				<path style="fill:#D2552A;" d="M639.807,339.242c0,0-2.535-6.341-7.375-26.973l0.853,26.541L639.807,339.242z"/>
				<path style="fill:#F8756A;" d="M569.775,243.684c0,0,11.747-0.505,18.367-11.892c0,0-1.008,14.666-18.906,19.565
					L569.775,243.684z"/>
				
					<line style="fill:none;stroke:#F8756A;stroke-width:0.75;stroke-linecap:round;stroke-linejoin:round;stroke-miterlimit:10;" x1="604.693" y1="216.962" x2="597.013" y2="222.258"/>
				
					<path style="fill:none;stroke:#D2552A;stroke-width:0.75;stroke-linecap:round;stroke-linejoin:round;stroke-miterlimit:10;" d="
					M520.33,347.591c0,0-4.289-15.556-4.35-27.484c-0.04-7.839,7.68-17.478,9.91-26.746"/>
				<polygon style="fill:#1574DD;" points="513.067,370.158 568.413,370.158 558.35,297.863 503.004,297.863 				"/>
				<path style="fill:#FFA189;" d="M585.471,337.972c0,0-8.716-3.961-11.497-7.536c-2.781-3.575-12.292-8.632-12.292-8.632
					l0.905,7.832c0,0-29.262-9.131-32.969-7.674c-3.707,1.456,3.443,5.826,3.443,5.826s-6.885-2.482-7.15-1.043
					c-0.265,1.44,2.119,5.28,3.575,6.339c0,0-1.854-0.53-1.986,1.324c-0.132,1.854,9.533,9.666,17.478,12.711
					c0,0-8.871-1.854-11.387,0c0,0,12.976,6.488,17.743,7.945c4.767,1.456,32.636,4.629,32.636,4.629L585.471,337.972z"/>
				
					<line style="fill:none;stroke:#F8756A;stroke-width:0.75;stroke-linecap:round;stroke-linejoin:round;stroke-miterlimit:10;" x1="533.06" y1="327.787" x2="557.026" y2="335.732"/>
				
					<path style="fill:none;stroke:#F8756A;stroke-width:0.75;stroke-linecap:round;stroke-linejoin:round;stroke-miterlimit:10;" d="
					M529.485,333.083c0,0,16.154,6.356,25.025,8.739"/>
				
					<line style="fill:none;stroke:#F8756A;stroke-width:0.75;stroke-linecap:round;stroke-linejoin:round;stroke-miterlimit:10;" x1="544.977" y1="347.119" x2="552.921" y2="349.37"/>
				
					<path style="fill:none;stroke:#D2552A;stroke-width:0.75;stroke-linecap:round;stroke-linejoin:round;stroke-miterlimit:10;" d="
					M585.994,364.118c0,0,14.957,9.455,32.595,17.214"/>
				
					<path style="fill:none;stroke:#D2552A;stroke-width:0.75;stroke-linecap:round;stroke-linejoin:round;stroke-miterlimit:10;" d="
					M665.865,358.241c0,0-3.707-16.154-25.422-18.802c-21.715-2.648-45.548-0.794-54.817-3.707"/>
				
					<path style="fill:none;stroke:#D2552A;stroke-width:0.75;stroke-linecap:round;stroke-linejoin:round;stroke-miterlimit:10;" d="
					M487.115,315.076c0,0,7.15,6.62,10.063,18.007"/>
				<polygon style="fill:#F8756A;" points="585.471,337.972 583.968,359.693 578.966,359.105 				"/>
				<path style="fill:#FFA189;" d="M447.94,261.071l-14.879-19.78c0,0-5.79-6.508-13.903-10.328
					c-9.911-4.667-22.906-13.506-22.906-13.506s-4.369,2.781,0,6.885l11.784,11.387l-7.33,5.44
					c-2.909,1.965-3.089,6.347-0.172,8.301c0.152,0.102,0.314,0.2,0.485,0.294c0,0-1.589,4.767,3.178,7.018
					c0,0-0.132,3.443,3.31,4.899c3.443,1.457,9.326-0.794,9.326-0.794s1.271,7.086,11.599,9.072l4.555,6.476L447.94,261.071z"/>
				<path style="fill:#FFA189;" d="M422.336,239.04l-21.185-1.986c0,0-1.986,5.826,3.443,7.15c5.429,1.324,10.99,3.443,10.99,3.443
					s-0.879,8.342,7.439,10.593L422.336,239.04z"/>
				
					<path style="fill:none;stroke:#F8756A;stroke-width:0.75;stroke-linecap:round;stroke-linejoin:round;stroke-miterlimit:10;" d="
					M418.587,238.689l-17.436-1.635c0,0-1.986,5.826,3.443,7.15c5.429,1.324,10.99,3.443,10.99,3.443s-0.879,8.342,7.439,10.593"/>
				
					<path style="fill:none;stroke:#F8756A;stroke-width:0.75;stroke-linecap:round;stroke-linejoin:round;stroke-miterlimit:10;" d="
					M415.584,247.647c0,0-10.725,3.443-14.565,2.118"/>
				
					<path style="fill:none;stroke:#F8756A;stroke-width:0.75;stroke-linecap:round;stroke-linejoin:round;stroke-miterlimit:10;" d="
					M416.832,253.573c0,0-6.28,3.872-12.636,3.21"/>
				
					<path style="fill:none;stroke:#F8756A;stroke-width:0.75;stroke-linecap:round;stroke-linejoin:round;stroke-miterlimit:10;" d="
					M416.832,260.887c0,0,3.341-2.496,3.032-4.028"/>
				<polygon style="fill:#F8756A;" points="447.94,261.071 429.471,271.681 432.986,276.435 				"/>
				<path style="fill:#00184C;" d="M571.661,213.808c-0.084,1.13,0.497,2.095,1.3,2.155c0.802,0.06,1.521-0.808,1.605-1.938
					c0.084-1.13-0.497-2.095-1.3-2.155C572.464,211.81,571.745,212.678,571.661,213.808z"/>
				<path style="fill:#00184C;" d="M556.898,212.352c-0.084,1.13,0.497,2.095,1.3,2.155c0.802,0.06,1.521-0.808,1.605-1.938
					c0.084-1.13-0.498-2.095-1.3-2.155C557.701,210.354,556.982,211.221,556.898,212.352z"/>
				
					<path style="fill:none;stroke:#00184C;stroke-width:0.75;stroke-linecap:round;stroke-linejoin:round;stroke-miterlimit:10;" d="
					M579.393,208.006c0,0-2.91-3.681-7.497-1.899"/>
				
					<path style="fill:none;stroke:#00184C;stroke-width:0.75;stroke-linecap:round;stroke-linejoin:round;stroke-miterlimit:10;" d="
					M562.736,205.111c0,0-1.917-2.425-5.092-2.386"/>
				<g>
					
						<ellipse style="fill:none;stroke:#FCFBFF;stroke-width:0.75;stroke-linecap:round;stroke-linejoin:round;stroke-miterlimit:10;" cx="573.657" cy="213.966" rx="6.814" ry="7.751"/>
					
						<path style="fill:none;stroke:#FCFBFF;stroke-width:0.75;stroke-linecap:round;stroke-linejoin:round;stroke-miterlimit:10;" d="
						M550.421,212.014c0,4.281,2.517,7.751,5.621,7.751c3.104,0,5.621-3.47,5.621-7.751c0-4.281-2.517-7.751-5.621-7.751
						C552.938,204.263,550.421,207.733,550.421,212.014z"/>
					
						<line style="fill:none;stroke:#FCFBFF;stroke-width:0.75;stroke-linecap:round;stroke-linejoin:round;stroke-miterlimit:10;" x1="566.909" y1="212.91" x2="561.663" y2="212.014"/>
				</g>
				
					<path style="fill:none;stroke:#F8756A;stroke-width:0.75;stroke-linecap:round;stroke-linejoin:round;stroke-miterlimit:10;" d="
					M563.707,213.846c0,0-5.436,6.161-6.019,9.074c-0.583,2.913,4.899,2.516,4.899,2.516"/>
				<path style="fill:#FCFBFF;" d="M569.804,228.084l-7.832,1.059c0,0,0.259,3.531,4.543,3.001
					C570.799,231.615,569.804,228.084,569.804,228.084z"/>
				
					<ellipse transform="matrix(0.9732 -0.2298 0.2298 0.9732 -38.6383 145.066)" style="fill:none;stroke:#FCFBFF;stroke-width:0.75;stroke-linecap:round;stroke-linejoin:round;stroke-miterlimit:10;" cx="603.633" cy="238.456" rx="11.387" ry="11.387"/>
				
					<polyline style="fill:none;stroke:#00184C;stroke-width:0.75;stroke-linecap:round;stroke-linejoin:round;stroke-miterlimit:10;" points="
					537.243,297.863 538.104,303.601 518.529,303.601 517.745,297.863 				"/>
			</g>
			<g>
				<path style="fill:#00184C;" d="M215.237,354.985c0,0,27.25,5.556,44.75-13.444s-9.25-46.718-9.25-46.718
					s14.25-13.282,7.5-26.032c0,0-6.667-9.25-18.958-3.25c0,0-14.367-19.5-38.329-8.5c-23.962,11-23.705,42.004-22.962,47.668
					C177.987,304.71,148.412,350.218,215.237,354.985z"/>
				<g>
					<path style="fill:#FFA189;" d="M240.487,390.792l4.5,13.25l37.5-38.75c0,0-1.75-6.667,1.583-13.667c3.333-7,1.167-15,1.167-15
						s3.5-1.667,5.833,1.5l3.552,11.203l30.883-8.14c0.569-0.179,1.154-0.285,1.75-0.312c2.051-0.094,6.547,0.091,7.314,3.416
						c0,0,5.667-1.875,8.867,3.063l-3.201,1.438c0,0,5.021,0.479,6.188,3.813l-3.874,2.993c0,0-2.688,4.882-5.147,6.528
						c-7.933,5.311-34.167,10.667-37.917,14.917l-34.012,57.777c-4.874,8.28-11.398,15.743-20.905,17.14
						c-6.372,0.936-16.043-0.845-20.833-7.417c-13.263-18.197-20.25-34-20.25-34L240.487,390.792z"/>
					
						<line style="fill:none;stroke:#F8756A;stroke-width:0.75;stroke-linecap:round;stroke-linejoin:round;stroke-miterlimit:10;" x1="244.987" y1="404.042" x2="233.571" y2="416.125"/>
					<path style="fill:#F8756A;" d="M213.347,405.279l5.39,32.096c0,0-11.667-19.478-15.25-26.833L213.347,405.279z"/>
					
						<line style="fill:none;stroke:#F8756A;stroke-width:0.75;stroke-linecap:round;stroke-linejoin:round;stroke-miterlimit:10;" x1="334.571" y1="344.292" x2="313.904" y2="350.958"/>
					
						<line style="fill:none;stroke:#F8756A;stroke-width:0.75;stroke-linecap:round;stroke-linejoin:round;stroke-miterlimit:10;" x1="340.237" y1="348.792" x2="317.237" y2="355.792"/>
					
						<line style="fill:none;stroke:#F8756A;stroke-width:0.75;stroke-linecap:round;stroke-linejoin:round;stroke-miterlimit:10;" x1="343.438" y1="354.985" x2="320.404" y2="361.292"/>
					
						<path style="fill:none;stroke:#F8756A;stroke-width:0.75;stroke-linecap:round;stroke-linejoin:round;stroke-miterlimit:10;" d="
						M308.362,361.292c0,0-11.5-6.25-16.125,5"/>
				</g>
				<g>
					<path style="fill:#00184C;" d="M100.571,381.792c0,0-22.833,2.667-31.167,28.75c-8.333,26.083,19,91.417,19,91.417h109.667
						l-40.667-73.5L100.571,381.792z"/>
					
						<polyline style="fill:none;stroke:#013F81;stroke-width:0.75;stroke-linecap:round;stroke-linejoin:round;stroke-miterlimit:10;" points="
						139.071,437.375 132.947,441.875 145.862,501.958 					"/>
					
						<path style="fill:none;stroke:#013F81;stroke-width:0.75;stroke-linecap:round;stroke-linejoin:round;stroke-miterlimit:10;" d="
						M112.262,391.392l-6.856,6.769c-7.41,7.316-17.774,10.817-28.103,9.494l-0.233-0.03"/>
					
						<path style="fill:none;stroke:#013F81;stroke-width:0.75;stroke-linecap:round;stroke-linejoin:round;stroke-miterlimit:10;" d="
						M98.404,501.958c0,0-24.667-76.058-15.667-94.029"/>
				</g>
				<g>
					<path style="fill:#1574DD;" d="M132.904,321.858c4.688-5.906,11.316-9.11,17.036-10.847c5.354-1.626,10.988-2.121,16.564-1.656
						l17.234,1.436l22.799,13.875l8.413,4.496c6.408,3.425,11.358,9.112,13.68,15.996c0.676,2.005,1.313,4.29,1.858,6.882
						c3,14.25,10,38.75,10,38.75l-37,19.75l-8.688-17.833c-3.624,0.732-6.562,0.417-6.562,0.417
						c-9.333,5.5-30.833,35.333-30.833,35.333l-56.833-46.667C100.571,381.792,122.904,334.458,132.904,321.858z"/>
					<path style="fill:#013F81;" d="M194.799,392.708c0,0,9.852-0.119,11.605-8.583c1.958-9.458,5.333-17.167,5.333-17.167
						s-2.375,31.083,1.61,38.32l-9.86,5.263L194.799,392.708z"/>
				</g>
				<g>
					<path style="fill:#FFA189;" d="M183.737,310.792l18.285-9.075c-2.786-1.059-4.785-3.895-4.785-7.238
						c0-4.246,3.218-7.688,7.188-7.688s7.188,3.442,7.188,7.688c0,0.197-0.014,0.391-0.028,0.584
						c0.104-0.088,0.199-0.169,0.305-0.26c8.473-1.137,25.081-21.395,25.084-21.399c1.569,1.88,2.851,4.347,3.264,7.554l-0.333,8.5
						l6.333,11h-5.75c0,0,0.083,16.667-7.917,20.667c-6.971,3.486-13.687,1.149-17.947-2.046l-8.088,5.588
						c0,0-2.465,20.291-15.465,18.625C175.097,341.244,183.737,310.792,183.737,310.792z"/>
					<path style="fill:#F8756A;" d="M214.395,294.041c8.862-3.907,22.575-20.632,22.578-20.637c1.407,1.685,2.577,3.848,3.103,6.588
						C233.337,284.485,222.82,291.007,214.395,294.041L214.395,294.041z"/>
					<path style="fill:#F8756A;" d="M214.624,319.079c0,0-5.137-5.492-7.137-9.89c0,0-1.45,9.563,0.525,14.458L214.624,319.079z"/>
					
						<line style="fill:none;stroke:#F8756A;stroke-width:0.75;stroke-linecap:round;stroke-linejoin:round;stroke-miterlimit:10;" x1="206.974" y1="297.667" x2="202.237" y2="290.417"/>
					<path style="fill:#FCFBFF;" d="M233.737,305.458l-8.167-3.333c0,0-1.271,4.417,3.042,5.792
						C232.113,309.033,233.737,305.458,233.737,305.458z"/>
					<ellipse style="fill:#00184C;" cx="234.675" cy="290.292" rx="1.375" ry="1.938"/>
					
						<path style="fill:none;stroke:#00184C;stroke-width:0.75;stroke-linecap:round;stroke-linejoin:round;stroke-miterlimit:10;" d="
						M236.987,283.138c0,0-4.25-1.25-6.813,2.625"/>
				</g>
				<g>
					<path style="fill:#FFA189;" d="M165.237,385.792l-0.5,14l42.75,53.75l29.334,11.756c2.215,0.888,4.077,2.48,5.298,4.531
						l14.118,23.713c0,0-4.625,2.5-9-1.25l1.75,3.625c0,0-6.625,1.625-9.875-1.875l1.5,2.875c0,0-3.25,1.5-8.263,0.371
						c0,0-6.112,0-8.487-2.371c-3.88-3.874-9.75-12.5-9.75-12.5s-9.625,0.875-13.75-5.125l-4.125-6l-53.906-35.401
						c-8.247-5.416-13.478-14.385-14.13-24.23l-1.714-25.869H165.237z"/>
					
						<line style="fill:none;stroke:#F8756A;stroke-width:0.75;stroke-linecap:round;stroke-linejoin:round;stroke-miterlimit:10;" x1="247.237" y1="492.292" x2="236.737" y2="474.167"/>
					
						<line style="fill:none;stroke:#F8756A;stroke-width:0.75;stroke-linecap:round;stroke-linejoin:round;stroke-miterlimit:10;" x1="239.112" y1="494.042" x2="229.737" y2="476.417"/>
					
						<line style="fill:none;stroke:#F8756A;stroke-width:0.75;stroke-linecap:round;stroke-linejoin:round;stroke-miterlimit:10;" x1="232.349" y1="497.288" x2="223.237" y2="479.792"/>
					<polygon style="fill:#F8756A;" points="165.237,385.792 126.487,385.792 126.962,392.954 					"/>
				</g>
				<g>
					
						<rect x="207.487" y="494.042" transform="matrix(-1 -1.224647e-16 1.224647e-16 -1 508.2248 996.0001)" style="fill:#7040BF;" width="93.25" height="7.917"/>
					<polygon style="fill:#7040BF;" points="255.926,501.958 355.404,501.958 375.404,423.625 275.926,423.625 					"/>
					<polygon style="fill:#492994;" points="275.926,423.625 282.926,423.625 262.926,501.958 255.926,501.958 					"/>
					<path style="fill:#FCFBFF;" d="M318.166,460.088c-1.037,4.153,0.729,8.17,3.944,8.973s6.662-1.913,7.699-6.065
						c1.037-4.153-0.729-8.17-3.944-8.973C322.65,453.22,319.203,455.935,318.166,460.088z"/>
				</g>
				
					<line style="fill:none;stroke:#013F81;stroke-width:0.75;stroke-linecap:round;stroke-linejoin:round;stroke-miterlimit:10;" x1="165.237" y1="385.792" x2="167.487" y2="339.292"/>
				
					<line style="fill:none;stroke:#013F81;stroke-width:0.75;stroke-linecap:round;stroke-linejoin:round;stroke-miterlimit:10;" x1="126.487" y1="385.792" x2="126.487" y2="358.138"/>
			</g>
		</g>
	</g>
</g>
</svg>
