<?xml version="1.0" encoding="utf-8"?>
<!-- Generator: Adobe Illustrator 27.5.0, SVG Export Plug-In . SVG Version: 6.00 Build 0)  -->
<svg version="1.1" xmlns="http://www.w3.org/2000/svg" xmlns:xlink="http://www.w3.org/1999/xlink" x="0px" y="0px"
	 viewBox="0 0 750 500" style="enable-background:new 0 0 750 500;" xml:space="preserve">
<g id="BACKGROUND">
	<rect x="0" style="fill:#E9F2FF;" width="750" height="500"/>
</g>
<g id="OBJECTS">
	<g>
		<path style="fill:#BACDFF;" d="M166.629,443.558c0,0-113.438-134.514-79.97-203.749s160.778-13.074,225.702-31.264
			s103.214-79.512,186.353-67.644c52,7.424,89.775,53.41,101.873,108.798s48.135,23.738,65.28,73.191
			c24.31,70.119-80.724,120.667-80.724,120.667H166.629z"/>
		<g>
			<g>
				<g>
					<path style="fill:#BACDFF;" d="M46.189,179.145l2.536,6.518l7.075-1.72c2.585,4.205,6.11,7.608,10.184,10.038l-2.034,7.025
						l6.402,2.816l3.922-6.443c4.536,1.111,9.364,1.177,14.117,0.036l3.576,6.489l6.518-2.536l-1.778-7.312
						c4.234-2.495,7.685-5.927,10.184-9.921l6.936,2.008l2.816-6.402l-6.192-3.77c1.254-4.649,1.405-9.63,0.272-14.538l6.002-3.307
						l-2.536-6.518l-6.671,1.622c-2.557-4.486-6.16-8.115-10.369-10.696l1.814-6.268l-6.402-2.816l-3.435,5.642
						c-4.823-1.285-9.999-1.383-15.078-0.095l-3.102-5.63l-6.518,2.536l1.563,6.43c-4.455,2.652-8.036,6.346-10.544,10.638
						l-6.362-1.842l-2.816,6.402l5.895,3.589c-1.139,4.709-1.151,9.731,0.143,14.654L46.189,179.145z M75.505,152.99
						c8.378-3.26,17.811,0.889,21.071,9.267c3.261,8.381-0.888,17.814-9.266,21.074c-8.378,3.26-17.814-0.888-21.075-9.268
						C62.975,165.684,67.126,156.25,75.505,152.99z"/>
				</g>
				<g>
					<circle style="fill:#BACDFF;" cx="81.457" cy="168.635" r="7.946"/>
				</g>
			</g>
			<g>
				<path style="fill:#BACDFF;" d="M122.038,180.495l1.254,3.222l3.498-0.85c1.278,2.079,3.021,3.761,5.035,4.963l-1.005,3.473
					l3.165,1.392l1.939-3.185c2.242,0.549,4.63,0.582,6.979,0.018l1.768,3.208l3.222-1.254l-0.879-3.615
					c2.093-1.233,3.8-2.931,5.035-4.905l3.429,0.993l1.392-3.165l-3.061-1.864c0.62-2.299,0.694-4.761,0.135-7.188l2.968-1.635
					l-1.254-3.222l-3.298,0.802c-1.264-2.218-3.046-4.012-5.127-5.288l0.897-3.099l-3.165-1.392l-1.698,2.79
					c-2.384-0.635-4.943-0.684-7.454-0.047l-1.534-2.783l-3.222,1.254l0.773,3.179c-2.203,1.311-3.973,3.138-5.213,5.259
					l-3.146-0.911l-1.392,3.165l2.914,1.774c-0.563,2.328-0.569,4.811,0.071,7.245L122.038,180.495z M136.532,167.564
					c4.142-1.612,8.806,0.439,10.418,4.582c1.612,4.143-0.439,8.807-4.581,10.419c-4.142,1.612-8.807-0.439-10.419-4.582
					C130.337,173.84,132.389,169.176,136.532,167.564z"/>
			</g>
		</g>
		<g>
			<path style="fill:#BACDFF;" d="M600.643,142.418c-1.281,0-2.545,0.073-3.79,0.207l-30.585,41.432
				c0.758,3.953,2.181,7.667,4.147,11.027l38.197-51.744C606.051,142.744,603.386,142.418,600.643,142.418z M565.633,177.428
				c0,1.005,0.052,1.997,0.135,2.98l27.457-37.195C577.454,146.617,565.633,160.639,565.633,177.428z M611.272,144.066
				l-39.373,53.338c1.926,2.766,4.24,5.24,6.865,7.345l41.548-56.285C617.555,146.588,614.515,145.098,611.272,144.066z
				 M635.496,174.166l-27.711,37.54c15.91-3.298,27.868-17.391,27.868-34.279C635.653,176.327,635.596,175.241,635.496,174.166z
				 M630.77,159.597l-38.292,51.874c2.621,0.626,5.352,0.967,8.165,0.967c1.195,0,2.375-0.061,3.539-0.178l30.791-41.712
				C634.19,166.62,632.748,162.931,630.77,159.597z M622.378,149.993l-41.554,56.292c2.745,1.889,5.773,3.394,9.007,4.443
				l39.444-53.434C627.336,154.541,625.012,152.082,622.378,149.993z"/>
			<g>
				<g>
					<path style="fill:#BACDFF;" d="M376.44,93.191c-0.148,0-0.291,0.015-0.437,0.022c-0.301-3.887-3.544-6.949-7.509-6.949
						c-2.205,0-4.183,0.953-5.562,2.463c-0.604-5.96-5.637-10.612-11.756-10.612c-6.341,0-11.501,4.999-11.789,11.269
						c-1.499-0.688-3.16-1.082-4.918-1.082c-6.526,0-11.817,5.291-11.817,11.817c0,5.594,3.891,10.268,9.111,11.494
						c0.675,0.21,1.392,0.324,2.136,0.324h42.542c5.176,0,9.372-4.196,9.372-9.372C385.812,97.387,381.616,93.191,376.44,93.191z"/>
				</g>
				<g>
					<g>
						<path style="fill:#BACDFF;" d="M242.265,52.425c-0.161,0-0.318,0.017-0.478,0.024c-0.329-4.244-3.87-7.587-8.198-7.587
							c-2.408,0-4.567,1.04-6.073,2.689c-0.659-6.508-6.154-11.587-12.836-11.587c-6.924,0-12.557,5.458-12.872,12.304
							c-1.636-0.751-3.451-1.181-5.369-1.181c-7.126,0-12.902,5.776-12.902,12.902c0,6.107,4.248,11.211,9.948,12.549
							c0.737,0.229,1.52,0.353,2.332,0.353h46.448c5.651,0,10.233-4.581,10.233-10.233
							C252.498,57.006,247.917,52.425,242.265,52.425z"/>
					</g>
				</g>
			</g>
		</g>
		<g>
			<g>
				<g>
					<path style="fill:#3E8F7D;" d="M620.15,446.551h-37.117c3.633-2.165,7.944-3.587,11.549-5.781
						c4.185-2.546,7.303-6.117,8.785-10.063c1.788-4.76,1.325-10.132,4.814-14.294c4.84-5.774,15.183-6.861,24.086-6.405
						c3.588,0.184,7.247,0.52,10.737-0.147c4.909-0.938,8.801-3.711,12.971-5.915c4.171-2.204,9.503-3.931,14.191-2.469
						c-8.322,2.24-14.53,7.745-16.955,14.274c-2.378,6.402-1.521,14.482-8.625,18.278c-3.992,2.133-9.269,2.066-13.802,3.412
						C625.649,438.967,621.707,442.502,620.15,446.551z"/>
					<path style="fill:#276B5B;" d="M608.522,446.551h-6.031c1.382-1.326,2.616-2.72,3.564-4.223
						c2.647-4.193,3.079-9.199,7.414-12.716c3.572-2.898,8.892-3.961,13.608-5.626c4.999-1.765,9.649-3.709,13.331-6.855
						c-4.448,6.965-18.046,9.637-21.02,11.589C612.815,433.035,611.975,440.392,608.522,446.551z"/>
				</g>
				<g>
					<path style="fill:#276B5B;" d="M624.12,386.044c1.414,4.798,2.254,10.257-1.454,14.263c-4.01,4.332-12.522,5.959-14.491,11.059
						c-1.552,4.02,1.824,8.051,3.503,12.04c3.132,7.444-0.185,16.239-8.007,21.232c-1.078,0.688-2.231,1.306-3.396,1.913l-51.915,0
						c0.214-3.454,2.523-6.8,6.13-8.86c4.219-2.41,9.977-3.104,13.535-6.081c4.423-3.701,3.821-9.385,3.554-14.411
						c-0.306-5.767,0.53-12.148,5.921-16.157c3.67-2.728,9.04-4,12.037-7.179c4.347-4.612,2.092-11.429,5.945-16.294
						c4.726-5.967,15.912-6.199,23.16-10.404c3.966-2.301,6.379-5.574,8.46-9.046c3.264,3.058-2.681,10.626-4.069,13.668
						C620.911,376.439,622.757,381.422,624.12,386.044z"/>
					<path style="fill:#3E8F7D;" d="M589.755,416.491c-0.626,4.512,0.038,13.028-2.745,17.027
						c-2.494,3.583-7.603,5.588-10.946,8.734c-1.294,1.218-2.317,2.695-3.167,4.298l-4.461,0c0.502-0.885,1.065-1.749,1.71-2.585
						c3.686-4.772,9.83-8.33,12.676-13.431c3.809-6.829,0.925-14.973,4.353-21.921c1.617-3.278,4.532-6.058,7.261-8.866
						c6.386-6.572,11.977-13.602,16.675-20.97c-2.215,11.597-6.146,13.195-11.404,19.559
						C594.449,404.701,590.795,408.99,589.755,416.491z"/>
				</g>
			</g>
			<g>
				<g>
					<path style="fill:#3E8F7D;" d="M144.552,446.191l37.117,0c-3.633-2.165-7.944-3.587-11.549-5.781
						c-4.185-2.546-7.303-6.117-8.785-10.063c-1.788-4.76-1.325-10.132-4.814-14.294c-4.84-5.774-15.183-6.861-24.086-6.405
						c-3.588,0.184-7.247,0.52-10.737-0.147c-4.909-0.938-8.801-3.711-12.971-5.915c-4.171-2.204-9.503-3.931-14.191-2.469
						c8.322,2.24,14.53,7.745,16.955,14.274c2.378,6.402,1.521,14.482,8.625,18.278c3.992,2.133,9.269,2.066,13.802,3.412
						C139.053,438.607,142.995,442.142,144.552,446.191z"/>
					<path style="fill:#276B5B;" d="M156.18,446.191h6.031c-1.382-1.326-2.616-2.72-3.564-4.223
						c-2.647-4.193-3.079-9.199-7.414-12.716c-3.572-2.898-8.892-3.961-13.608-5.626c-4.999-1.765-9.649-3.709-13.331-6.855
						c4.448,6.965,18.046,9.637,21.02,11.589C151.887,432.675,152.727,440.033,156.18,446.191z"/>
				</g>
				<g>
					<path style="fill:#276B5B;" d="M140.582,385.684c-1.414,4.798-2.254,10.257,1.454,14.263
						c4.01,4.332,12.522,5.959,14.491,11.059c1.552,4.02-1.824,8.051-3.503,12.04c-3.132,7.444,0.185,16.239,8.007,21.232
						c1.078,0.688,2.231,1.306,3.396,1.913l51.915,0c-0.214-3.454-2.523-6.8-6.13-8.86c-4.219-2.41-9.977-3.104-13.535-6.081
						c-4.423-3.701-3.821-9.385-3.554-14.411c0.306-5.767-0.53-12.148-5.921-16.157c-3.67-2.728-9.04-4-12.037-7.179
						c-4.347-4.612-2.092-11.429-5.945-16.294c-4.726-5.967-15.912-6.199-23.16-10.404c-3.967-2.301-6.379-5.574-8.46-9.046
						c-3.264,3.058,2.681,10.626,4.069,13.668C143.791,376.079,141.945,381.063,140.582,385.684z"/>
					<path style="fill:#3E8F7D;" d="M174.947,416.132c0.626,4.512-0.038,13.028,2.745,17.027c2.494,3.583,7.603,5.588,10.946,8.734
						c1.294,1.218,2.317,2.695,3.167,4.298h4.461c-0.502-0.885-1.065-1.749-1.71-2.585c-3.686-4.772-9.83-8.33-12.676-13.431
						c-3.809-6.829-0.925-14.973-4.353-21.921c-1.617-3.278-4.532-6.058-7.261-8.866c-6.386-6.572-11.977-13.602-16.675-20.97
						c2.215,11.597,6.146,13.195,11.404,19.559C170.253,404.342,173.907,408.631,174.947,416.132z"/>
				</g>
			</g>
		</g>
		<g>
			<g>
				<g>
					<g>
						<g>
							<g>
								<path style="fill:#E7E7E7;" d="M324.312,438.18h2.242c17.695,0,33.416-14.734,39.066-36.612l6.412-24.828h19.205h2.909
									h19.205l3.843,20.457c4.52,24.062,21.052,40.984,40.039,40.984h3.838c3.536,0,6.403,3.741,6.403,8.355h-73.328h-2.909
									h-73.329C317.909,441.921,320.776,438.18,324.312,438.18z"/>
								<polygon style="opacity:0.15;" points="413.352,376.74 372.032,376.74 365.304,402.792 418.245,402.792 								"/>
							</g>
							<path style="fill:#E7E7E7;" d="M201.622,131.5h382.143c6.16,0,11.154,4.994,11.154,11.154v231.977
								c0,6.16-4.994,11.154-11.154,11.154H201.621c-6.16,0-11.154-4.994-11.154-11.154V142.654
								C190.467,136.494,195.461,131.5,201.622,131.5z"/>
							<path style="fill:#031162;" d="M201.622,131.5h382.143c6.16,0,11.154,4.994,11.154,11.154v222.817H190.467V142.654
								C190.467,136.494,195.461,131.5,201.622,131.5z"/>
							<path style="fill:#668BDD;" d="M205.244,140.545h374.899c3.165,0,5.731,2.566,5.731,5.731V352.78
								c0,3.165-2.566,5.731-5.731,5.731h-374.9c-3.165,0-5.731-2.566-5.731-5.731V146.276
								C199.512,143.111,202.078,140.545,205.244,140.545z"/>
						</g>
					</g>
				</g>
			</g>
			<rect x="199.512" y="140.545" style="fill:#83A0F0;" width="386.362" height="218.531"/>
			<rect x="199.512" y="140.545" style="fill:#5E60F4;" width="74.369" height="218.531"/>
			<rect x="273.881" y="140.545" style="fill:#668BDD;" width="311.992" height="13.553"/>
			<g>
				<path style="fill:#F8F8F8;" d="M567.635,147.321c0,1.099-0.891,1.99-1.99,1.99s-1.99-0.891-1.99-1.99
					c0-1.099,0.891-1.99,1.99-1.99S567.635,146.222,567.635,147.321z"/>
				<path style="fill:#F8F8F8;" d="M573.698,147.321c0,1.099-0.891,1.99-1.99,1.99c-1.099,0-1.99-0.891-1.99-1.99
					c0-1.099,0.891-1.99,1.99-1.99C572.807,145.331,573.698,146.222,573.698,147.321z"/>
				<path style="fill:#F8F8F8;" d="M579.761,147.321c0,1.099-0.891,1.99-1.99,1.99c-1.099,0-1.99-0.891-1.99-1.99
					c0-1.099,0.891-1.99,1.99-1.99C578.871,145.331,579.761,146.222,579.761,147.321z"/>
			</g>
			
				<ellipse transform="matrix(0.7071 -0.7071 0.7071 0.7071 -49.455 213.6753)" style="fill:#668BDD;" cx="233.201" cy="166.535" rx="17.406" ry="17.406"/>
		</g>
		<g>
			<g>
				<path style="fill:#FFFFFF;" d="M662.431,92.816h-81.964c-4.99,0-9.035-4.045-9.035-9.035l0,0c0-4.99,4.045-9.035,9.035-9.035
					h81.964c4.99,0,9.035,4.045,9.035,9.035l0,0C671.466,88.771,667.421,92.816,662.431,92.816z"/>
				<path style="fill:#FFFFFF;" d="M662.431,119.617h-81.964c-4.99,0-9.035-4.045-9.035-9.035l0,0c0-4.99,4.045-9.035,9.035-9.035
					h81.964c4.99,0,9.035,4.045,9.035,9.035l0,0C671.466,115.572,667.421,119.617,662.431,119.617z"/>
				<g>
					<path style="fill:#5E60F4;" d="M584.663,105.967h1.963l-0.028,2.883l2.51-1.47l0.982,1.789l-2.597,1.413l2.597,1.414
						l-0.982,1.817l-2.54-1.5l0.059,2.886h-1.963l0.059-2.914l-2.538,1.47l-0.953-1.759l2.541-1.414l-2.541-1.413l0.953-1.82
						l2.51,1.5L584.663,105.967z"/>
				</g>
				<g>
					<path style="fill:#5E60F4;" d="M598.063,105.967h1.963l-0.028,2.883l2.51-1.47l0.982,1.789l-2.597,1.413l2.597,1.414
						l-0.982,1.817l-2.54-1.5l0.059,2.886h-1.963l0.059-2.914l-2.538,1.47l-0.953-1.759l2.541-1.414l-2.541-1.413l0.953-1.82
						l2.51,1.5L598.063,105.967z"/>
				</g>
				<g>
					<path style="fill:#5E60F4;" d="M611.701,105.967h1.963l-0.028,2.883l2.51-1.47l0.981,1.789l-2.597,1.413l2.597,1.414
						l-0.981,1.817l-2.54-1.5l0.059,2.886h-1.963l0.059-2.914l-2.538,1.47l-0.953-1.759l2.54-1.414l-2.54-1.413l0.953-1.82l2.51,1.5
						L611.701,105.967z"/>
				</g>
				<g>
					<path style="fill:#5E60F4;" d="M625.101,105.967h1.963l-0.028,2.883l2.51-1.47l0.982,1.789l-2.597,1.413l2.597,1.414
						l-0.982,1.817l-2.54-1.5l0.059,2.886h-1.963l0.059-2.914l-2.538,1.47l-0.953-1.759l2.54-1.414l-2.54-1.413l0.953-1.82l2.51,1.5
						L625.101,105.967z"/>
				</g>
				<g>
					<path style="fill:#5E60F4;" d="M638.343,105.967h1.963l-0.028,2.883l2.51-1.47l0.982,1.789l-2.597,1.413l2.597,1.414
						l-0.982,1.817l-2.54-1.5l0.059,2.886h-1.963l0.059-2.914l-2.538,1.47l-0.953-1.759l2.54-1.414l-2.54-1.413l0.953-1.82l2.51,1.5
						L638.343,105.967z"/>
				</g>
				<g>
					<path style="fill:#5E60F4;" d="M651.743,105.967h1.963l-0.028,2.883l2.51-1.47l0.982,1.789l-2.597,1.413l2.597,1.414
						l-0.982,1.817l-2.54-1.5l0.059,2.886h-1.963l0.059-2.914l-2.538,1.47l-0.953-1.759l2.541-1.414l-2.541-1.413l0.953-1.82
						l2.51,1.5L651.743,105.967z"/>
				</g>
				<path style="fill:#5E60F4;" d="M584.356,86.724L584.356,86.724c-1.726,0-3.126-1.4-3.126-3.126l0,0
					c0-1.726,1.4-3.126,3.126-3.126l0,0c1.727,0,3.126,1.4,3.126,3.126l0,0C587.482,85.324,586.082,86.724,584.356,86.724z"/>
				<path style="fill:#5E60F4;" d="M594.035,86.724L594.035,86.724c-1.727,0-3.126-1.4-3.126-3.126l0,0
					c0-1.726,1.4-3.126,3.126-3.126l0,0c1.726,0,3.126,1.4,3.126,3.126l0,0C597.161,85.324,595.761,86.724,594.035,86.724z"/>
				<path style="fill:#5E60F4;" d="M603.429,86.724L603.429,86.724c-1.727,0-3.126-1.4-3.126-3.126l0,0
					c0-1.726,1.4-3.126,3.126-3.126l0,0c1.726,0,3.126,1.4,3.126,3.126l0,0C606.555,85.324,605.155,86.724,603.429,86.724z"/>
				<path style="fill:#5E60F4;" d="M613.107,86.724L613.107,86.724c-1.727,0-3.126-1.4-3.126-3.126l0,0
					c0-1.726,1.4-3.126,3.126-3.126l0,0c1.727,0,3.126,1.4,3.126,3.126l0,0C616.234,85.324,614.834,86.724,613.107,86.724z"/>
				<path style="fill:#5E60F4;" d="M622.759,86.724L622.759,86.724c-1.726,0-3.126-1.4-3.126-3.126l0,0
					c0-1.726,1.4-3.126,3.126-3.126l0,0c1.727,0,3.126,1.4,3.126,3.126l0,0C625.885,85.324,624.485,86.724,622.759,86.724z"/>
				<path style="fill:#5E60F4;" d="M632.438,86.724L632.438,86.724c-1.727,0-3.126-1.4-3.126-3.126l0,0
					c0-1.726,1.4-3.126,3.126-3.126l0,0c1.726,0,3.126,1.4,3.126,3.126l0,0C635.564,85.324,634.164,86.724,632.438,86.724z"/>
				<path style="fill:#5E60F4;" d="M641.832,86.724L641.832,86.724c-1.727,0-3.126-1.4-3.126-3.126l0,0
					c0-1.726,1.4-3.126,3.126-3.126l0,0c1.726,0,3.126,1.4,3.126,3.126l0,0C644.958,85.324,643.558,86.724,641.832,86.724z"/>
				<path style="fill:#5E60F4;" d="M651.51,86.724L651.51,86.724c-1.726,0-3.126-1.4-3.126-3.126l0,0c0-1.726,1.4-3.126,3.126-3.126
					l0,0c1.727,0,3.126,1.4,3.126,3.126l0,0C654.636,85.324,653.237,86.724,651.51,86.724z"/>
				<path style="fill:#5E60F4;" d="M660.296,86.724L660.296,86.724c-1.727,0-3.126-1.4-3.126-3.126l0,0
					c0-1.726,1.4-3.126,3.126-3.126l0,0c1.726,0,3.126,1.4,3.126,3.126l0,0C663.422,85.324,662.022,86.724,660.296,86.724z"/>
			</g>
			<g>
				<g>
					<path style="fill:#FFFFFF;" d="M470.056,65.358c22.337,0,40.51,18.173,40.51,40.51c0,22.337-18.173,40.51-40.51,40.51
						s-40.51-18.173-40.51-40.51C429.546,83.531,447.719,65.358,470.056,65.358 M470.056,62.697
						c-23.843,0-43.171,19.328-43.171,43.171s19.328,43.171,43.171,43.171c23.843,0,43.171-19.328,43.171-43.171
						S493.899,62.697,470.056,62.697L470.056,62.697z"/>
					<rect x="468.725" y="85.137" style="fill:#FFFFFF;" width="2.662" height="21.946"/>
					<rect x="468.725" y="129.739" style="fill:#FFFFFF;" width="2.662" height="19.3"/>
					<rect x="468.725" y="62.697" style="fill:#FFFFFF;" width="2.662" height="22.44"/>
					<rect x="468.725" y="107.083" style="fill:#FFFFFF;" width="2.662" height="22.656"/>
					<rect x="446.068" y="70.181" style="fill:#FFFFFF;" width="2.662" height="14.956"/>
					<rect x="446.068" y="85.137" style="fill:#FFFFFF;" width="2.662" height="21.946"/>
					<rect x="446.068" y="129.739" style="fill:#FFFFFF;" width="2.662" height="11.817"/>
					<rect x="446.068" y="107.083" style="fill:#FFFFFF;" width="2.662" height="22.656"/>
					<rect x="490.671" y="85.137" style="fill:#FFFFFF;" width="2.662" height="21.946"/>
					<rect x="490.671" y="107.083" style="fill:#FFFFFF;" width="2.662" height="22.656"/>
					<rect x="490.671" y="129.739" style="fill:#FFFFFF;" width="2.662" height="11.818"/>
					<rect x="490.671" y="69.755" style="fill:#FFFFFF;" width="2.662" height="15.382"/>
					<rect x="492.002" y="105.752" style="fill:#FFFFFF;" width="21.194" height="2.662"/>
					<rect x="470.056" y="105.752" style="fill:#FFFFFF;" width="21.946" height="2.662"/>
					<rect x="426.915" y="105.752" style="fill:#FFFFFF;" width="20.484" height="2.662"/>
					<rect x="447.399" y="105.752" style="fill:#FFFFFF;" width="22.657" height="2.662"/>
					<rect x="447.399" y="128.408" style="fill:#FFFFFF;" width="22.657" height="2.662"/>
					<rect x="435.147" y="128.408" style="fill:#FFFFFF;" width="12.252" height="2.662"/>
					<rect x="470.056" y="128.408" style="fill:#FFFFFF;" width="21.946" height="2.662"/>
					<rect x="492.002" y="128.408" style="fill:#FFFFFF;" width="12.75" height="2.662"/>
					<rect x="432.82" y="83.806" style="fill:#FFFFFF;" width="14.579" height="2.662"/>
					<rect x="492.002" y="83.806" style="fill:#FFFFFF;" width="15.078" height="2.662"/>
					<rect x="470.056" y="83.806" style="fill:#FFFFFF;" width="21.946" height="2.662"/>
					<rect x="447.399" y="83.806" style="fill:#FFFFFF;" width="22.657" height="2.662"/>
				</g>
				<path style="fill:#83A0F0;" d="M594.884,50.212h-2.26v-1.131h2.26V50.212z M589.234,50.212h-2.26v-1.131h2.26V50.212z
					 M583.583,50.212h-2.26v-1.131h2.26V50.212z M577.933,50.212h-2.26v-1.131h2.26V50.212z M572.281,50.212h-2.26v-1.131h2.26
					V50.212z M566.631,50.212h-2.26v-1.131h2.26V50.212z M560.98,50.212h-2.26v-1.131h2.26V50.212z M555.329,50.212h-2.26v-1.131
					h2.26V50.212z M549.679,50.212h-2.26v-1.131h2.26V50.212z M544.027,50.212h-2.26v-1.131h2.26V50.212z M538.377,50.212h-2.26
					v-1.131h2.26V50.212z M532.726,50.212h-2.26v-1.131h2.26V50.212z M527.076,50.212h-2.26v-1.131h2.26V50.212z M521.424,50.212
					h-2.26v-1.131h2.26V50.212z M515.774,50.212h-2.26v-1.131h2.26V50.212z M510.125,50.212c-0.72,0-1.439,0.069-2.14,0.204
					l-0.213-1.109c0.771-0.148,1.562-0.224,2.352-0.225L510.125,50.212z M600.643,49.471l-0.281,1.094
					c-0.691-0.177-1.406-0.289-2.123-0.333l0.069-1.128C599.097,49.152,599.883,49.275,600.643,49.471z M504.946,51.469
					c-0.636,0.329-1.243,0.721-1.806,1.165l-0.7-0.888c0.619-0.487,1.288-0.918,1.986-1.281L504.946,51.469z M605.817,52.229
					l-0.751,0.844c-0.535-0.477-1.118-0.904-1.733-1.271l0.578-0.971C604.589,51.235,605.23,51.705,605.817,52.229z M500.919,54.964
					c-0.417,0.585-0.78,1.21-1.076,1.86l-1.028-0.469c0.327-0.715,0.725-1.404,1.183-2.047L500.919,54.964z M609.159,57.045
					l-1.055,0.407c-0.258-0.669-0.582-1.315-0.961-1.922l0.958-0.6C608.518,55.598,608.874,56.31,609.159,57.045z M498.937,59.911
					c-0.076,0.528-0.114,1.071-0.114,1.612v0.561h-1.131v-0.561c0-0.596,0.042-1.192,0.126-1.773L498.937,59.911z M609.988,61.523
					v1.278h-1.131v-1.278c0-0.315-0.012-0.627-0.038-0.935l1.127-0.092C609.974,60.835,609.988,61.178,609.988,61.523z
					 M609.988,68.452h-1.131v-2.26h1.131V68.452z"/>
				<path style="fill:#83A0F0;" d="M419.458,119.235h-2.26v-1.13h2.26V119.235z M413.807,119.235h-2.26v-1.13h2.26V119.235z
					 M408.044,118.821c-0.761-0.208-1.505-0.496-2.212-0.857l0.513-1.007c0.639,0.325,1.31,0.586,1.997,0.774L408.044,118.821z
					 M402.953,115.892c-0.566-0.556-1.076-1.169-1.516-1.822l0.938-0.631c0.397,0.59,0.858,1.144,1.37,1.646L402.953,115.892z
					 M399.925,110.859c-0.223-0.758-0.37-1.542-0.436-2.33l1.127-0.093c0.059,0.711,0.191,1.419,0.393,2.104L399.925,110.859z
					 M400.579,105.093h-1.131v-2.26h1.131V105.093z M303.468,102.937h-1.13v-2.261h1.13V102.937z M400.579,99.442h-1.131v-2.26
					h1.131V99.442z M303.468,97.285h-1.13v-2.26h1.13V97.285z M400.579,93.791h-1.131v-2.26h1.131V93.791z M303.468,91.635h-1.13
					v-2.26h1.13V91.635z M400.579,88.141h-1.131v-2.26h1.131V88.141z M303.468,85.984h-1.13v-2.26h1.13V85.984z M400.579,82.49
					h-1.131v-2.26h1.131V82.49z M303.468,80.333h-1.13v-0.252c0-0.691,0.037-1.385,0.11-2.064l1.124,0.121
					c-0.069,0.639-0.104,1.293-0.104,1.943V80.333z M399.177,76.954c-0.126-0.717-0.298-1.434-0.511-2.129l1.081-0.331
					c0.226,0.739,0.408,1.501,0.542,2.263L399.177,76.954z M304.221,74.922l-1.083-0.324c0.221-0.739,0.492-1.475,0.804-2.184
					l1.035,0.454C304.683,73.536,304.429,74.227,304.221,74.922z M397.422,71.79c-0.335-0.642-0.715-1.273-1.13-1.877l0.931-0.639
					c0.44,0.641,0.844,1.311,1.2,1.994L397.422,71.79z M306.567,69.998l-0.935-0.636c0.434-0.638,0.913-1.257,1.423-1.84
					l0.851,0.744C307.426,68.815,306.975,69.398,306.567,69.998z M394.192,67.391c-0.516-0.515-1.067-1.004-1.639-1.452l0.697-0.89
					c0.608,0.476,1.194,0.995,1.742,1.542L394.192,67.391z M310.283,66.003l-0.702-0.885c0.607-0.481,1.25-0.929,1.91-1.332
					l0.588,0.965C311.459,65.129,310.854,65.55,310.283,66.003z M389.796,64.161c-0.646-0.337-1.318-0.637-2-0.892l0.397-1.058
					c0.724,0.271,1.439,0.59,2.125,0.948L389.796,64.161z M315.025,63.304l-0.403-1.056c0.723-0.276,1.471-0.509,2.224-0.694
					l0.27,1.097C316.408,62.826,315.705,63.046,315.025,63.304z M384.631,62.406c-0.716-0.126-1.448-0.209-2.176-0.247l0.058-1.129
					c0.774,0.041,1.552,0.129,2.313,0.263L384.631,62.406z M320.361,62.164l-0.065-1.128c0.37-0.022,0.743-0.032,1.12-0.032h1.172
					v1.13h-1.172C321.061,62.134,320.709,62.144,320.361,62.164z M379.095,62.134h-2.26v-1.13h2.26V62.134z M373.445,62.134h-2.26
					v-1.13h2.26V62.134z M367.794,62.134h-2.26v-1.13h2.26V62.134z M362.143,62.134h-2.26v-1.13h2.26V62.134z M356.492,62.134h-2.26
					v-1.13h2.26V62.134z M350.842,62.134h-2.26v-1.13h2.26V62.134z M345.191,62.134h-2.26v-1.13h2.26V62.134z M339.539,62.134h-2.26
					v-1.13h2.26V62.134z M333.889,62.134h-2.26v-1.13h2.26V62.134z M328.238,62.134h-2.26v-1.13h2.26V62.134z"/>
			</g>
		</g>
		<g>
			<circle style="fill:#4047CC;" cx="132.906" cy="327.657" r="11.083"/>
			<path style="fill:#4047CC;" d="M645.93,318.38c5.099,0,9.248,4.149,9.248,9.248c0,5.099-4.149,9.248-9.248,9.248
				c-5.099,0-9.248-4.149-9.248-9.248C636.682,322.529,640.831,318.38,645.93,318.38 M645.93,316.546
				c-6.121,0-11.083,4.962-11.083,11.083s4.962,11.083,11.083,11.083c6.121,0,11.083-4.962,11.083-11.083
				S652.051,316.546,645.93,316.546L645.93,316.546z"/>
			<g>
				<polygon style="fill:#4047CC;" points="102.303,298.152 102.303,313.108 91.333,306.032 				"/>
				<polygon style="fill:#4047CC;" points="89.434,298.152 89.434,313.108 78.464,306.032 				"/>
			</g>
			<g>
				<polygon style="fill:#4047CC;" points="138.545,105.076 138.545,90.12 149.515,97.196 				"/>
				<polygon style="fill:#4047CC;" points="151.414,105.076 151.414,90.12 162.384,97.196 				"/>
			</g>
		</g>
		<g>
			<g>
				<path style="fill:#83A0F0;" d="M152.725,275.409h-2.26v-1.131h2.26V275.409z M147.074,275.409h-2.26v-1.131h2.26V275.409z
					 M141.423,275.409h-2.26v-1.131h2.26V275.409z M135.75,275.39c-0.773-0.032-1.549-0.103-2.305-0.211l0.159-1.118
					c0.719,0.102,1.457,0.169,2.193,0.2L135.75,275.39z M130.054,274.43c-0.734-0.222-1.467-0.486-2.18-0.784l0.437-1.042
					c0.676,0.283,1.373,0.534,2.071,0.745L130.054,274.43z M124.784,272.066c-0.657-0.402-1.301-0.841-1.912-1.306l0.683-0.9
					c0.581,0.442,1.193,0.859,1.818,1.241L124.784,272.066z M120.273,268.458c-0.534-0.551-1.048-1.137-1.527-1.741l0.886-0.702
					c0.455,0.575,0.944,1.132,1.452,1.656L120.273,268.458z M116.804,263.838c-0.381-0.668-0.731-1.364-1.042-2.068l1.034-0.457
					c0.295,0.669,0.629,1.33,0.991,1.966L116.804,263.838z M114.604,258.493c-0.2-0.742-0.365-1.504-0.488-2.264l1.116-0.182
					c0.117,0.722,0.273,1.446,0.463,2.151L114.604,258.493z M113.82,252.771l-0.001-2.266h1.13l0.001,2.254L113.82,252.771z
					 M114.948,247.115h-1.13v-2.26h1.13V247.115z M114.948,241.464h-1.13v-2.26h1.13V241.464z M114.948,235.813h-1.13v-2.261h1.13
					V235.813z M114.948,230.162h-1.13v-2.26h1.13V230.162z M114.948,224.511h-1.13v-2.26h1.13V224.511z M114.948,218.861h-1.13
					v-2.26h1.13V218.861z M114.948,213.21h-1.13v-2.26h1.13V213.21z M114.948,207.559h-1.13v-2.26h1.13V207.559z M114.948,201.908
					h-1.13v-2.26h1.13V201.908z M114.948,196.258h-1.13v-2.26h1.13V196.258z M114.948,190.607h-1.13v-2.26h1.13V190.607z
					 M114.948,184.955h-1.13v-2.26h1.13V184.955z M114.948,179.305h-1.13v-2.26h1.13V179.305z M114.948,173.654h-1.13v-2.26h1.13
					V173.654z M114.948,168.004h-1.13v-2.26h1.13V168.004z M115.025,162.404l-1.126-0.095c0.065-0.769,0.169-1.541,0.31-2.295
					l1.111,0.208C115.186,160.938,115.087,161.673,115.025,162.404z M116.173,157.035l-1.066-0.374
					c0.255-0.726,0.55-1.447,0.878-2.145l1.023,0.482C116.696,155.66,116.415,156.346,116.173,157.035z M118.635,152.127
					l-0.938-0.63c0.427-0.636,0.894-1.26,1.388-1.855l0.87,0.721C119.484,150.929,119.04,151.523,118.635,152.127z M122.247,147.991
					l-0.751-0.845c0.577-0.513,1.185-1.002,1.806-1.451l0.662,0.915C123.374,147.039,122.796,147.502,122.247,147.991z
					 M126.779,144.885l-0.517-1.005c0.685-0.352,1.396-0.673,2.112-0.952l0.411,1.053
					C128.105,144.246,127.43,144.55,126.779,144.885z M131.945,143.018l-0.247-1.102c0.75-0.168,1.518-0.299,2.284-0.389
					l0.132,1.122C133.387,142.735,132.656,142.859,131.945,143.018z M167.945,142.497h-2.26v-1.131h2.26V142.497z M162.295,142.497
					h-2.26v-1.131h2.26V142.497z M156.644,142.497h-2.26v-1.131h2.26V142.497z M150.993,142.497h-2.26v-1.131h2.26V142.497z
					 M145.343,142.497h-2.261v-1.131h2.261V142.497z M139.691,142.497h-2.26v-1.131h2.26V142.497z"/>
				<g>
					<g>
						<g>
							<path style="fill:#383FC1;" d="M323.176,116.236c-0.195-0.874-0.971-1.496-1.867-1.496c-20.584,0-38.333-5.092-49.598-9.364
								c-12.237-4.64-19.687-9.345-19.76-9.392c-0.307-0.196-0.673-0.3-1.038-0.3c-0.364,0-0.721,0.104-1.028,0.3
								c-0.074,0.047-7.524,4.752-19.761,9.392c-11.265,4.272-29.013,9.364-49.598,9.364c-0.899,0-1.676,0.626-1.869,1.503
								c-0.134,0.611-3.253,15.21-0.665,35.683c1.519,12.019,4.709,23.556,9.48,34.29c5.962,13.412,14.421,25.595,25.14,36.211
								c0.056,0.059,0.112,0.115,0.171,0.17c10.298,10.161,22.838,19.029,37.269,26.357c0.272,0.138,0.569,0.207,0.866,0.207
								s0.594-0.069,0.866-0.207c19.426-9.865,35.297-22.437,47.174-37.365c9.692-12.182,16.786-25.989,21.084-41.038
								c7.569-26.503,4.105-49.049,3.333-53.303C323.258,116.604,323.179,116.251,323.176,116.236z"/>
							<g>
								<path style="fill:#B9C0FC;" d="M325.043,115.819c-0.391-1.749-1.942-2.992-3.734-2.992c-20.249,0-37.723-5.003-48.816-9.201
									c-12.083-4.572-19.443-9.21-19.516-9.257c-0.613-0.39-1.328-0.598-2.054-0.598h-0.009c-0.729,0-1.442,0.208-2.057,0.6
									c-0.07,0.045-7.43,4.683-19.513,9.255c-11.093,4.197-28.568,9.201-48.816,9.201c-1.797,0-3.352,1.251-3.737,3.007
									c-0.137,0.625-3.323,15.536-0.695,36.333c1.543,12.204,4.783,23.922,9.63,34.827c6.055,13.622,14.642,25.995,25.523,36.774
									c0.067,0.07,0.136,0.139,0.207,0.206c10.436,10.294,23.131,19.273,37.733,26.688c0.544,0.276,1.138,0.415,1.732,0.415
									c0.594,0,1.188-0.138,1.732-0.415c19.672-9.991,35.756-22.735,47.805-37.879c9.85-12.38,17.058-26.411,21.426-41.704
									c3.24-11.343,4.885-23.194,4.89-35.224c0.004-9.548-1.057-16.427-1.513-18.942
									C325.135,116.234,325.052,115.86,325.043,115.819z M250.919,247.25c-15.196-7.716-27.257-16.601-36.81-26.031
									c-0.044-0.041-0.085-0.082-0.126-0.126c-46.306-45.83-33.457-104.439-33.457-104.439c40.499,0,70.387-19.055,70.387-19.055
									h0.009c0,0,29.888,19.055,70.387,19.055c0,0,0.072,0.325,0.186,0.942C323.202,127.006,334.535,204.785,250.919,247.25z"/>
							</g>
						</g>
						<path style="fill:#4047CC;" d="M251.867,98.543h-0.009c0,0-29.888,19.055-70.387,19.055c0,0-12.672,57.806,32.512,103.494
							c0.041,0.044,0.082,0.085,0.126,0.126c9.553,9.43,21.614,18.315,36.81,26.031c83.616-42.465,72.283-120.243,70.576-129.654
							C281.383,117.362,251.867,98.543,251.867,98.543z"/>
						<g>
							<path style="fill:#4047CC;" d="M251.948,120.036c-10.883,5.275-29.684,12.768-52.939,15.469
								c-0.077,7.294,0.574,16.853,3.237,27.298c6.787,26.621,23.49,47.946,49.703,63.503
								c26.213-15.557,42.916-36.882,49.702-63.503c2.663-10.444,3.313-20.004,3.236-27.298
								C281.632,132.804,262.831,125.311,251.948,120.036z"/>
						</g>
						<path style="fill:#5E60F4;" d="M250.917,119.234c-10.883,5.275-29.684,12.768-52.939,15.469
							c-0.077,7.294,0.574,16.853,3.237,27.298c6.787,26.621,23.49,47.946,49.703,63.503c26.213-15.557,42.916-36.882,49.702-63.503
							c2.663-10.444,3.313-20.004,3.236-27.298C280.602,132.002,261.8,124.508,250.917,119.234z"/>
						<g>
							<g style="opacity:0.2;">
								<path d="M255.842,128.136c-1.981-3.431-6.932-3.431-8.913,0l-36.279,62.836c-1.981,3.431,0.495,7.719,4.456,7.719h72.557
									c3.961,0,6.437-4.288,4.456-7.719L255.842,128.136z"/>
							</g>
							<g>
								<path style="fill:#383FC1;" d="M255.374,126.733c-1.981-3.431-6.932-3.431-8.913,0l-36.279,62.836
									c-1.981,3.431,0.495,7.719,4.456,7.719h72.557c3.961,0,6.437-4.288,4.456-7.719L255.374,126.733z"/>
							</g>
						</g>
						<path style="fill:#F9CF70;" d="M251.121,129.189c-0.033-0.058-0.068-0.117-0.203-0.117c-0.135,0-0.17,0.06-0.203,0.117
							l-36.279,62.836c-0.033,0.058-0.068,0.117,0,0.234c0.068,0.117,0.136,0.117,0.203,0.117h72.557c0.067,0,0.135,0,0.203-0.117
							c0.068-0.117,0.033-0.177,0-0.234L251.121,129.189z"/>
						<g>
							<path style="fill:#383FC1;" d="M250.942,175.316c-3.411,0-5.81,2.241-5.81,5.25c0,2.955,2.399,5.354,5.81,5.354
								c3.416,0,5.76-2.399,5.76-5.354C256.703,177.557,254.358,175.316,250.942,175.316z"/>
							<polygon style="fill:#383FC1;" points="247.07,172.461 254.769,172.461 256.703,149.78 245.186,149.78 							"/>
						</g>
					</g>
					<g>
						<g>
							<path style="fill:#FDC51C;" d="M238.469,294.03c0,1.948-1.576,3.524-3.52,3.524h-88.961c-1.946,0-3.524-1.576-3.524-3.524
								v-53.59c0-1.942,1.578-3.52,3.524-3.52h88.961c1.943,0,3.52,1.578,3.52,3.52V294.03z"/>
							<polygon style="fill:#FFD454;" points="142.465,257.552 142.465,262.424 190.468,291.992 238.469,262.424 238.469,257.552 
								190.468,287.116 							"/>
							<polygon style="fill:#DBAB18;" points="142.465,256.136 142.465,261.01 190.468,290.575 238.469,261.01 238.469,256.136 
								190.468,285.7 							"/>
							<g>
								<defs>
									<path id="SVGID_1_" d="M238.469,294.03c0,1.948-1.576,3.524-3.52,3.524h-88.961c-1.946,0-3.524-1.576-3.524-3.524v-53.59
										c0-1.942,1.578-3.52,3.524-3.52h88.961c1.943,0,3.52,1.578,3.52,3.52V294.03z"/>
								</defs>
								<clipPath id="SVGID_00000149373356319549182360000001606059782686832049_">
									<use xlink:href="#SVGID_1_"  style="overflow:visible;"/>
								</clipPath>
							</g>
						</g>
						<g>
							<path style="fill:#FFFFFF;" d="M195.788,264.138c0.23,0.184,0.605,0.275,1.138,0.275c0.847,0,1.603-0.252,2.265-0.757
								c0.667-0.505,1.223-1.158,1.674-1.96c0.448-0.807,0.784-1.694,1.012-2.669c0.233-0.978,0.348-1.931,0.348-2.875
								c0-2.641-0.807-4.661-2.413-6.058c-1.606-1.402-3.869-2.102-6.781-2.102c-2.248,0-4.246,0.386-6.004,1.158
								c-1.755,0.766-3.233,1.802-4.443,3.095c-1.2,1.297-2.117,2.787-2.747,4.474c-0.636,1.685-0.951,3.437-0.951,5.245
								c0,1.657,0.249,3.067,0.74,4.235c0.493,1.169,1.164,2.13,2.016,2.878c0.844,0.745,1.841,1.292,2.976,1.632
								c1.138,0.345,2.349,0.516,3.633,0.516c1.189,0,2.294-0.073,3.305-0.227c1.004-0.145,1.924-0.382,2.752-0.701
								c0.207,0.504,0.403,1.023,0.585,1.566c0.18,0.538,0.344,1.074,0.479,1.597c-0.413,0.213-0.906,0.401-1.478,0.572
								c-0.569,0.171-1.191,0.309-1.859,0.413c-0.664,0.103-1.368,0.179-2.116,0.239c-0.746,0.059-1.488,0.089-2.22,0.089
								c-1.766,0-3.437-0.253-5.024-0.759c-1.583-0.504-2.974-1.279-4.166-2.323c-1.192-1.046-2.13-2.36-2.82-3.942
								c-0.689-1.579-1.032-3.459-1.032-5.643c0-2.041,0.373-4.107,1.118-6.197c0.745-2.086,1.884-3.975,3.422-5.662
								c1.541-1.685,3.498-3.061,5.875-4.129c2.372-1.065,5.186-1.598,8.443-1.598c1.747,0,3.395,0.232,4.944,0.704
								c1.547,0.469,2.903,1.189,4.062,2.153c1.155,0.962,2.072,2.17,2.752,3.631c0.675,1.458,1.012,3.167,1.012,5.143
								c0,1.419-0.235,2.826-0.704,4.216c-0.471,1.385-1.126,2.632-1.979,3.736c-0.849,1.101-1.878,1.991-3.078,2.682
								c-1.206,0.689-2.542,1.045-4.009,1.07c-1.676,0-2.948-0.438-3.82-1.309c-0.689,0.344-1.416,0.65-2.169,0.913
								c-0.76,0.264-1.712,0.396-2.856,0.396c-0.737,0-1.427-0.109-2.069-0.328c-0.639-0.221-1.203-0.558-1.688-1.032
								c-0.477-0.469-0.863-1.063-1.147-1.775c-0.288-0.706-0.431-1.556-0.431-2.545c0-1.561,0.254-2.986,0.773-4.283
								c0.518-1.297,1.223-2.417,2.114-3.355c0.897-0.941,1.937-1.679,3.117-2.206c1.183-0.527,2.448-0.791,3.801-0.791
								c1.034,0,2.051,0.078,3.049,0.224c1,0.151,1.932,0.387,2.806,0.707L195.788,264.138z M193.101,255.398
								c-0.252-0.072-0.485-0.12-0.704-0.138c-0.219-0.025-0.452-0.036-0.704-0.036c-0.757,0-1.432,0.174-2.015,0.512
								c-0.586,0.347-1.084,0.799-1.499,1.363c-0.412,0.563-0.726,1.222-0.947,1.963c-0.216,0.743-0.325,1.516-0.325,2.323
								c0,1.028,0.224,1.778,0.672,2.237c0.445,0.46,1.035,0.684,1.769,0.684c0.457,0,0.854-0.028,1.189-0.098
								c0.333-0.07,0.693-0.163,1.08-0.281L193.101,255.398z"/>
						</g>
					</g>
				</g>
			</g>
			<g>
				<circle style="fill:#5E60F4;" cx="464.821" cy="234.445" r="76.095"/>
				<g>
					<g>
						
							<rect x="422.361" y="216.372" transform="matrix(-1 -4.488866e-11 4.488866e-11 -1 911.7468 488.2796)" style="fill:#F9CF70;" width="67.024" height="55.536"/>
						<rect x="489.385" y="216.372" style="fill:#F9CF70;" width="14.726" height="55.536"/>
						<path style="fill:#383FC1;" d="M444.67,239.23c0-5.723,4.772-10.332,10.553-10.064c5.157,0.238,9.388,4.503,9.59,9.661
							c0.158,4.041-2.068,7.574-5.383,9.319v6.461c0,2.587-2.097,4.685-4.685,4.685l0,0c-2.587,0-4.685-2.097-4.685-4.685v-6.461
							C446.857,246.46,444.67,243.102,444.67,239.23z"/>
						<path style="fill:#FFFFFF;" d="M489.946,216.372h-9.499V206.4c0-10.189-8.289-18.478-18.478-18.478
							c-10.189,0-18.478,8.289-18.478,18.478v9.972h-9.499V206.4c0-15.427,12.55-27.977,27.977-27.977
							c15.427,0,27.977,12.55,27.977,27.977V216.372z"/>
					</g>
					<g>
						<g>
							<g>
								<rect x="472.475" y="256.383" style="fill:#E3ECFC;" width="77.438" height="44.54"/>
							</g>
						</g>
						<g>
							<g>
								<polygon style="fill:#F7F9FC;" points="549.913,300.923 472.475,300.923 511.194,270.279 								"/>
							</g>
						</g>
						<g>
							<g>
								<path style="fill:#031162;" d="M517.995,266.123c2.128,1.114,3.784,2.665,4.966,4.653c1.183,1.989,1.775,4.236,1.775,6.741
									c0,2.585-0.507,4.608-1.521,6.07c-1.014,1.462-2.417,2.192-4.205,2.192c-0.955,0-1.761-0.223-2.416-0.671
									c-0.656-0.447-1.114-1.088-1.372-1.924c-1.193,1.731-2.983,2.595-5.369,2.595c-1.352,0-2.575-0.323-3.668-0.969
									c-1.094-0.646-1.949-1.547-2.565-2.699c-0.617-1.153-0.924-2.466-0.924-3.938c0-1.451,0.308-2.749,0.924-3.892
									c0.616-1.143,1.471-2.038,2.565-2.685c1.093-0.646,2.316-0.969,3.668-0.969c1.054,0,2.004,0.179,2.849,0.537
									c0.845,0.357,1.556,0.884,2.133,1.58v-1.939h3.311v10.141c0,0.716,0.144,1.234,0.433,1.551
									c0.288,0.318,0.66,0.477,1.118,0.477c0.815,0,1.436-0.462,1.864-1.387c0.427-0.924,0.641-2.261,0.641-4.012
									c0-2.107-0.482-3.967-1.447-5.578c-0.964-1.61-2.311-2.863-4.041-3.758c-1.731-0.894-3.719-1.342-5.966-1.342
									c-2.267,0-4.276,0.473-6.025,1.417c-1.751,0.945-3.102,2.262-4.057,3.952c-0.954,1.691-1.431,3.609-1.431,5.757
									c0,2.188,0.473,4.126,1.417,5.816c0.944,1.69,2.282,3.007,4.012,3.952c1.73,0.944,3.718,1.417,5.965,1.417
									c0.974,0,1.964-0.11,2.968-0.328s1.944-0.547,2.819-0.984l0.806,2.387c-0.875,0.457-1.905,0.805-3.088,1.044
									c-1.183,0.239-2.352,0.357-3.505,0.357c-2.784,0-5.245-0.587-7.382-1.76c-2.138-1.174-3.799-2.794-4.982-4.862
									s-1.774-4.415-1.774-7.039c0-2.585,0.597-4.907,1.79-6.965c1.193-2.058,2.868-3.674,5.026-4.848
									c2.157-1.173,4.638-1.76,7.442-1.76C513.452,264.453,515.867,265.01,517.995,266.123z M513.656,281.619
									c0.825-0.845,1.238-1.993,1.238-3.445c0-1.431-0.413-2.565-1.238-3.401c-0.825-0.835-1.884-1.253-3.177-1.253
									c-1.313,0-2.377,0.423-3.192,1.268c-0.815,0.845-1.223,1.974-1.223,3.385c0,1.432,0.407,2.575,1.223,3.431
									c0.815,0.855,1.879,1.283,3.192,1.283C511.772,282.887,512.83,282.464,513.656,281.619z"/>
							</g>
						</g>
						<g>
							<g>
								
									<ellipse transform="matrix(0.1602 -0.9871 0.9871 0.1602 207.7882 758.448)" style="fill:#F9CF70;" cx="549.619" cy="257.111" rx="9.328" ry="9.328"/>
							</g>
						</g>
						<g>
							<g>
								<path style="fill:#FFFFFF;" d="M552.062,256.959l2.738,1.513l-0.937,1.632l-2.785-1.632l0.024,3.098h-1.825l0.025-3.074
									l-2.762,1.609l-0.96-1.632l2.762-1.513l-2.762-1.513l0.96-1.657l2.762,1.632l-0.025-3.073h1.825l-0.024,3.098l2.785-1.657
									l0.937,1.657L552.062,256.959z"/>
							</g>
						</g>
					</g>
				</g>
			</g>
			<g>
				<g>
					<path style="fill:#FDC51C;" d="M314.899,233.419c0.287-2.962,0.783-5.954,0.142-8.921s-3.014-6.175-6.322-7.374
						c-2.866-0.942-6.465-0.567-8.864,0.871c-2.4,1.438-4.012,3.65-5.045,6.001s-1.537,4.862-2.093,7.347
						c-0.743,3.322-1.677,6.603-2.287,9.954c-0.602,3.304-0.221,6.377-0.32,9.706c-0.029,0.973,14.016,0.726,15.314,0.721
						c1.327-0.005,2.654,0.006,3.98,0.065c0.794,0.036,3.201,0.653,3.842,0.291c0.625-0.354,0.977-2.829,1.14-3.509
						c0.297-1.247,0.498-2.524,0.44-3.81C314.654,240.955,314.531,237.212,314.899,233.419z"/>
					<g>
						<g>
							<path style="fill:#FE9A71;" d="M304.933,239.077c-1.944-0.274-3.467-0.997-4.492-2.173c0.01,1.82-0.099,3.305-0.444,5.141
								c0.525,0.923,1.87,1.161,2.904,1.4c1.034,0.239,2.123,0.136,3.153-0.123c0.145-1.56,0.29-2.732,0.525-4.221
								C306.065,239.164,305.517,239.159,304.933,239.077z"/>
							<path style="fill:#DD7957;" d="M300.547,237.019c1.163,2.215,3.247,4.12,5.802,3.645c0.067-0.501,0.142-1.01,0.229-1.563
								c-0.513,0.063-1.062,0.058-1.646-0.025C303.054,238.812,301.57,238.126,300.547,237.019z"/>
						</g>
						<g>
							<path style="fill:#FE9A71;" d="M312.745,224.551c-0.566-1.866-1.955-3.763-3.795-4.559c-1.218,2.055-3.18,6.542-9.284,9.65
								c-0.548-1.54-1.65-1.144-2.08-0.889c-0.211,0.125-0.37,0.331-0.491,0.552c-0.466,0.849-0.392,1.987,0.177,2.752
								c0.399,0.535,1.023,0.864,1.668,0.919c0.045,0.427,0.105,0.836,0.185,1.209c0.606,2.826,2.656,4.448,5.808,4.892
								C312.392,240.126,313.97,228.587,312.745,224.551z"/>
							<path style="fill:#BA5B45;" d="M298.702,231.213c-0.089-0.014-0.15-0.097-0.138-0.186c0.045-0.333,0.022-0.594-0.071-0.799
								c-0.108-0.237-0.333-0.399-0.545-0.394c-0.092,0.002-0.168-0.07-0.17-0.162c-0.002-0.092,0.07-0.168,0.162-0.17
								c0.348-0.008,0.692,0.228,0.856,0.588c0.12,0.264,0.152,0.585,0.098,0.981c-0.012,0.091-0.096,0.154-0.187,0.142
								C298.704,231.214,298.703,231.213,298.702,231.213z"/>
							<g>
								<path style="fill:#561D05;" d="M311.05,230.342c-0.042,0.487-0.408,0.853-0.818,0.818c-0.41-0.035-0.709-0.458-0.667-0.945
									c0.042-0.487,0.408-0.853,0.818-0.818C310.793,229.432,311.092,229.855,311.05,230.342z"/>
								<path style="fill:#561D05;" d="M304.759,230.086c-0.042,0.487-0.408,0.853-0.818,0.818c-0.41-0.035-0.709-0.458-0.667-0.945
									c0.042-0.487,0.408-0.853,0.818-0.818C304.502,229.176,304.801,229.599,304.759,230.086z"/>
								<path style="fill:#BA5B45;" d="M306.744,233.265c-0.016-0.001-0.031-0.003-0.046-0.004c-0.1-0.009-0.174-0.098-0.165-0.198
									c0.009-0.1,0.096-0.17,0.198-0.165c0.801,0.074,1.339-0.004,1.588-0.231c-0.9-0.856-1.126-2.137-0.528-3.109
									c0.053-0.086,0.164-0.112,0.25-0.06c0.086,0.053,0.112,0.165,0.06,0.25c-0.531,0.864-0.285,2.025,0.585,2.76l0.118,0.1
									l-0.079,0.133C308.375,233.326,307.439,233.324,306.744,233.265z"/>
								<g>
									<path style="fill:#FFFFFF;" d="M308.769,234.451c-1.559-0.122-3.119-0.244-4.678-0.366
										c-0.031,1.31,1.053,2.374,2.175,2.498C307.386,236.708,308.451,235.73,308.769,234.451z"/>
									<path style="fill:#E8EAEA;" d="M308.67,234.77c0.038-0.104,0.072-0.21,0.099-0.319c-1.559-0.122-3.119-0.244-4.678-0.366
										c-0.004,0.168,0.011,0.332,0.042,0.491C305.601,234.996,307.169,235.06,308.67,234.77z"/>
								</g>
								<path style="fill:#9E2518;" d="M312.191,227.276c-0.795-0.809-2.039-0.823-2.893-0.034
									c-0.106,0.098-0.131,0.275-0.055,0.402c0.042,0.071,0.109,0.115,0.184,0.121c0.065,0.006,0.128-0.017,0.179-0.065
									c0.652-0.604,1.639-0.593,2.245,0.024c0.05,0.051,0.115,0.076,0.183,0.069c0.072-0.007,0.139-0.048,0.183-0.114
									C312.303,227.555,312.291,227.378,312.191,227.276z"/>
								<path style="fill:#9E2518;" d="M305.757,226.669c-1.096-0.656-2.513-0.509-3.527,0.364
									c-0.113,0.098-0.139,0.275-0.059,0.404c0.044,0.071,0.114,0.115,0.192,0.122c0.065,0.006,0.13-0.016,0.183-0.061
									c0.851-0.733,2.039-0.856,2.956-0.308c0.059,0.036,0.128,0.044,0.194,0.023c0.072-0.023,0.134-0.079,0.168-0.154
									C305.929,226.915,305.882,226.743,305.757,226.669z"/>
							</g>
						</g>
					</g>
				</g>
				<g>
					<polygon style="fill:#383FC1;" points="243.314,416.771 233.984,428.61 252.042,445.975 247.527,422.822 					"/>
					<polygon style="fill:#383FC1;" points="314.323,429.426 315.867,444.421 340.918,444.317 321.56,430.838 					"/>
					<path style="fill:#383FC1;" d="M283.451,246.343l-7.393,43.002l29.492,7.385l10.949-41.426
						c1.237-6.067-2.958-11.901-9.103-12.659l-16.171-1.996C287.536,240.194,284.13,242.689,283.451,246.343z"/>
					<path style="fill:#383FC1;" d="M315.182,248.566c3.932,14.545,12.479,41.582,12.479,41.582l8.936,0.71
						c1.733,1.988,4.551,2.598,8.359,1.948c0,0-4.577,8.393-15.368,9.33c-16.183,1.404-22.13-34.911-22.13-34.911L315.182,248.566z"
						/>
					<g>
						<path style="fill:#031162;" d="M306.438,294.756c-10.088-2.15-20.149-4.288-30.226-6.433
							c-16.592,15.34-6.935,57.864-2.468,75.631c-11.351,17.6-22.699,35.2-34.05,52.801c3.89,4.298,7.721,8.622,11.648,12.904
							c11.83-17.014,24.733-34.525,36.218-51.347c3.603-5.277,4.22-7.852,4.503-14.111c0.494-10.938-0.215-22.958,0.215-34.53
							c4.249,15.989,12.182,23.322,15.615,41.393c3.433,18.071,2.586,46.298,5.289,66.33c5.471-0.678,11.268-2.056,16.872-3.052
							c-0.336-22.453-0.82-45.539-1.156-67.704c-0.05-3.299-0.206-4.008-1.125-6.855
							C320.803,338.196,313.502,316.411,306.438,294.756z"/>
					</g>
					<g>
						
							<rect x="307.306" y="266.1" transform="matrix(0.254 -0.9672 0.9672 0.254 -23.9842 502.1027)" style="fill:#83A0F0;" width="12.399" height="1"/>
					</g>
					<g>
						<path style="fill:#83A0F0;" d="M322.651,294.676l-0.944-0.328c1.556-4.484,5.892-4.698,5.936-4.7l0.039,1
							C327.531,290.654,323.979,290.851,322.651,294.676z"/>
					</g>
					<g>
						<path style="fill:#83A0F0;" d="M291.509,329.649c-0.037-23.055,10.222-30.053,10.658-30.339l0.55,0.835
							c-0.103,0.068-10.244,7.042-10.208,29.502L291.509,329.649z"/>
					</g>
					<g>
						<path style="fill:#83A0F0;" d="M243.439,421.032l-0.852-0.525l34.042-55.259c-0.46-2.055-4.271-19.458-5.584-38.399
							c-1.398-20.175,5.606-33.4,5.677-33.531l0.88,0.475c-0.069,0.129-6.936,13.12-5.559,32.988
							c1.386,19.99,5.564,38.262,5.606,38.444l0.046,0.2l-0.107,0.175L243.439,421.032z"/>
					</g>
					<g>
						<path style="fill:#83A0F0;" d="M273.039,306.711l-0.192-0.98c8.354-1.641,9.625-11.184,9.637-11.279l0.992,0.121
							C283.464,294.676,282.113,304.93,273.039,306.711z"/>
					</g>
					<g>
						<path style="fill:#F9CF70;" d="M313.376,280.328c7.924,11.669,23.808,14.705,35.477,6.781
							c9.52-6.465,13.291-18.225,10.057-28.675l30.043-20.401l5.634,8.296l7.951-5.399l-3.844-5.66l6.568-4.46l4.698,6.895
							l8.285-5.627l-13.05-19.217l-52.231,35.469c-8.461-8.87-22.331-10.595-32.807-3.481
							C308.487,252.775,305.452,268.659,313.376,280.328z M320.821,276.788c-2.965-4.367-1.829-10.312,2.537-13.277
							c4.367-2.965,10.312-1.829,13.277,2.537c2.966,4.368,1.83,10.311-2.537,13.277C329.73,282.29,323.786,281.155,320.821,276.788
							z"/>
					</g>
					<path style="fill:#383FC1;" d="M361.957,231.405c0,0-29.304,17.215-72.055,9.19l-5.243,18.604c0,0,53.998,4.423,82.89-18.604
						L361.957,231.405z"/>
					<path style="fill:#FE9A71;" d="M362.526,232.34c0,0,8.239-6.013,8.834-6.145c2.709-0.602,8.957,1.164,9.229,2.006
						c0.401,1.241-7.725,0.1-7.725,0.1s9.731,1.586,8.928,2.589c-0.803,1.003-8.627,0-8.627,0s9.13,1.438,8.674,2.484
						c-0.455,1.046-8.875,0-8.875,0s8.828,1.247,7.323,2.551s-7.529-2.082-14.749,1.367L362.526,232.34z"/>
					<g>
						<path style="fill:#83A0F0;" d="M294.468,260.222c-3.522,0-6.946-0.145-9.874-0.526l0.129-0.992
							c12.11,1.58,32.928-0.938,33.136-0.963l0.122,0.992C317.821,258.752,305.662,260.222,294.468,260.222z"/>
					</g>
					<path style="fill:#FE9A71;" d="M344.506,292.806c3.43-5.296,1.635-19.389,0.647-19.569c-0.987-0.18-0.647,8.438-0.647,8.438
						s-2.136-9.066-3.841-9.066s1.167,10.099,1.167,10.099s-4.219-10.547-5.476-10.099c-1.257,0.449,2.825,10.64,2.825,10.64
						s-2.915-6.241-4.082-5.613c-1.167,0.628,2.154,6.643,2.154,6.643c0.539,4.488-0.747,2.091-0.657,6.579
						C337.494,293.892,340.459,294.09,344.506,292.806z"/>
				</g>
			</g>
		</g>
		<path style="fill:#2B012D;" d="M638.656,446.535H141.094c-0.656,0-1.189-0.532-1.189-1.189c0-0.656,0.532-1.189,1.189-1.189
			h497.562c0.656,0,1.189,0.532,1.189,1.189C639.844,446.003,639.312,446.535,638.656,446.535z"/>
	</g>
</g>
</svg>
