<?xml version="1.0" encoding="utf-8"?>
<!-- Generator: Adobe Illustrator 27.5.0, SVG Export Plug-In . SVG Version: 6.00 Build 0)  -->
<svg version="1.1" xmlns="http://www.w3.org/2000/svg" xmlns:xlink="http://www.w3.org/1999/xlink" x="0px" y="0px"
	 viewBox="0 0 750 500" style="enable-background:new 0 0 750 500;" xml:space="preserve">
<g id="BACKGROUND">
	<rect style="fill:#B2C7EF;" width="750" height="500"/>
</g>
<g id="OBJECTS">
	<g>
		<g>
			<path style="fill:#A0B8E8;" d="M686.892,443.846c6.678-25.836,10.235-52.928,10.235-80.851
				c0-177.906-144.221-322.128-322.127-322.128S52.872,185.088,52.872,362.994c0,27.923,3.557,55.015,10.235,80.851H686.892z"/>
			<circle style="fill:#A0B8E8;" cx="95.638" cy="166.883" r="10.576"/>
			<path style="fill:#A0B8E8;" d="M113.573,145.992c0,1.933-1.567,3.5-3.5,3.5c-1.933,0-3.5-1.567-3.5-3.5
				c0-1.933,1.567-3.5,3.5-3.5C112.006,142.492,113.573,144.059,113.573,145.992z"/>
			<path style="fill:#A0B8E8;" d="M698.204,222.399c0,1.933-1.567,3.5-3.5,3.5c-1.933,0-3.5-1.567-3.5-3.5
				c0-1.933,1.567-3.5,3.5-3.5C696.637,218.899,698.204,220.466,698.204,222.399z"/>
			<path style="fill:#A0B8E8;" d="M42.1,394.345c0,1.933-1.567,3.5-3.5,3.5c-1.933,0-3.5-1.567-3.5-3.5c0-1.933,1.567-3.5,3.5-3.5
				C40.533,390.845,42.1,392.412,42.1,394.345z"/>
			<path style="fill:#A0B8E8;" d="M278.517,47.69c0,1.933-1.567,3.5-3.5,3.5c-1.933,0-3.5-1.567-3.5-3.5s1.567-3.5,3.5-3.5
				C276.95,44.19,278.517,45.757,278.517,47.69z"/>
			<path style="fill:#A0B8E8;" d="M42.1,294.612c0,1.933-1.567,3.5-3.5,3.5c-1.933,0-3.5-1.567-3.5-3.5c0-1.933,1.567-3.5,3.5-3.5
				C40.533,291.112,42.1,292.679,42.1,294.612z"/>
			<path style="fill:#A0B8E8;" d="M357.417,27.371c0,1.933-1.567,3.5-3.5,3.5c-1.933,0-3.5-1.567-3.5-3.5c0-1.933,1.567-3.5,3.5-3.5
				C355.851,23.871,357.417,25.438,357.417,27.371z"/>
			<path style="fill:#A0B8E8;" d="M562.044,39.683c0,1.933-1.567,3.5-3.5,3.5c-1.933,0-3.5-1.567-3.5-3.5c0-1.933,1.567-3.5,3.5-3.5
				C560.477,36.183,562.044,37.75,562.044,39.683z"/>
			
				<ellipse transform="matrix(0.9239 -0.3827 0.3827 0.9239 -65.3624 295.8315)" style="fill:#A0B8E8;" cx="710.943" cy="312.216" rx="11.817" ry="11.817"/>
			<circle style="fill:#A0B8E8;" cx="34.876" cy="424.666" r="11.817"/>
			<path style="fill:#A0B8E8;" d="M710.943,338.433c0,2.148-1.742,3.89-3.89,3.89c-2.148,0-3.89-1.742-3.89-3.89
				s1.742-3.89,3.89-3.89C709.201,334.543,710.943,336.285,710.943,338.433z"/>
			<path style="fill:#A0B8E8;" d="M719.474,411.772c0,3.43-2.781,6.211-6.211,6.211s-6.211-2.781-6.211-6.211
				s2.781-6.211,6.211-6.211S719.474,408.342,719.474,411.772z"/>
			<path style="fill:#A0B8E8;" d="M604.886,111.91c0,3.346-2.712,6.058-6.058,6.058c-3.346,0-6.058-2.712-6.058-6.058
				c0-3.346,2.712-6.058,6.058-6.058C602.174,105.852,604.886,108.565,604.886,111.91z"/>
			<circle style="fill:#A0B8E8;" cx="523.83" cy="54.254" r="13.387"/>
			<path style="fill:#A0B8E8;" d="M563.942,65.431c0,3.37-2.732,6.102-6.102,6.102c-3.37,0-6.102-2.732-6.102-6.102
				c0-3.37,2.732-6.102,6.102-6.102C561.211,59.33,563.942,62.062,563.942,65.431z"/>
			<path style="fill:#A0B8E8;" d="M262.015,41.443c0,3.37-2.732,6.102-6.102,6.102s-6.102-2.732-6.102-6.102
				c0-3.37,2.732-6.102,6.102-6.102S262.015,38.073,262.015,41.443z"/>
		</g>
		<g>
			<rect x="441.599" y="322.842" style="fill:#FFFFFF;" width="169.94" height="121.307"/>
			<rect x="441.599" y="322.842" style="fill:#1E4B97;" width="169.94" height="11.701"/>
			<rect x="441.599" y="421.294" style="fill:#1E4B97;" width="169.94" height="22.854"/>
			<path style="fill:#1E4B97;" d="M526.569,398.561c-10.756,0-19.506-8.75-19.506-19.506c0-10.756,8.75-19.506,19.506-19.506
				c10.756,0,19.507,8.75,19.507,19.506C546.075,389.811,537.324,398.561,526.569,398.561z M526.569,360.048
				c-10.479,0-19.006,8.526-19.006,19.006c0,10.48,8.526,19.006,19.006,19.006c10.48,0,19.007-8.526,19.007-19.006
				C545.575,368.575,537.049,360.048,526.569,360.048z"/>
			<polygon style="fill:#1E4B97;" points="519.613,369.362 519.613,388.747 538.11,379.055 			"/>
			<rect x="441.599" y="414.672" style="fill:#FFCE00;" width="169.94" height="6.621"/>
			<rect x="441.599" y="414.672" style="fill:#E05A77;" width="118.737" height="6.621"/>
			<path style="fill:#E05A77;" d="M568.658,417.983c0,3.691-2.992,6.682-6.682,6.682c-3.691,0-6.682-2.992-6.682-6.682
				c0-3.691,2.992-6.682,6.682-6.682C565.667,411.301,568.658,414.293,568.658,417.983z"/>
			<path style="fill:#A31C46;" d="M555.979,421.462c-0.612-1.052-0.936-2.255-0.936-3.479c0-1.205,0.314-2.393,0.91-3.435
				l0.434,0.248c-0.552,0.966-0.844,2.068-0.844,3.187c0,1.136,0.3,2.253,0.867,3.228L555.979,421.462z"/>
			<path style="fill:#FFFFFF;" d="M565.329,417.983c0,1.852-1.501,3.354-3.353,3.354c-1.852,0-3.354-1.501-3.354-3.354
				c0-1.852,1.501-3.354,3.354-3.354C563.828,414.63,565.329,416.131,565.329,417.983z"/>
			<g>
				<g>
					<rect x="523.698" y="428.269" style="fill:#FFFFFF;" width="2" height="8.504"/>
					<rect x="527.44" y="428.269" style="fill:#FFFFFF;" width="2" height="8.504"/>
				</g>
				<g>
					<polygon style="fill:#FFFFFF;" points="546.756,428.269 546.756,436.773 551.414,432.521 546.756,428.269 					"/>
					<polygon style="fill:#FFFFFF;" points="553.886,428.269 553.886,436.773 558.544,432.521 553.886,428.269 					"/>
				</g>
				<g>
					<polygon style="fill:#FFFFFF;" points="506.382,428.269 501.724,432.521 506.382,436.773 506.382,428.269 					"/>
					<polygon style="fill:#FFFFFF;" points="499.252,428.269 494.594,432.521 499.252,436.773 499.252,428.269 					"/>
				</g>
			</g>
		</g>
		<g>
			<g>
				<path style="fill:#A2C167;" d="M174.417,263.168c0,77.159-29.65,139.708-29.65,139.708s-29.65-62.549-29.65-139.708
					s29.65-139.708,29.65-139.708S174.417,186.01,174.417,263.168z"/>
				<path style="fill:#A2C167;" d="M131.039,271.433c17.842,60.45,1.341,118.593,1.341,118.593S86.953,350.16,69.112,289.71
					S67.77,171.117,67.77,171.117S113.197,210.983,131.039,271.433z"/>
				<path style="fill:#A2C167;" d="M219.079,304.483c-15.537,61.082-59.421,102.641-59.421,102.641s-18.692-57.476-3.155-118.559
					s59.421-102.641,59.421-102.641S234.617,243.4,219.079,304.483z"/>
				<path style="fill:#64822A;" d="M138.987,349.038l-0.498-0.034c1.9-27.7-0.686-53.775-7.689-77.5
					c-3.552-12.038-8.484-24.161-14.659-36.034l0.443-0.23c6.189,11.901,11.134,24.055,14.696,36.123
					C138.298,295.145,140.892,321.279,138.987,349.038z"/>
				<path style="fill:#64822A;" d="M150.588,355.718c-1.528-23.794,0.381-46.408,5.674-67.214
					c3.794-14.918,9.625-29.966,17.33-44.727l0.443,0.231c-7.688,14.726-13.505,29.738-17.289,44.618
					c-5.28,20.755-7.185,43.317-5.66,67.059L150.588,355.718z"/>
				<path style="fill:#64822A;" d="M124.656,362.221c-23.87-63.265-40.108-118.329-49.642-168.34l0.49-0.094
					c9.529,49.983,25.76,105.021,49.62,168.257L124.656,362.221z"/>
				<path style="fill:#64822A;" d="M172.11,349.121l-0.459-0.2c18.49-42.429,31.387-89.574,38.333-140.125l0.496,0.068
					C203.527,259.461,190.617,306.65,172.11,349.121z"/>
				<rect x="144.517" y="141.473" style="fill:#64822A;" width="0.5" height="207.548"/>
			</g>
			<g>
				<path style="fill:#6D9EE3;" d="M181.193,444.148h-72.851c-5.249,0-9.657-3.949-10.232-9.166l-9.366-84.979H200.79l-9.366,84.979
					C190.849,440.199,186.441,444.148,181.193,444.148z"/>
				<polygon style="fill:#6D9EE3;" points="205.221,369.416 84.313,369.416 81.201,339.03 208.334,339.03 				"/>
				<rect x="90.884" y="369.166" style="fill:#1E4B97;" width="107.767" height="0.5"/>
				<rect x="93.155" y="389.776" style="fill:#1E4B97;" width="103.224" height="0.5"/>
				<rect x="95.039" y="406.874" style="fill:#1E4B97;" width="99.455" height="0.5"/>
				<path style="fill:#FFFFFF;" d="M102.404,396.417c1.23,0,2.23,1,2.23,2.23c0,1.229-1,2.23-2.23,2.23s-2.23-1-2.23-2.23
					C100.174,397.417,101.175,396.417,102.404,396.417 M102.404,394.417c-2.336,0-4.23,1.894-4.23,4.23
					c0,2.336,1.894,4.23,4.23,4.23c2.336,0,4.23-1.894,4.23-4.23C106.634,396.31,104.74,394.417,102.404,394.417L102.404,394.417z"
					/>
				<path style="fill:#FFFFFF;" d="M123.586,396.417c1.23,0,2.23,1,2.23,2.23c0,1.229-1,2.23-2.23,2.23c-1.23,0-2.23-1-2.23-2.23
					C121.356,397.417,122.356,396.417,123.586,396.417 M123.586,394.417c-2.336,0-4.23,1.894-4.23,4.23
					c0,2.336,1.894,4.23,4.23,4.23c2.336,0,4.23-1.894,4.23-4.23C127.816,396.31,125.922,394.417,123.586,394.417L123.586,394.417z"
					/>
				<path style="fill:#FFFFFF;" d="M144.767,396.417c1.23,0,2.23,1,2.23,2.23c0,1.229-1,2.23-2.23,2.23s-2.23-1-2.23-2.23
					C142.537,397.417,143.538,396.417,144.767,396.417 M144.767,394.417c-2.336,0-4.23,1.894-4.23,4.23
					c0,2.336,1.894,4.23,4.23,4.23s4.23-1.894,4.23-4.23C148.997,396.31,147.103,394.417,144.767,394.417L144.767,394.417z"/>
				<path style="fill:#FFFFFF;" d="M165.949,396.417c1.23,0,2.23,1,2.23,2.23c0,1.229-1,2.23-2.23,2.23c-1.229,0-2.23-1-2.23-2.23
					C163.719,397.417,164.719,396.417,165.949,396.417 M165.949,394.417c-2.336,0-4.23,1.894-4.23,4.23
					c0,2.336,1.894,4.23,4.23,4.23c2.336,0,4.23-1.894,4.23-4.23C170.179,396.31,168.285,394.417,165.949,394.417L165.949,394.417z"
					/>
				<path style="fill:#FFFFFF;" d="M187.13,396.417c1.23,0,2.23,1,2.23,2.23c0,1.229-1,2.23-2.23,2.23c-1.23,0-2.23-1-2.23-2.23
					C184.9,397.417,185.901,396.417,187.13,396.417 M187.13,394.417c-2.336,0-4.23,1.894-4.23,4.23c0,2.336,1.894,4.23,4.23,4.23
					c2.336,0,4.23-1.894,4.23-4.23C191.36,396.31,189.466,394.417,187.13,394.417L187.13,394.417z"/>
				<circle style="fill:#1E4B97;" cx="113.011" cy="398.647" r="1.442"/>
				<circle style="fill:#1E4B97;" cx="134.468" cy="398.647" r="1.442"/>
				<circle style="fill:#1E4B97;" cx="176.633" cy="398.647" r="1.442"/>
				<circle style="fill:#1E4B97;" cx="155.363" cy="398.647" r="1.442"/>
			</g>
		</g>
		<g>
			<g>
				<polygon style="fill:#495172;" points="424.678,444.148 325.322,444.148 334.855,344.541 415.145,344.541 				"/>
				<path style="fill:#495172;" d="M457.179,444.148H292.821v0c0-6.289,5.099-11.388,11.388-11.388h141.583
					C452.081,432.76,457.179,437.859,457.179,444.148L457.179,444.148z"/>
				<path style="fill:#495172;" d="M568.947,354.164H181.053c-4.549,0-8.237-3.688-8.237-8.237V87.951
					c0-4.549,3.688-8.237,8.237-8.237h387.893c4.549,0,8.237,3.688,8.237,8.237v257.975
					C577.184,350.476,573.496,354.164,568.947,354.164z"/>
				<rect x="194.552" y="99.238" style="fill:#FFFFFF;" width="360.897" height="235.402"/>
				<rect x="334.1" y="353.914" style="fill:#091724;" width="81.966" height="0.5"/>
				<rect x="326.578" y="432.51" style="fill:#091724;" width="97.01" height="0.5"/>
			</g>
			<g>
				<rect x="194.552" y="99.238" style="fill:#FFCE00;" width="360.897" height="14.782"/>
				<g>
					<path style="fill:#FFFFFF;" d="M208.468,106.629c0,1.439-1.166,2.605-2.605,2.605c-1.439,0-2.605-1.166-2.605-2.605
						c0-1.439,1.166-2.605,2.605-2.605C207.301,104.024,208.468,105.19,208.468,106.629z"/>
					<path style="fill:#495172;" d="M218.01,106.629c0,1.439-1.166,2.605-2.605,2.605c-1.439,0-2.605-1.166-2.605-2.605
						c0-1.439,1.166-2.605,2.605-2.605C216.844,104.024,218.01,105.19,218.01,106.629z"/>
					<path style="fill:#495172;" d="M227.553,106.629c0,1.439-1.166,2.605-2.605,2.605c-1.439,0-2.605-1.166-2.605-2.605
						c0-1.439,1.166-2.605,2.605-2.605C226.386,104.024,227.553,105.19,227.553,106.629z"/>
				</g>
			</g>
		</g>
		<g>
			<rect x="194.552" y="114.02" style="fill:#E05A77;" width="360.897" height="30.763"/>
			<path style="fill:#A31C46;" d="M244.308,135.592h-38.111c-1.758,0-3.188-1.43-3.188-3.189v-6.005
				c0-1.758,1.431-3.188,3.188-3.188h38.111c1.758,0,3.188,1.43,3.188,3.188v6.005C247.496,134.162,246.066,135.592,244.308,135.592
				z M206.196,123.71c-1.482,0-2.688,1.206-2.688,2.688v6.005c0,1.482,1.206,2.689,2.688,2.689h38.111
				c1.482,0,2.688-1.206,2.688-2.689v-6.005c0-1.482-1.206-2.688-2.688-2.688H206.196z"/>
			<path style="fill:#A31C46;" d="M541.375,138.244h-18.009c-1.482,0-2.687-1.205-2.687-2.687c0-1.481,1.205-2.687,2.687-2.687
				h18.009c1.481,0,2.686,1.206,2.686,2.687C544.062,137.039,542.857,138.244,541.375,138.244z M523.367,133.371
				c-1.206,0-2.187,0.981-2.187,2.187c0,1.206,0.981,2.187,2.187,2.187h18.009c1.206,0,2.186-0.981,2.186-2.187
				c0-1.206-0.98-2.187-2.186-2.187H523.367z"/>
			<path style="fill:#A31C46;" d="M500.066,138.244h-18.008c-1.482,0-2.687-1.205-2.687-2.687c0-1.481,1.205-2.687,2.687-2.687
				h18.008c1.481,0,2.687,1.206,2.687,2.687C502.752,137.039,501.547,138.244,500.066,138.244z M482.058,133.371
				c-1.206,0-2.187,0.981-2.187,2.187c0,1.206,0.98,2.187,2.187,2.187h18.008c1.206,0,2.187-0.981,2.187-2.187
				c0-1.206-0.98-2.187-2.187-2.187H482.058z"/>
			<path style="fill:#A31C46;" d="M458.757,138.244h-18.009c-1.481,0-2.687-1.205-2.687-2.687c0-1.481,1.205-2.687,2.687-2.687
				h18.009c1.481,0,2.687,1.206,2.687,2.687C461.444,137.039,460.238,138.244,458.757,138.244z M440.748,133.371
				c-1.206,0-2.187,0.981-2.187,2.187c0,1.206,0.98,2.187,2.187,2.187h18.009c1.206,0,2.187-0.981,2.187-2.187
				c0-1.206-0.981-2.187-2.187-2.187H440.748z"/>
			<path style="fill:#A31C46;" d="M417.447,138.244H399.44c-1.481,0-2.686-1.205-2.686-2.687c0-1.481,1.205-2.687,2.686-2.687
				h18.008c1.482,0,2.687,1.206,2.687,2.687C420.134,137.039,418.929,138.244,417.447,138.244z M399.44,133.371
				c-1.206,0-2.186,0.981-2.186,2.187c0,1.206,0.98,2.187,2.186,2.187h18.008c1.206,0,2.187-0.981,2.187-2.187
				c0-1.206-0.98-2.187-2.187-2.187H399.44z"/>
			<g>
				<rect x="203.258" y="153.46" style="fill:#A2C167;" width="104.215" height="60.813"/>
				<path style="fill:#64822A;" d="M303.6,210.557h-96.602v-53.28H303.6V210.557z M207.498,210.057H303.1v-52.28h-95.602V210.057z"
					/>
				<polygon style="fill:#64822A;" points="303.165,202.951 287.829,186.258 270.664,202.723 270.319,202.362 287.853,185.543 
					303.534,202.613 				"/>
				<polygon style="fill:#64822A;" points="207.419,210.489 207.077,210.125 251.543,168.262 251.715,168.437 278.054,195.284 
					277.697,195.635 251.53,168.962 				"/>
				<path style="fill:#64822A;" d="M221.769,180.214c-4.736,0-8.589-3.853-8.589-8.589c0-4.736,3.853-8.589,8.589-8.589
					s8.59,3.853,8.59,8.589C230.359,176.361,226.505,180.214,221.769,180.214z M221.769,163.536c-4.46,0-8.089,3.629-8.089,8.089
					c0,4.46,3.629,8.089,8.089,8.089c4.461,0,8.09-3.628,8.09-8.089C229.859,167.165,226.23,163.536,221.769,163.536z"/>
			</g>
			<path style="fill:#A2C167;" d="M283.01,234.756h-75.842c-2.294,0-4.16-1.867-4.16-4.161c0-2.294,1.866-4.161,4.16-4.161h75.842
				c2.294,0,4.16,1.867,4.16,4.161C287.17,232.889,285.304,234.756,283.01,234.756z M207.168,226.935
				c-2.019,0-3.66,1.642-3.66,3.661c0,2.019,1.642,3.661,3.66,3.661h75.842c2.019,0,3.66-1.642,3.66-3.661
				c0-2.019-1.642-3.661-3.66-3.661H207.168z"/>
			<g>
				<rect x="203.258" y="246.667" style="fill:#A2C167;" width="104.214" height="0.5"/>
				<rect x="274.723" y="255.732" style="fill:#A2C167;" width="32.749" height="0.5"/>
				<rect x="203.258" y="255.732" style="fill:#A2C167;" width="52.106" height="0.5"/>
				<rect x="237.502" y="264.798" style="fill:#A2C167;" width="69.97" height="0.5"/>
				<rect x="203.258" y="264.798" style="fill:#A2C167;" width="19.396" height="0.5"/>
				<rect x="203.258" y="273.863" style="fill:#A2C167;" width="104.214" height="0.5"/>
				<rect x="282.451" y="282.929" style="fill:#A2C167;" width="25.021" height="0.5"/>
				<rect x="203.258" y="282.929" style="fill:#A2C167;" width="61.498" height="0.5"/>
				<rect x="242.562" y="291.994" style="fill:#A2C167;" width="64.91" height="0.5"/>
				<rect x="203.258" y="291.994" style="fill:#A2C167;" width="26.851" height="0.5"/>
				<rect x="203.258" y="301.06" style="fill:#A2C167;" width="104.214" height="0.5"/>
				<rect x="279.807" y="310.125" style="fill:#A2C167;" width="27.665" height="0.5"/>
				<rect x="203.258" y="310.125" style="fill:#A2C167;" width="56.82" height="0.5"/>
			</g>
			<g>
				<rect x="203.258" y="321.427" style="fill:#A2C167;" width="104.215" height="13.213"/>
				<polygon style="fill:#64822A;" points="303.6,334.64 303.1,334.64 303.1,325.574 207.498,325.574 207.498,334.64 
					206.998,334.64 206.998,325.074 303.6,325.074 				"/>
			</g>
		</g>
		<g>
			<path style="fill:#FFFFFF;" d="M357.615,375.631c-0.193,30.877-15.774,57.299-37.893,68.518h-47.455
				c-22.119-11.218-37.699-37.641-37.893-68.518H357.615z"/>
			<path style="fill:#E3EDFC;" d="M338.645,375.631h18.97c-0.193,30.877-15.774,57.3-37.893,68.518h-10.426
				C339.609,421.504,338.645,375.631,338.645,375.631z"/>
			<path style="fill:#FFFFFF;" d="M249.27,433.423c3.517,0,6.591-0.949,8.864-3.15l-5.302-5.476
				c-2.712,2.625-13.263,0.153-24.072-7.591c-9.862-7.066-15.5-15.407-13.405-19.833c2.011-4.02,6.002-4.518,8.995-4.216
				c6.565,0.666,13.498,5.64,14.837,10.646l7.364-1.971c-2.173-8.118-11.587-15.26-21.432-16.259
				c-7.499-0.763-13.55,2.326-16.62,8.466c-4.707,9.946,5.093,21.678,15.821,29.364C232.285,429.108,241.777,433.422,249.27,433.423
				z"/>
			<path style="fill:#D4E6F9;" d="M238.175,401.977c-1.879-5.2-2.989-12.98-3-13.058l0.494-0.07
				c0.012,0.078,1.115,7.807,2.977,12.958L238.175,401.977z"/>
			<path style="fill:#D4E6F9;" d="M255.736,432.081c-1.731-1.757-3.514-3.847-5.298-6.212l0.398-0.301
				c1.771,2.347,3.54,4.42,5.255,6.162L255.736,432.081z"/>
			<rect x="234.374" y="382.065" style="fill:#D4E6F9;" width="122.954" height="0.5"/>
			<rect x="244.505" y="415.938" style="fill:#D4E6F9;" width="102.691" height="0.5"/>
			<rect x="247.23" y="420.734" style="fill:#D4E6F9;" width="97.242" height="0.5"/>
			<path style="fill:#FFFFFF;" d="M296.135,372.069c3.329-3.712,4.421-9.213,3.041-13.995c-1.059-4.325-4.044-8.495-4.736-12.562
				c-0.492-2.828,0.432-5.59,1.672-8.232c0,0-0.331-0.262-0.331-0.262c-2.578,2.06-4.415,5.252-4.429,8.683
				c-0.026,3.358,1.341,6.47,2.595,9.389c1.837,4.131,3.099,7.909,2.604,12.325c-0.135,1.457-0.48,2.914-0.793,4.46L296.135,372.069
				L296.135,372.069z"/>
			<g>
				<path style="fill:#FFFFFF;" d="M281.628,372.069c3.819-3.521,3.61-9.408,1.443-13.623c-0.93-2.072-1.921-3.835-2.288-5.596
					c-0.442-1.968,0.099-3.915,0.823-5.878l-0.331-0.262c-3.326,2.126-4.342,6.492-3.004,10.092
					c0.954,3.029,2.666,5.884,3.127,8.842c0.367,2.049,0.132,4.081-0.146,6.23C281.253,371.876,281.628,372.069,281.628,372.069
					L281.628,372.069z"/>
				<path style="fill:#FFFFFF;" d="M312.688,372.069c3.819-3.521,3.61-9.408,1.443-13.623c-0.93-2.072-1.92-3.835-2.288-5.596
					c-0.442-1.968,0.099-3.915,0.823-5.878l-0.331-0.262c-3.326,2.126-4.342,6.492-3.003,10.092c0.954,3.03,2.666,5.884,3.127,8.842
					c0.367,2.049,0.132,4.081-0.146,6.23C312.314,371.876,312.688,372.069,312.688,372.069L312.688,372.069z"/>
			</g>
		</g>
		<g>
			<g>
				<path style="fill:#FFFFFF;" d="M258.544,88.347H90.214c-6.852,0-12.407-5.555-12.407-12.407l0,0
					c0-6.852,5.555-12.407,12.407-12.407h168.33c6.852,0,12.407,5.555,12.407,12.407l0,0
					C270.95,82.792,265.396,88.347,258.544,88.347z"/>
				<g>
					<path style="fill:#6D9EE3;" d="M247.303,69.402c-2.755,2.755-2.755,7.223,0,9.978c2.755,2.755,7.223,2.755,9.978,0
						c2.755-2.755,2.755-7.223,0-9.978C254.526,66.647,250.058,66.647,247.303,69.402z M255.592,77.692
						c-1.823,1.823-4.778,1.823-6.601,0c-1.823-1.823-1.823-4.778,0-6.601c1.823-1.823,4.778-1.823,6.601,0
						C257.415,72.914,257.415,75.869,255.592,77.692z"/>
					<path style="fill:#6D9EE3;" d="M255.845,80.485l3.221,3.221c0.701,0.701,1.839,0.701,2.54,0l0,0
						c0.702-0.701,0.702-1.839,0-2.54l-3.235-3.235"/>
				</g>
				<rect x="90.1" y="67.336" style="fill:#D4E6F9;" width="0.5" height="16.896"/>
			</g>
			<path style="fill:#091724;" d="M238.684,89.026c-0.138,0-0.25-0.112-0.25-0.25V63.489l-64.126-18.862
				c-0.133-0.039-0.208-0.178-0.17-0.31c0.039-0.133,0.18-0.208,0.311-0.169l64.306,18.915c0.106,0.031,0.18,0.129,0.18,0.24v25.474
				C238.934,88.915,238.821,89.026,238.684,89.026z"/>
			<g>
				<rect x="174.191" y="0" style="fill:#091724;" width="0.5" height="12.778"/>
				<path style="fill:#6D9EE3;" d="M186.823,39.064c-0.219-1.395-1.363-2.373-2.786-2.38c-1.38-0.118-2.584,0.97-2.81,2.339
					c-0.459,2.494-2.29,4.594-4.668,5.348c-2.098,0.666-4.223,0.162-5.771-1.356c-1.504-1.555-1.967-3.705-1.228-5.753
					c0.782-2.181,2.722-3.697,5.073-3.958c2.01-0.241,3.478-2.01,3.343-4.027l-0.732-10.898c-0.111-1.511-1.292-2.609-2.813-2.609
					c-1.498,0-2.708,1.12-2.82,2.617l-0.536,7.991c-2.783,0.557-5.363,2.034-7.238,4.174c-3.272,3.668-4.237,8.694-2.58,13.443
					c1.673,4.8,5.596,8.175,10.453,9.016c0.796,0.16,1.602,0.238,2.405,0.238c3.309,0,6.584-1.326,9.097-3.753
					C186.132,46.672,187.447,42.87,186.823,39.064z"/>
				<path style="fill:#1E4B97;" d="M180.096,17.188c0,3.123-2.532,5.655-5.655,5.655c-3.123,0-5.655-2.532-5.655-5.655
					c0-3.123,2.532-5.655,5.655-5.655C177.564,11.533,180.096,14.065,180.096,17.188z"/>
				<path style="fill:#091724;" d="M174.441,20.67c-1.92,0-3.481-1.562-3.481-3.482s1.562-3.481,3.481-3.481
					c1.92,0,3.482,1.562,3.482,3.481S176.361,20.67,174.441,20.67z M174.441,14.206c-1.644,0-2.981,1.337-2.981,2.981
					c0,1.644,1.338,2.982,2.981,2.982c1.645,0,2.982-1.338,2.982-2.982C177.423,15.544,176.085,14.206,174.441,14.206z"/>
			</g>
			<path style="fill:#091724;" d="M110.073,89.026c-0.138,0-0.25-0.112-0.25-0.25V63.302c0-0.111,0.073-0.208,0.18-0.24
				l64.305-18.915c0.132-0.039,0.271,0.036,0.311,0.169c0.038,0.132-0.037,0.271-0.17,0.31l-64.125,18.862v25.287
				C110.323,88.915,110.211,89.026,110.073,89.026z"/>
		</g>
		<g>
			<circle style="fill:#6D9EE3;" cx="433.075" cy="77.93" r="30.24"/>
			<path style="fill:#1E4B97;" d="M433.074,103.185c-13.925,0-25.254-11.329-25.254-25.255c0-13.925,11.329-25.254,25.254-25.254
				c13.926,0,25.255,11.329,25.255,25.254C458.329,91.856,447,103.185,433.074,103.185z M433.074,53.175
				c-13.649,0-24.754,11.105-24.754,24.754c0,13.65,11.104,24.755,24.754,24.755c13.649,0,24.755-11.105,24.755-24.755
				C457.829,64.28,446.724,53.175,433.074,53.175z"/>
			<g>
				<polygon style="fill:#FFFFFF;" points="437.285,91.535 437.285,71.432 436.681,71.432 428.865,71.432 424.092,71.432 
					424.092,74.803 428.865,74.803 428.865,91.535 424.092,91.535 424.092,94.906 428.865,94.906 437.285,94.906 442.058,94.906 
					442.058,91.535 				"/>
				<path style="fill:#FFFFFF;" d="M433.075,69.439c2.792,0,5.055-2.263,5.055-5.055c0-2.792-2.263-5.055-5.055-5.055
					c-2.792,0-5.055,2.263-5.055,5.055C428.02,67.176,430.283,69.439,433.075,69.439z"/>
			</g>
			<g>
				<rect x="432.824" y="20.24" style="fill:#1E4B97;" width="0.5" height="21.203"/>
				<rect x="424.918" y="13.986" style="fill:#1E4B97;" width="0.5" height="18.61"/>
				<rect x="440.732" y="8.113" style="fill:#1E4B97;" width="0.5" height="15.076"/>
				<rect x="440.732" y="25.808" style="fill:#1E4B97;" width="0.5" height="3.127"/>
			</g>
		</g>
		<g>
			<g>
				<path style="fill:#6D9EE3;" d="M381.639,198.921c-7.666,0-13.881,6.215-13.881,13.881c0,7.666,6.215,13.881,13.881,13.881
					c7.666,0,13.881-6.215,13.881-13.881C395.52,205.136,389.305,198.921,381.639,198.921z"/>
				<path style="fill:#6D9EE3;" d="M440.982,221.63v-17.656l-20.138-3.247c-0.762-2.477-1.756-4.85-2.95-7.102l11.949-16.542
					l-12.484-12.485l-16.543,11.949c-2.252-1.194-4.626-2.188-7.102-2.95l-3.247-20.138h-17.656l-3.247,20.138
					c-2.477,0.762-4.85,1.756-7.102,2.95l-16.543-11.949l-12.484,12.485l11.949,16.543c-1.194,2.252-2.188,4.626-2.95,7.102
					l-20.138,3.247v17.656l20.138,3.247c0.762,2.477,1.756,4.85,2.95,7.102l-11.949,16.543l12.484,12.485l16.543-11.949
					c2.252,1.194,4.626,2.188,7.102,2.95l3.247,20.138h17.656l3.247-20.138c2.477-0.762,4.85-1.756,7.102-2.95l16.543,11.949
					l12.484-12.485l-11.949-16.542c1.194-2.252,2.188-4.626,2.95-7.102L440.982,221.63z M381.639,235.919
					c-12.767,0-23.116-10.35-23.116-23.117c0-12.767,10.35-23.116,23.116-23.116c12.767,0,23.116,10.35,23.116,23.116
					C404.755,225.569,394.406,235.919,381.639,235.919z"/>
			</g>
			<path style="fill:#1E4B97;" d="M381.639,254.066c-4.141,0-8.228-0.611-12.148-1.818l0.147-0.477
				c7.746,2.383,16.258,2.383,24.004,0l0.146,0.477C389.866,253.455,385.78,254.066,381.639,254.066z M362.341,249.285
				c-7.348-3.895-13.29-9.837-17.185-17.185l0.441-0.234c3.848,7.259,9.719,13.13,16.977,16.978L362.341,249.285z M400.937,249.285
				l-0.234-0.441c7.26-3.849,13.13-9.719,16.978-16.978l0.441,0.234C414.228,239.447,408.284,245.39,400.937,249.285z
				 M421.085,224.952l-0.478-0.147c1.191-3.872,1.796-7.91,1.796-12.002c0-4.152-0.621-8.247-1.847-12.17l0.477-0.149
				c1.241,3.972,1.87,8.117,1.87,12.319C422.903,216.944,422.291,221.032,421.085,224.952z M342.193,224.952
				c-1.206-3.92-1.817-8.007-1.817-12.149c0-4.142,0.611-8.229,1.817-12.149l0.479,0.148c-1.191,3.871-1.796,7.909-1.796,12.001
				c0,4.092,0.604,8.13,1.796,12.002L342.193,224.952z M345.598,193.739l-0.441-0.234c3.895-7.348,9.837-13.291,17.185-17.185
				l0.234,0.441C355.317,180.609,349.446,186.48,345.598,193.739z M417.68,193.739c-3.847-7.258-9.718-13.129-16.978-16.978
				l0.234-0.441c7.349,3.895,13.291,9.838,17.185,17.185L417.68,193.739z M369.622,173.839l-0.157-0.475l0.166,0.451l-0.141-0.458
				c7.842-2.413,16.455-2.413,24.297,0l-0.146,0.478c-7.746-2.383-16.258-2.383-24.004,0L369.622,173.839z"/>
			
				<ellipse transform="matrix(0.1597 -0.9872 0.9872 0.1597 110.6178 555.5573)" style="fill:#1E4B97;" cx="381.639" cy="212.803" rx="9.596" ry="9.596"/>
		</g>
		<g>
			<path style="fill:#6D9EE3;" d="M531.133,285.059v-14.875h-6.906c-0.388-2.001-0.923-3.948-1.605-5.827l5.914-3.548l-7.653-12.756
				l-5.924,3.554c-1.054-1.17-2.183-2.271-3.37-3.306l3.46-5.988l-12.879-7.442l-3.455,5.979c-1.691-0.582-3.433-1.053-5.22-1.4
				v-6.906H478.62v6.906c-2.001,0.388-3.948,0.923-5.827,1.605l-3.548-5.914l-12.755,7.653l3.554,5.924
				c-1.17,1.054-2.271,2.183-3.306,3.37l-5.987-3.46l-7.442,12.88l5.979,3.455c-0.582,1.691-1.053,3.433-1.4,5.22h-6.905v14.875
				h6.906c0.388,2.001,0.923,3.948,1.605,5.827l-5.914,3.548l7.653,12.755l5.924-3.554c1.054,1.17,2.183,2.271,3.371,3.306
				l-3.46,5.988l12.879,7.442l3.455-5.979c1.691,0.582,3.433,1.053,5.22,1.4v6.906h14.875v-6.906
				c2.001-0.388,3.948-0.923,5.827-1.605l3.548,5.914l12.756-7.653l-3.554-5.924c1.17-1.054,2.271-2.183,3.306-3.37l5.988,3.46
				l7.442-12.879l-5.979-3.455c0.582-1.691,1.054-3.433,1.4-5.22H531.133z M486.057,300.399c-12.58,0-22.778-10.198-22.778-22.778
				c0-12.58,10.198-22.778,22.778-22.778c12.58,0,22.778,10.198,22.778,22.778C508.836,290.201,498.637,300.399,486.057,300.399z"/>
			<path style="fill:#1E4B97;" d="M486.058,312.73c-19.359,0-35.109-15.75-35.109-35.109c0-19.359,15.75-35.109,35.109-35.109
				c19.358,0,35.108,15.75,35.108,35.109C521.166,296.98,505.416,312.73,486.058,312.73z M486.058,243.012
				c-19.084,0-34.609,15.525-34.609,34.609s15.525,34.609,34.609,34.609c19.083,0,34.608-15.526,34.608-34.609
				S505.141,243.012,486.058,243.012z"/>
			<path style="fill:#1E4B97;" d="M486.058,294.861c-9.507,0-17.241-7.734-17.241-17.241c0-9.506,7.734-17.241,17.241-17.241
				c9.506,0,17.24,7.734,17.24,17.241C503.298,287.127,495.564,294.861,486.058,294.861z M486.058,260.88
				c-9.232,0-16.741,7.51-16.741,16.741c0,9.231,7.51,16.741,16.741,16.741c9.23,0,16.74-7.51,16.74-16.741
				C502.798,268.39,495.288,260.88,486.058,260.88z"/>
		</g>
		<g>
			<path style="fill:#FFCE00;" d="M244.992,444.148h-82.309c-7.584,0-13.732-6.148-13.732-13.732l0,0
				c0-7.584,6.148-13.732,13.732-13.732h82.309c7.584,0,13.732,6.148,13.732,13.732l0,0
				C258.723,438,252.575,444.148,244.992,444.148z"/>
			<g>
				<path style="fill:#495172;" d="M163.431,429.867l0.742-2.385l4.585,1.978l-0.383-5.277h2.497l-0.432,5.352l4.548-1.94
					l0.754,2.422l-4.833,1.137l3.251,4.004l-2.039,1.496l-2.62-4.561l-2.608,4.425l-2.052-1.421l3.349-4.042L163.431,429.867z"/>
				<path style="fill:#495172;" d="M180.556,429.867l0.741-2.385l4.585,1.978l-0.383-5.277h2.497l-0.433,5.352l4.548-1.94
					l0.754,2.422l-4.833,1.137l3.251,4.004l-2.039,1.496l-2.62-4.561l-2.608,4.425l-2.052-1.421l3.35-4.042L180.556,429.867z"/>
				<path style="fill:#495172;" d="M197.682,429.867l0.742-2.385l4.585,1.978l-0.383-5.277h2.497l-0.433,5.352l4.548-1.94
					l0.754,2.422l-4.833,1.137l3.25,4.004l-2.039,1.496l-2.62-4.561l-2.608,4.425l-2.052-1.421l3.349-4.042L197.682,429.867z"/>
				<path style="fill:#495172;" d="M214.807,429.867l0.742-2.385l4.585,1.978l-0.383-5.277h2.497l-0.433,5.352l4.548-1.94
					l0.754,2.422l-4.833,1.137l3.251,4.004l-2.039,1.496l-2.62-4.561l-2.608,4.425l-2.052-1.421l3.349-4.042L214.807,429.867z"/>
				<path style="fill:#495172;" d="M231.933,429.867l0.742-2.385l4.585,1.978l-0.383-5.277h2.497l-0.433,5.352l4.548-1.94
					l0.754,2.422l-4.832,1.137l3.25,4.004l-2.039,1.496l-2.62-4.561l-2.608,4.425l-2.052-1.421l3.349-4.042L231.933,429.867z"/>
			</g>
		</g>
		<g>
			<path style="fill:#091724;" d="M694.704,87.535c-0.046,0-0.093-0.013-0.135-0.039l-30.152-19.223
				c-0.116-0.074-0.15-0.229-0.076-0.345c0.075-0.116,0.229-0.149,0.346-0.077l30.152,19.223c0.116,0.074,0.15,0.229,0.076,0.345
				C694.867,87.494,694.786,87.535,694.704,87.535z"/>
			<g>
				<rect x="664.268" y="0" style="fill:#091724;" width="0.5" height="36.192"/>
				<path style="fill:#6D9EE3;" d="M652.63,62.555l-0.001,0.003c-0.597,3.642,0.667,7.284,3.467,9.992
					c2.411,2.329,5.519,3.612,8.749,3.612c0.779,0,1.555-0.077,2.307-0.228c4.704-0.815,8.467-4.063,10.08-8.69
					c1.595-4.575,0.668-9.415-2.482-12.946c-1.8-2.053-4.271-3.478-6.964-4.017l-0.376-0.075l-0.562-8.372
					c-0.091-1.225-1.089-2.151-2.32-2.151c-1.25,0-2.224,0.902-2.314,2.146l-0.731,10.895c-0.118,1.751,1.157,3.288,2.903,3.497
					c2.533,0.282,4.637,1.925,5.483,4.286c0.805,2.228,0.304,4.572-1.339,6.269c-1.682,1.649-4.026,2.203-6.282,1.485
					c-2.55-0.809-4.517-3.059-5.009-5.734c-0.185-1.121-1.095-1.938-2.112-1.938c-0.054,0-0.108,0.002-0.162,0.007
					C653.753,60.604,652.81,61.409,652.63,62.555z"/>
				<path style="fill:#1E4B97;" d="M658.193,39.683c0,3.493,2.832,6.325,6.325,6.325c3.493,0,6.325-2.832,6.325-6.325
					c0-3.493-2.832-6.325-6.325-6.325C661.025,33.358,658.193,36.19,658.193,39.683z"/>
				<path style="fill:#091724;" d="M664.518,43.548c-2.131,0-3.864-1.734-3.864-3.865c0-2.131,1.733-3.865,3.864-3.865
					c2.131,0,3.865,1.734,3.865,3.865C668.383,41.815,666.649,43.548,664.518,43.548z M664.518,36.319
					c-1.855,0-3.364,1.509-3.364,3.365s1.509,3.365,3.364,3.365c1.855,0,3.365-1.51,3.365-3.365S666.373,36.319,664.518,36.319z"/>
			</g>
			<path style="fill:#091724;" d="M634.401,87.535c-0.082,0-0.163-0.041-0.211-0.116c-0.074-0.116-0.04-0.271,0.076-0.345
				l30.151-19.223c0.116-0.074,0.271-0.04,0.346,0.077c0.074,0.116,0.04,0.271-0.076,0.345l-30.151,19.223
				C634.493,87.522,634.446,87.535,634.401,87.535z"/>
			<g>
				<g>
					<path style="fill:#FFCE00;" d="M695.997,139.6h-61.596c-3.114,0-5.639-2.525-5.639-5.639V92.364
						c0-3.114,2.525-5.639,5.639-5.639h61.596c3.114,0,5.639,2.524,5.639,5.639v41.597C701.635,137.075,699.111,139.6,695.997,139.6
						z"/>
					<path style="fill:#D88A00;" d="M665.205,114.747c-2.172,0-4.343-0.727-6.113-2.182l-26.901-22.1l0.318-0.387l26.901,22.1
						c3.352,2.755,8.224,2.759,11.583,0.006l26.97-22.106l0.316,0.387l-26.97,22.107
						C669.541,114.022,667.372,114.747,665.205,114.747z"/>
					<polygon style="fill:#D88A00;" points="632.535,136.253 632.164,135.918 655.872,109.581 656.243,109.916 					"/>
					<polygon style="fill:#D88A00;" points="697.936,136.253 674.228,109.916 674.599,109.581 698.307,135.918 					"/>
				</g>
				<g>
					<path style="fill:#E05A77;" d="M705.958,90.271c0,3.72-3.016,6.736-6.736,6.736c-3.72,0-6.736-3.016-6.736-6.736
						c0-3.72,3.016-6.736,6.736-6.736C702.942,83.535,705.958,86.551,705.958,90.271z"/>
					<path style="fill:#FFFFFF;" d="M701.483,92.057h-2.128l0.827-0.883c0.196-0.209,0.378-0.412,0.546-0.608
						c0.173-0.204,0.327-0.411,0.459-0.619c0.133-0.215,0.239-0.434,0.314-0.651c0.083-0.234,0.124-0.48,0.124-0.732
						c0-0.323-0.055-0.627-0.163-0.903c-0.111-0.282-0.274-0.528-0.487-0.734c-0.212-0.201-0.474-0.36-0.778-0.472
						c-0.614-0.225-1.447-0.219-2.074,0.031c-0.326,0.13-0.607,0.311-0.832,0.534c-0.234,0.227-0.417,0.495-0.541,0.796
						c-0.125,0.3-0.188,0.623-0.188,0.959c0,0.22,0.178,0.399,0.399,0.399h1.078c0.22,0,0.399-0.178,0.399-0.399
						c0-0.146,0.018-0.275,0.052-0.382c0.031-0.095,0.074-0.172,0.126-0.23c0.052-0.055,0.119-0.098,0.204-0.13
						c0.157-0.061,0.431-0.083,0.608-0.01c0.072,0.03,0.131,0.07,0.181,0.121c0.048,0.049,0.083,0.109,0.108,0.179
						c0.03,0.083,0.044,0.179,0.044,0.285c0,0.078-0.011,0.155-0.031,0.231c-0.024,0.084-0.065,0.176-0.118,0.271
						c-0.067,0.116-0.154,0.242-0.262,0.38c-0.115,0.147-0.256,0.315-0.424,0.499l-2.131,2.319c-0.068,0.074-0.105,0.17-0.105,0.27
						v0.746c0,0.22,0.178,0.399,0.399,0.399h4.391c0.22,0,0.399-0.178,0.399-0.399v-0.867
						C701.881,92.235,701.703,92.057,701.483,92.057z"/>
				</g>
			</g>
		</g>
		<g>
			<g>
				<path style="fill:#D39266;" d="M561.71,185.292l-6.827,14.634l29.99,20.213c7.797,5.107,14.71,4.911,20.84,2.482l48.747-19.314
					l-16.234-25.848l-41.282,25.678L561.71,185.292z"/>
				<polygon style="fill:#D2E1F9;" points="617.931,188.246 633.313,215.895 659.07,205.376 651.812,184.292 641.714,177.695 
					635.091,175.412 				"/>
				<polygon style="fill:#D4E6F9;" points="633.202,216.21 631.175,212.568 631.613,212.324 633.423,215.579 657.614,205.7 
					657.803,206.163 				"/>
				<path style="fill:#D39266;" d="M548.658,178.406l0.017,0.007l1.948-1.959l2.954,1.373c4.479,2.274,6.596,3.565,8.393,7.677
					l-3.724,15.935l-14.879-6.379c-5.029-2.156-7.459-7.763-5.441-12.546C539.623,178.496,544.406,176.665,548.658,178.406z"/>
			</g>
			<g>
				<path style="fill:#A2C167;" d="M543.875,214.283h-2.316h-5.447H525.14h-62.503c-5.294,0-9.586-4.292-9.586-9.586v-28.402
					c0-5.294,4.292-9.586,9.586-9.586h81.238c5.294,0,9.586,4.292,9.586,9.586v28.402
					C553.461,209.992,549.169,214.283,543.875,214.283z"/>
				<g>
					<path style="fill:#FFFFFF;" d="M485.059,190.497c0,2.826-2.291,5.117-5.117,5.117c-2.826,0-5.117-2.291-5.117-5.117
						c0-2.826,2.291-5.117,5.117-5.117C482.768,185.38,485.059,187.671,485.059,190.497z"/>
					<path style="fill:#FFFFFF;" d="M508.372,190.497c0,2.826-2.291,5.117-5.117,5.117c-2.826,0-5.117-2.291-5.117-5.117
						c0-2.826,2.291-5.117,5.117-5.117C506.082,185.38,508.372,187.671,508.372,190.497z"/>
					<path style="fill:#FFFFFF;" d="M531.686,190.497c0,2.826-2.291,5.117-5.117,5.117s-5.117-2.291-5.117-5.117
						c0-2.826,2.291-5.117,5.117-5.117S531.686,187.671,531.686,190.497z"/>
				</g>
				<g>
					<path style="fill:#64822A;" d="M479.943,197.933c-4.1,0-7.437-3.336-7.437-7.436s3.336-7.437,7.437-7.437
						c4.101,0,7.437,3.336,7.437,7.437S484.043,197.933,479.943,197.933z M479.943,183.56c-3.825,0-6.937,3.112-6.937,6.937
						c0,3.825,3.111,6.936,6.937,6.936s6.937-3.112,6.937-6.936C486.879,186.671,483.768,183.56,479.943,183.56z"/>
					<path style="fill:#64822A;" d="M503.256,197.933c-4.101,0-7.438-3.336-7.438-7.436s3.337-7.437,7.438-7.437
						c4.101,0,7.437,3.336,7.437,7.437S507.357,197.933,503.256,197.933z M503.256,183.56c-3.825,0-6.938,3.112-6.938,6.937
						c0,3.825,3.112,6.936,6.938,6.936c3.825,0,6.937-3.112,6.937-6.936C510.193,186.671,507.081,183.56,503.256,183.56z"/>
					<path style="fill:#64822A;" d="M526.57,197.933c-4.101,0-7.438-3.336-7.438-7.436s3.337-7.437,7.438-7.437
						c4.1,0,7.435,3.336,7.435,7.437S530.669,197.933,526.57,197.933z M526.57,183.56c-3.825,0-6.938,3.112-6.938,6.937
						c0,3.825,3.112,6.936,6.938,6.936c3.824,0,6.935-3.112,6.935-6.936C533.505,186.671,530.394,183.56,526.57,183.56z"/>
				</g>
				<path style="fill:#A2C167;" d="M517.562,213.454h20.879v8.912c0,2.246-2.513,3.576-4.37,2.313L517.562,213.454z"/>
				<rect x="518.78" y="214.033" style="fill:#64822A;" width="19.66" height="0.5"/>
			</g>
			<polygon style="fill:#E0A47C;" points="677.624,436.928 698.108,436.928 690.231,409.917 669.747,409.917 			"/>
			<polygon style="fill:#E0A47C;" points="636.966,436.928 616.482,436.928 624.358,409.917 644.842,409.917 			"/>
			<path style="fill:#6D9EE3;" d="M627.03,285.996v-21.25h0.001l48.691-5.684c0,0,4.269,17.433,4.418,19.288
				c0.622,7.762-16.338,15.979-16.338,15.979l-19.933,133.94h-28.264L627.03,285.996z"/>
			<polygon style="fill:#6D9EE3;" points="680.352,284.383 699.902,428.269 671.064,428.269 641.698,284.383 			"/>
			<path style="fill:#FFFFFF;" d="M697.667,432.811l-22.61-2.966l-17.003,5.599c-2.631,0.866-4.844,2.606-6.23,4.899l-2.302,3.807
				h51.794L697.667,432.811z"/>
			<path style="fill:#FFFFFF;" d="M638.543,432.811l-20.746-2.966l-17.692,5.599c-2.631,0.866-4.844,2.606-6.23,4.899l-2.302,3.807
				h49.646L638.543,432.811z"/>
			
				<rect x="628.769" y="320.206" transform="matrix(0.1663 -0.9861 0.9861 0.1663 234.7185 918.525)" style="fill:#1E4B97;" width="63.564" height="0.499"/>
			<polygon style="fill:#E0A47C;" points="661.303,182.054 639.612,185.555 621.252,156.059 642.943,152.558 			"/>
			<path style="fill:#FFFFFF;" d="M633.328,175.635l18.064-9.73c9.325,7.028,15.756,18.834,19.732,33.494
				c4.62,17.038,9.258,38.883,10.359,84.983h-55.889l-1.263-62.993C624.332,221.39,620.332,194.301,633.328,175.635z"/>
			<g>
				<path style="fill:#E0A47C;" d="M561.698,190.51l-6.619,14.729l30.273,19.786c7.869,4.996,14.778,4.702,20.873,2.187
					l48.468-20.003l-16.599-25.616l-40.914,26.26L561.698,190.51z"/>
				<polygon style="fill:#FFFFFF;" points="617.955,192.666 633.727,220.094 659.333,209.212 651.777,188.232 641.587,181.779 
					634.932,179.59 				"/>
				<polygon style="fill:#D4E6F9;" points="633.621,220.411 631.543,216.798 631.977,216.548 633.834,219.777 657.882,209.557 
					658.077,210.017 				"/>
				<path style="fill:#E0A47C;" d="M548.549,183.809l0.017,0.006l4.878,2.397l0.016-3.052c4.51,2.21,6.646,3.472,8.501,7.557
					l-3.498,15.986l-14.967-6.168c-5.059-2.085-7.569-7.656-5.618-12.468C539.517,184.027,544.274,182.128,548.549,183.809z"/>
				<rect x="596.931" y="207.853" style="fill:#C9773F;" width="0.5" height="5.602"/>
			</g>
			<g>
				<path style="fill:#E0A47C;" d="M612.993,149.826l4.615-7.051c0,0-1.736-11.919,7.455-15.602
					c20.088,4.67,28.367,16.232,23.997,35.176l-24.176,4.238c-4.146,0.727-7.997-2.227-8.119-6.226l-0.178-5.861l-2.643-1.331
					C612.666,152.527,612.23,150.992,612.993,149.826z"/>
				<path style="fill:#495172;" d="M621.903,121.757c0,0,13.55-3.759,18.394-3.788c11.032-0.066,20.415,8.553,20.686,19.02
					c0.086,3.343-0.714,6.5-2.191,9.278c-0.183,0.344-0.383,0.616-0.593,0.846l-9.14,15.237c-8.596-2.35-9.644-9.382-9.644-9.382
					c2.731-0.422,4.723-2.931,4.101-5.745c-0.367-1.657-1.732-3.049-3.443-3.531c-1.261-0.355-2.461-0.229-3.489,0.199l-1.522-3.153
					c-0.584-1.209-1.606-2.179-2.881-2.731l-12.317-5.342c-0.064-0.023-0.126-0.047-0.188-0.071
					C615.185,130.661,615.185,123.338,621.903,121.757z"/>
				<rect x="616.336" y="150.681" style="fill:#C9773F;" width="0.5" height="3.82"/>
				<path style="fill:#C9773F;" d="M638.655,153.272c-2.539,0-4.028-1.764-4.096-1.846l0.385-0.319
					c0.017,0.02,1.691,1.995,4.435,1.613l0.07,0.495C639.174,153.254,638.909,153.272,638.655,153.272z"/>
				<path style="fill:#C9773F;" d="M639.059,151.091l-0.088-0.492c1.592-0.287,2.186-1.298,2.211-2.148
					c0.029-0.978-0.648-2.137-2.226-2.52l0.117-0.486c1.577,0.383,2.65,1.625,2.608,3.021
					C641.651,149.511,640.946,150.751,639.059,151.091z"/>
			</g>
			
				<rect x="627.086" y="164.116" transform="matrix(0.8857 -0.4642 0.4642 0.8857 -4.2033 311.6592)" style="fill:#C9773F;" width="7.589" height="0.501"/>
			<rect x="615.998" y="422.309" style="fill:#1E4B97;" width="28.72" height="0.5"/>
			<rect x="669.899" y="422.309" style="fill:#1E4B97;" width="29.228" height="0.5"/>
			<rect x="593.335" y="440.983" style="fill:#D4E6F9;" width="47.195" height="0.5"/>
			<rect x="650.912" y="440.983" style="fill:#D4E6F9;" width="49.466" height="0.5"/>
		</g>
		<rect x="38.6" y="443.898" style="fill:#091724;" width="672.8" height="0.5"/>
	</g>
</g>
</svg>
